%TF.GenerationSoftware,KiCad,Pcbnew,8.0.3*%
%TF.CreationDate,2024-06-27T17:09:37+08:00*%
%TF.ProjectId,Kicad8,4b696361-6438-42e6-9b69-6361645f7063,rev?*%
%TF.SameCoordinates,Original*%
%TF.FileFunction,Legend,Bot*%
%TF.FilePolarity,Positive*%
%FSLAX46Y46*%
G04 Gerber Fmt 4.6, Leading zero omitted, Abs format (unit mm)*
G04 Created by KiCad (PCBNEW 8.0.3) date 2024-06-27 17:09:37*
%MOMM*%
%LPD*%
G01*
G04 APERTURE LIST*
%ADD10C,0.200000*%
G04 APERTURE END LIST*
D10*
X159177941Y-80024950D02*
X159177941Y-78024950D01*
X159177941Y-78024950D02*
X158416036Y-78024950D01*
X158416036Y-78024950D02*
X158225560Y-78120188D01*
X158225560Y-78120188D02*
X158130322Y-78215426D01*
X158130322Y-78215426D02*
X158035084Y-78405902D01*
X158035084Y-78405902D02*
X158035084Y-78691616D01*
X158035084Y-78691616D02*
X158130322Y-78882092D01*
X158130322Y-78882092D02*
X158225560Y-78977331D01*
X158225560Y-78977331D02*
X158416036Y-79072569D01*
X158416036Y-79072569D02*
X159177941Y-79072569D01*
X157177941Y-80024950D02*
X157177941Y-78691616D01*
X157177941Y-79072569D02*
X157082703Y-78882092D01*
X157082703Y-78882092D02*
X156987465Y-78786854D01*
X156987465Y-78786854D02*
X156796989Y-78691616D01*
X156796989Y-78691616D02*
X156606512Y-78691616D01*
X155654132Y-80024950D02*
X155844608Y-79929712D01*
X155844608Y-79929712D02*
X155939846Y-79834473D01*
X155939846Y-79834473D02*
X156035084Y-79643997D01*
X156035084Y-79643997D02*
X156035084Y-79072569D01*
X156035084Y-79072569D02*
X155939846Y-78882092D01*
X155939846Y-78882092D02*
X155844608Y-78786854D01*
X155844608Y-78786854D02*
X155654132Y-78691616D01*
X155654132Y-78691616D02*
X155368417Y-78691616D01*
X155368417Y-78691616D02*
X155177941Y-78786854D01*
X155177941Y-78786854D02*
X155082703Y-78882092D01*
X155082703Y-78882092D02*
X154987465Y-79072569D01*
X154987465Y-79072569D02*
X154987465Y-79643997D01*
X154987465Y-79643997D02*
X155082703Y-79834473D01*
X155082703Y-79834473D02*
X155177941Y-79929712D01*
X155177941Y-79929712D02*
X155368417Y-80024950D01*
X155368417Y-80024950D02*
X155654132Y-80024950D01*
X154130322Y-78691616D02*
X154130322Y-80405902D01*
X154130322Y-80405902D02*
X154225560Y-80596378D01*
X154225560Y-80596378D02*
X154416036Y-80691616D01*
X154416036Y-80691616D02*
X154511274Y-80691616D01*
X154130322Y-78024950D02*
X154225560Y-78120188D01*
X154225560Y-78120188D02*
X154130322Y-78215426D01*
X154130322Y-78215426D02*
X154035084Y-78120188D01*
X154035084Y-78120188D02*
X154130322Y-78024950D01*
X154130322Y-78024950D02*
X154130322Y-78215426D01*
X152416036Y-79929712D02*
X152606512Y-80024950D01*
X152606512Y-80024950D02*
X152987465Y-80024950D01*
X152987465Y-80024950D02*
X153177941Y-79929712D01*
X153177941Y-79929712D02*
X153273179Y-79739235D01*
X153273179Y-79739235D02*
X153273179Y-78977331D01*
X153273179Y-78977331D02*
X153177941Y-78786854D01*
X153177941Y-78786854D02*
X152987465Y-78691616D01*
X152987465Y-78691616D02*
X152606512Y-78691616D01*
X152606512Y-78691616D02*
X152416036Y-78786854D01*
X152416036Y-78786854D02*
X152320798Y-78977331D01*
X152320798Y-78977331D02*
X152320798Y-79167807D01*
X152320798Y-79167807D02*
X153273179Y-79358283D01*
X150606512Y-79929712D02*
X150796988Y-80024950D01*
X150796988Y-80024950D02*
X151177941Y-80024950D01*
X151177941Y-80024950D02*
X151368417Y-79929712D01*
X151368417Y-79929712D02*
X151463655Y-79834473D01*
X151463655Y-79834473D02*
X151558893Y-79643997D01*
X151558893Y-79643997D02*
X151558893Y-79072569D01*
X151558893Y-79072569D02*
X151463655Y-78882092D01*
X151463655Y-78882092D02*
X151368417Y-78786854D01*
X151368417Y-78786854D02*
X151177941Y-78691616D01*
X151177941Y-78691616D02*
X150796988Y-78691616D01*
X150796988Y-78691616D02*
X150606512Y-78786854D01*
X150035083Y-78691616D02*
X149273179Y-78691616D01*
X149749369Y-78024950D02*
X149749369Y-79739235D01*
X149749369Y-79739235D02*
X149654131Y-79929712D01*
X149654131Y-79929712D02*
X149463655Y-80024950D01*
X149463655Y-80024950D02*
X149273179Y-80024950D01*
X146416035Y-78977331D02*
X146130321Y-79072569D01*
X146130321Y-79072569D02*
X146035083Y-79167807D01*
X146035083Y-79167807D02*
X145939845Y-79358283D01*
X145939845Y-79358283D02*
X145939845Y-79643997D01*
X145939845Y-79643997D02*
X146035083Y-79834473D01*
X146035083Y-79834473D02*
X146130321Y-79929712D01*
X146130321Y-79929712D02*
X146320797Y-80024950D01*
X146320797Y-80024950D02*
X147082702Y-80024950D01*
X147082702Y-80024950D02*
X147082702Y-78024950D01*
X147082702Y-78024950D02*
X146416035Y-78024950D01*
X146416035Y-78024950D02*
X146225559Y-78120188D01*
X146225559Y-78120188D02*
X146130321Y-78215426D01*
X146130321Y-78215426D02*
X146035083Y-78405902D01*
X146035083Y-78405902D02*
X146035083Y-78596378D01*
X146035083Y-78596378D02*
X146130321Y-78786854D01*
X146130321Y-78786854D02*
X146225559Y-78882092D01*
X146225559Y-78882092D02*
X146416035Y-78977331D01*
X146416035Y-78977331D02*
X147082702Y-78977331D01*
X145273178Y-78691616D02*
X144796988Y-80024950D01*
X144320797Y-78691616D02*
X144796988Y-80024950D01*
X144796988Y-80024950D02*
X144987464Y-80501140D01*
X144987464Y-80501140D02*
X145082702Y-80596378D01*
X145082702Y-80596378D02*
X145273178Y-80691616D01*
X142130320Y-79453521D02*
X141177939Y-79453521D01*
X142320796Y-80024950D02*
X141654130Y-78024950D01*
X141654130Y-78024950D02*
X140987463Y-80024950D01*
X140320796Y-78691616D02*
X140320796Y-80024950D01*
X140320796Y-78882092D02*
X140225558Y-78786854D01*
X140225558Y-78786854D02*
X140035082Y-78691616D01*
X140035082Y-78691616D02*
X139749367Y-78691616D01*
X139749367Y-78691616D02*
X139558891Y-78786854D01*
X139558891Y-78786854D02*
X139463653Y-78977331D01*
X139463653Y-78977331D02*
X139463653Y-80024950D01*
X138225558Y-80024950D02*
X138416034Y-79929712D01*
X138416034Y-79929712D02*
X138511272Y-79834473D01*
X138511272Y-79834473D02*
X138606510Y-79643997D01*
X138606510Y-79643997D02*
X138606510Y-79072569D01*
X138606510Y-79072569D02*
X138511272Y-78882092D01*
X138511272Y-78882092D02*
X138416034Y-78786854D01*
X138416034Y-78786854D02*
X138225558Y-78691616D01*
X138225558Y-78691616D02*
X137939843Y-78691616D01*
X137939843Y-78691616D02*
X137749367Y-78786854D01*
X137749367Y-78786854D02*
X137654129Y-78882092D01*
X137654129Y-78882092D02*
X137558891Y-79072569D01*
X137558891Y-79072569D02*
X137558891Y-79643997D01*
X137558891Y-79643997D02*
X137654129Y-79834473D01*
X137654129Y-79834473D02*
X137749367Y-79929712D01*
X137749367Y-79929712D02*
X137939843Y-80024950D01*
X137939843Y-80024950D02*
X138225558Y-80024950D01*
X136987462Y-78691616D02*
X136225558Y-78691616D01*
X136701748Y-78024950D02*
X136701748Y-79739235D01*
X136701748Y-79739235D02*
X136606510Y-79929712D01*
X136606510Y-79929712D02*
X136416034Y-80024950D01*
X136416034Y-80024950D02*
X136225558Y-80024950D01*
X135558891Y-80024950D02*
X135558891Y-78024950D01*
X134701748Y-80024950D02*
X134701748Y-78977331D01*
X134701748Y-78977331D02*
X134796986Y-78786854D01*
X134796986Y-78786854D02*
X134987462Y-78691616D01*
X134987462Y-78691616D02*
X135273177Y-78691616D01*
X135273177Y-78691616D02*
X135463653Y-78786854D01*
X135463653Y-78786854D02*
X135558891Y-78882092D01*
X132987462Y-79929712D02*
X133177938Y-80024950D01*
X133177938Y-80024950D02*
X133558891Y-80024950D01*
X133558891Y-80024950D02*
X133749367Y-79929712D01*
X133749367Y-79929712D02*
X133844605Y-79739235D01*
X133844605Y-79739235D02*
X133844605Y-78977331D01*
X133844605Y-78977331D02*
X133749367Y-78786854D01*
X133749367Y-78786854D02*
X133558891Y-78691616D01*
X133558891Y-78691616D02*
X133177938Y-78691616D01*
X133177938Y-78691616D02*
X132987462Y-78786854D01*
X132987462Y-78786854D02*
X132892224Y-78977331D01*
X132892224Y-78977331D02*
X132892224Y-79167807D01*
X132892224Y-79167807D02*
X133844605Y-79358283D01*
X132035081Y-80024950D02*
X132035081Y-78691616D01*
X132035081Y-79072569D02*
X131939843Y-78882092D01*
X131939843Y-78882092D02*
X131844605Y-78786854D01*
X131844605Y-78786854D02*
X131654129Y-78691616D01*
X131654129Y-78691616D02*
X131463652Y-78691616D01*
X130796986Y-80024950D02*
X130796986Y-78024950D01*
X130796986Y-78024950D02*
X130130319Y-79453521D01*
X130130319Y-79453521D02*
X129463653Y-78024950D01*
X129463653Y-78024950D02*
X129463653Y-80024950D01*
X127654129Y-80024950D02*
X127654129Y-78977331D01*
X127654129Y-78977331D02*
X127749367Y-78786854D01*
X127749367Y-78786854D02*
X127939843Y-78691616D01*
X127939843Y-78691616D02*
X128320796Y-78691616D01*
X128320796Y-78691616D02*
X128511272Y-78786854D01*
X127654129Y-79929712D02*
X127844605Y-80024950D01*
X127844605Y-80024950D02*
X128320796Y-80024950D01*
X128320796Y-80024950D02*
X128511272Y-79929712D01*
X128511272Y-79929712D02*
X128606510Y-79739235D01*
X128606510Y-79739235D02*
X128606510Y-79548759D01*
X128606510Y-79548759D02*
X128511272Y-79358283D01*
X128511272Y-79358283D02*
X128320796Y-79263045D01*
X128320796Y-79263045D02*
X127844605Y-79263045D01*
X127844605Y-79263045D02*
X127654129Y-79167807D01*
X126701748Y-80024950D02*
X126701748Y-78024950D01*
X126511272Y-79263045D02*
X125939843Y-80024950D01*
X125939843Y-78691616D02*
X126701748Y-79453521D01*
X124320795Y-79929712D02*
X124511271Y-80024950D01*
X124511271Y-80024950D02*
X124892224Y-80024950D01*
X124892224Y-80024950D02*
X125082700Y-79929712D01*
X125082700Y-79929712D02*
X125177938Y-79739235D01*
X125177938Y-79739235D02*
X125177938Y-78977331D01*
X125177938Y-78977331D02*
X125082700Y-78786854D01*
X125082700Y-78786854D02*
X124892224Y-78691616D01*
X124892224Y-78691616D02*
X124511271Y-78691616D01*
X124511271Y-78691616D02*
X124320795Y-78786854D01*
X124320795Y-78786854D02*
X124225557Y-78977331D01*
X124225557Y-78977331D02*
X124225557Y-79167807D01*
X124225557Y-79167807D02*
X125177938Y-79358283D01*
X123368414Y-80024950D02*
X123368414Y-78691616D01*
X123368414Y-79072569D02*
X123273176Y-78882092D01*
X123273176Y-78882092D02*
X123177938Y-78786854D01*
X123177938Y-78786854D02*
X122987462Y-78691616D01*
X122987462Y-78691616D02*
X122796985Y-78691616D01*
X172892231Y-83244838D02*
X172892231Y-81244838D01*
X172035088Y-83244838D02*
X172035088Y-82197219D01*
X172035088Y-82197219D02*
X172130326Y-82006742D01*
X172130326Y-82006742D02*
X172320802Y-81911504D01*
X172320802Y-81911504D02*
X172606517Y-81911504D01*
X172606517Y-81911504D02*
X172796993Y-82006742D01*
X172796993Y-82006742D02*
X172892231Y-82101980D01*
X171368421Y-81911504D02*
X170606517Y-81911504D01*
X171082707Y-81244838D02*
X171082707Y-82959123D01*
X171082707Y-82959123D02*
X170987469Y-83149600D01*
X170987469Y-83149600D02*
X170796993Y-83244838D01*
X170796993Y-83244838D02*
X170606517Y-83244838D01*
X170225564Y-81911504D02*
X169463660Y-81911504D01*
X169939850Y-81244838D02*
X169939850Y-82959123D01*
X169939850Y-82959123D02*
X169844612Y-83149600D01*
X169844612Y-83149600D02*
X169654136Y-83244838D01*
X169654136Y-83244838D02*
X169463660Y-83244838D01*
X168796993Y-81911504D02*
X168796993Y-83911504D01*
X168796993Y-82006742D02*
X168606517Y-81911504D01*
X168606517Y-81911504D02*
X168225564Y-81911504D01*
X168225564Y-81911504D02*
X168035088Y-82006742D01*
X168035088Y-82006742D02*
X167939850Y-82101980D01*
X167939850Y-82101980D02*
X167844612Y-82292457D01*
X167844612Y-82292457D02*
X167844612Y-82863885D01*
X167844612Y-82863885D02*
X167939850Y-83054361D01*
X167939850Y-83054361D02*
X168035088Y-83149600D01*
X168035088Y-83149600D02*
X168225564Y-83244838D01*
X168225564Y-83244838D02*
X168606517Y-83244838D01*
X168606517Y-83244838D02*
X168796993Y-83149600D01*
X167082707Y-83149600D02*
X166892231Y-83244838D01*
X166892231Y-83244838D02*
X166511279Y-83244838D01*
X166511279Y-83244838D02*
X166320802Y-83149600D01*
X166320802Y-83149600D02*
X166225564Y-82959123D01*
X166225564Y-82959123D02*
X166225564Y-82863885D01*
X166225564Y-82863885D02*
X166320802Y-82673409D01*
X166320802Y-82673409D02*
X166511279Y-82578171D01*
X166511279Y-82578171D02*
X166796993Y-82578171D01*
X166796993Y-82578171D02*
X166987469Y-82482933D01*
X166987469Y-82482933D02*
X167082707Y-82292457D01*
X167082707Y-82292457D02*
X167082707Y-82197219D01*
X167082707Y-82197219D02*
X166987469Y-82006742D01*
X166987469Y-82006742D02*
X166796993Y-81911504D01*
X166796993Y-81911504D02*
X166511279Y-81911504D01*
X166511279Y-81911504D02*
X166320802Y-82006742D01*
X165368421Y-83054361D02*
X165273183Y-83149600D01*
X165273183Y-83149600D02*
X165368421Y-83244838D01*
X165368421Y-83244838D02*
X165463659Y-83149600D01*
X165463659Y-83149600D02*
X165368421Y-83054361D01*
X165368421Y-83054361D02*
X165368421Y-83244838D01*
X165368421Y-82006742D02*
X165273183Y-82101980D01*
X165273183Y-82101980D02*
X165368421Y-82197219D01*
X165368421Y-82197219D02*
X165463659Y-82101980D01*
X165463659Y-82101980D02*
X165368421Y-82006742D01*
X165368421Y-82006742D02*
X165368421Y-82197219D01*
X162987469Y-81149600D02*
X164701754Y-83721028D01*
X160892231Y-81149600D02*
X162606516Y-83721028D01*
X159368421Y-81911504D02*
X159368421Y-83530552D01*
X159368421Y-83530552D02*
X159463659Y-83721028D01*
X159463659Y-83721028D02*
X159558897Y-83816266D01*
X159558897Y-83816266D02*
X159749374Y-83911504D01*
X159749374Y-83911504D02*
X160035088Y-83911504D01*
X160035088Y-83911504D02*
X160225564Y-83816266D01*
X159368421Y-83149600D02*
X159558897Y-83244838D01*
X159558897Y-83244838D02*
X159939850Y-83244838D01*
X159939850Y-83244838D02*
X160130326Y-83149600D01*
X160130326Y-83149600D02*
X160225564Y-83054361D01*
X160225564Y-83054361D02*
X160320802Y-82863885D01*
X160320802Y-82863885D02*
X160320802Y-82292457D01*
X160320802Y-82292457D02*
X160225564Y-82101980D01*
X160225564Y-82101980D02*
X160130326Y-82006742D01*
X160130326Y-82006742D02*
X159939850Y-81911504D01*
X159939850Y-81911504D02*
X159558897Y-81911504D01*
X159558897Y-81911504D02*
X159368421Y-82006742D01*
X158416040Y-83244838D02*
X158416040Y-81911504D01*
X158416040Y-81244838D02*
X158511278Y-81340076D01*
X158511278Y-81340076D02*
X158416040Y-81435314D01*
X158416040Y-81435314D02*
X158320802Y-81340076D01*
X158320802Y-81340076D02*
X158416040Y-81244838D01*
X158416040Y-81244838D02*
X158416040Y-81435314D01*
X157749373Y-81911504D02*
X156987469Y-81911504D01*
X157463659Y-81244838D02*
X157463659Y-82959123D01*
X157463659Y-82959123D02*
X157368421Y-83149600D01*
X157368421Y-83149600D02*
X157177945Y-83244838D01*
X157177945Y-83244838D02*
X156987469Y-83244838D01*
X156320802Y-83244838D02*
X156320802Y-81244838D01*
X155463659Y-83244838D02*
X155463659Y-82197219D01*
X155463659Y-82197219D02*
X155558897Y-82006742D01*
X155558897Y-82006742D02*
X155749373Y-81911504D01*
X155749373Y-81911504D02*
X156035088Y-81911504D01*
X156035088Y-81911504D02*
X156225564Y-82006742D01*
X156225564Y-82006742D02*
X156320802Y-82101980D01*
X153654135Y-81911504D02*
X153654135Y-83244838D01*
X154511278Y-81911504D02*
X154511278Y-82959123D01*
X154511278Y-82959123D02*
X154416040Y-83149600D01*
X154416040Y-83149600D02*
X154225564Y-83244838D01*
X154225564Y-83244838D02*
X153939849Y-83244838D01*
X153939849Y-83244838D02*
X153749373Y-83149600D01*
X153749373Y-83149600D02*
X153654135Y-83054361D01*
X152701754Y-83244838D02*
X152701754Y-81244838D01*
X152701754Y-82006742D02*
X152511278Y-81911504D01*
X152511278Y-81911504D02*
X152130325Y-81911504D01*
X152130325Y-81911504D02*
X151939849Y-82006742D01*
X151939849Y-82006742D02*
X151844611Y-82101980D01*
X151844611Y-82101980D02*
X151749373Y-82292457D01*
X151749373Y-82292457D02*
X151749373Y-82863885D01*
X151749373Y-82863885D02*
X151844611Y-83054361D01*
X151844611Y-83054361D02*
X151939849Y-83149600D01*
X151939849Y-83149600D02*
X152130325Y-83244838D01*
X152130325Y-83244838D02*
X152511278Y-83244838D01*
X152511278Y-83244838D02*
X152701754Y-83149600D01*
X150892230Y-83054361D02*
X150796992Y-83149600D01*
X150796992Y-83149600D02*
X150892230Y-83244838D01*
X150892230Y-83244838D02*
X150987468Y-83149600D01*
X150987468Y-83149600D02*
X150892230Y-83054361D01*
X150892230Y-83054361D02*
X150892230Y-83244838D01*
X149082706Y-83149600D02*
X149273182Y-83244838D01*
X149273182Y-83244838D02*
X149654135Y-83244838D01*
X149654135Y-83244838D02*
X149844611Y-83149600D01*
X149844611Y-83149600D02*
X149939849Y-83054361D01*
X149939849Y-83054361D02*
X150035087Y-82863885D01*
X150035087Y-82863885D02*
X150035087Y-82292457D01*
X150035087Y-82292457D02*
X149939849Y-82101980D01*
X149939849Y-82101980D02*
X149844611Y-82006742D01*
X149844611Y-82006742D02*
X149654135Y-81911504D01*
X149654135Y-81911504D02*
X149273182Y-81911504D01*
X149273182Y-81911504D02*
X149082706Y-82006742D01*
X147939849Y-83244838D02*
X148130325Y-83149600D01*
X148130325Y-83149600D02*
X148225563Y-83054361D01*
X148225563Y-83054361D02*
X148320801Y-82863885D01*
X148320801Y-82863885D02*
X148320801Y-82292457D01*
X148320801Y-82292457D02*
X148225563Y-82101980D01*
X148225563Y-82101980D02*
X148130325Y-82006742D01*
X148130325Y-82006742D02*
X147939849Y-81911504D01*
X147939849Y-81911504D02*
X147654134Y-81911504D01*
X147654134Y-81911504D02*
X147463658Y-82006742D01*
X147463658Y-82006742D02*
X147368420Y-82101980D01*
X147368420Y-82101980D02*
X147273182Y-82292457D01*
X147273182Y-82292457D02*
X147273182Y-82863885D01*
X147273182Y-82863885D02*
X147368420Y-83054361D01*
X147368420Y-83054361D02*
X147463658Y-83149600D01*
X147463658Y-83149600D02*
X147654134Y-83244838D01*
X147654134Y-83244838D02*
X147939849Y-83244838D01*
X146416039Y-83244838D02*
X146416039Y-81911504D01*
X146416039Y-82101980D02*
X146320801Y-82006742D01*
X146320801Y-82006742D02*
X146130325Y-81911504D01*
X146130325Y-81911504D02*
X145844610Y-81911504D01*
X145844610Y-81911504D02*
X145654134Y-82006742D01*
X145654134Y-82006742D02*
X145558896Y-82197219D01*
X145558896Y-82197219D02*
X145558896Y-83244838D01*
X145558896Y-82197219D02*
X145463658Y-82006742D01*
X145463658Y-82006742D02*
X145273182Y-81911504D01*
X145273182Y-81911504D02*
X144987468Y-81911504D01*
X144987468Y-81911504D02*
X144796991Y-82006742D01*
X144796991Y-82006742D02*
X144701753Y-82197219D01*
X144701753Y-82197219D02*
X144701753Y-83244838D01*
X142320801Y-81149600D02*
X144035086Y-83721028D01*
X141654134Y-83244838D02*
X141654134Y-81911504D01*
X141654134Y-82101980D02*
X141558896Y-82006742D01*
X141558896Y-82006742D02*
X141368420Y-81911504D01*
X141368420Y-81911504D02*
X141082705Y-81911504D01*
X141082705Y-81911504D02*
X140892229Y-82006742D01*
X140892229Y-82006742D02*
X140796991Y-82197219D01*
X140796991Y-82197219D02*
X140796991Y-83244838D01*
X140796991Y-82197219D02*
X140701753Y-82006742D01*
X140701753Y-82006742D02*
X140511277Y-81911504D01*
X140511277Y-81911504D02*
X140225563Y-81911504D01*
X140225563Y-81911504D02*
X140035086Y-82006742D01*
X140035086Y-82006742D02*
X139939848Y-82197219D01*
X139939848Y-82197219D02*
X139939848Y-83244838D01*
X138130324Y-81911504D02*
X138130324Y-83244838D01*
X138987467Y-81911504D02*
X138987467Y-82959123D01*
X138987467Y-82959123D02*
X138892229Y-83149600D01*
X138892229Y-83149600D02*
X138701753Y-83244838D01*
X138701753Y-83244838D02*
X138416038Y-83244838D01*
X138416038Y-83244838D02*
X138225562Y-83149600D01*
X138225562Y-83149600D02*
X138130324Y-83054361D01*
X136320800Y-83244838D02*
X136320800Y-81244838D01*
X136320800Y-83149600D02*
X136511276Y-83244838D01*
X136511276Y-83244838D02*
X136892229Y-83244838D01*
X136892229Y-83244838D02*
X137082705Y-83149600D01*
X137082705Y-83149600D02*
X137177943Y-83054361D01*
X137177943Y-83054361D02*
X137273181Y-82863885D01*
X137273181Y-82863885D02*
X137273181Y-82292457D01*
X137273181Y-82292457D02*
X137177943Y-82101980D01*
X137177943Y-82101980D02*
X137082705Y-82006742D01*
X137082705Y-82006742D02*
X136892229Y-81911504D01*
X136892229Y-81911504D02*
X136511276Y-81911504D01*
X136511276Y-81911504D02*
X136320800Y-82006742D01*
X135368419Y-83244838D02*
X135368419Y-81911504D01*
X135368419Y-82101980D02*
X135273181Y-82006742D01*
X135273181Y-82006742D02*
X135082705Y-81911504D01*
X135082705Y-81911504D02*
X134796990Y-81911504D01*
X134796990Y-81911504D02*
X134606514Y-82006742D01*
X134606514Y-82006742D02*
X134511276Y-82197219D01*
X134511276Y-82197219D02*
X134511276Y-83244838D01*
X134511276Y-82197219D02*
X134416038Y-82006742D01*
X134416038Y-82006742D02*
X134225562Y-81911504D01*
X134225562Y-81911504D02*
X133939848Y-81911504D01*
X133939848Y-81911504D02*
X133749371Y-82006742D01*
X133749371Y-82006742D02*
X133654133Y-82197219D01*
X133654133Y-82197219D02*
X133654133Y-83244838D01*
X132701752Y-83244838D02*
X132701752Y-81911504D01*
X132701752Y-81244838D02*
X132796990Y-81340076D01*
X132796990Y-81340076D02*
X132701752Y-81435314D01*
X132701752Y-81435314D02*
X132606514Y-81340076D01*
X132606514Y-81340076D02*
X132701752Y-81244838D01*
X132701752Y-81244838D02*
X132701752Y-81435314D01*
X131749371Y-81911504D02*
X131749371Y-83244838D01*
X131749371Y-82101980D02*
X131654133Y-82006742D01*
X131654133Y-82006742D02*
X131463657Y-81911504D01*
X131463657Y-81911504D02*
X131177942Y-81911504D01*
X131177942Y-81911504D02*
X130987466Y-82006742D01*
X130987466Y-82006742D02*
X130892228Y-82197219D01*
X130892228Y-82197219D02*
X130892228Y-83244838D01*
X128511276Y-81149600D02*
X130225561Y-83721028D01*
X127939847Y-82673409D02*
X126987466Y-82673409D01*
X128130323Y-83244838D02*
X127463657Y-81244838D01*
X127463657Y-81244838D02*
X126796990Y-83244838D01*
X126130323Y-81911504D02*
X126130323Y-83244838D01*
X126130323Y-82101980D02*
X126035085Y-82006742D01*
X126035085Y-82006742D02*
X125844609Y-81911504D01*
X125844609Y-81911504D02*
X125558894Y-81911504D01*
X125558894Y-81911504D02*
X125368418Y-82006742D01*
X125368418Y-82006742D02*
X125273180Y-82197219D01*
X125273180Y-82197219D02*
X125273180Y-83244838D01*
X124035085Y-83244838D02*
X124225561Y-83149600D01*
X124225561Y-83149600D02*
X124320799Y-83054361D01*
X124320799Y-83054361D02*
X124416037Y-82863885D01*
X124416037Y-82863885D02*
X124416037Y-82292457D01*
X124416037Y-82292457D02*
X124320799Y-82101980D01*
X124320799Y-82101980D02*
X124225561Y-82006742D01*
X124225561Y-82006742D02*
X124035085Y-81911504D01*
X124035085Y-81911504D02*
X123749370Y-81911504D01*
X123749370Y-81911504D02*
X123558894Y-82006742D01*
X123558894Y-82006742D02*
X123463656Y-82101980D01*
X123463656Y-82101980D02*
X123368418Y-82292457D01*
X123368418Y-82292457D02*
X123368418Y-82863885D01*
X123368418Y-82863885D02*
X123463656Y-83054361D01*
X123463656Y-83054361D02*
X123558894Y-83149600D01*
X123558894Y-83149600D02*
X123749370Y-83244838D01*
X123749370Y-83244838D02*
X124035085Y-83244838D01*
X122796989Y-81911504D02*
X122035085Y-81911504D01*
X122511275Y-81244838D02*
X122511275Y-82959123D01*
X122511275Y-82959123D02*
X122416037Y-83149600D01*
X122416037Y-83149600D02*
X122225561Y-83244838D01*
X122225561Y-83244838D02*
X122035085Y-83244838D01*
X121368418Y-83244838D02*
X121368418Y-81244838D01*
X120511275Y-83244838D02*
X120511275Y-82197219D01*
X120511275Y-82197219D02*
X120606513Y-82006742D01*
X120606513Y-82006742D02*
X120796989Y-81911504D01*
X120796989Y-81911504D02*
X121082704Y-81911504D01*
X121082704Y-81911504D02*
X121273180Y-82006742D01*
X121273180Y-82006742D02*
X121368418Y-82101980D01*
X118796989Y-83149600D02*
X118987465Y-83244838D01*
X118987465Y-83244838D02*
X119368418Y-83244838D01*
X119368418Y-83244838D02*
X119558894Y-83149600D01*
X119558894Y-83149600D02*
X119654132Y-82959123D01*
X119654132Y-82959123D02*
X119654132Y-82197219D01*
X119654132Y-82197219D02*
X119558894Y-82006742D01*
X119558894Y-82006742D02*
X119368418Y-81911504D01*
X119368418Y-81911504D02*
X118987465Y-81911504D01*
X118987465Y-81911504D02*
X118796989Y-82006742D01*
X118796989Y-82006742D02*
X118701751Y-82197219D01*
X118701751Y-82197219D02*
X118701751Y-82387695D01*
X118701751Y-82387695D02*
X119654132Y-82578171D01*
X117844608Y-83244838D02*
X117844608Y-81911504D01*
X117844608Y-82292457D02*
X117749370Y-82101980D01*
X117749370Y-82101980D02*
X117654132Y-82006742D01*
X117654132Y-82006742D02*
X117463656Y-81911504D01*
X117463656Y-81911504D02*
X117273179Y-81911504D01*
X116606513Y-83244838D02*
X116606513Y-81244838D01*
X116606513Y-81244838D02*
X115939846Y-82673409D01*
X115939846Y-82673409D02*
X115273180Y-81244838D01*
X115273180Y-81244838D02*
X115273180Y-83244838D01*
X113463656Y-83244838D02*
X113463656Y-82197219D01*
X113463656Y-82197219D02*
X113558894Y-82006742D01*
X113558894Y-82006742D02*
X113749370Y-81911504D01*
X113749370Y-81911504D02*
X114130323Y-81911504D01*
X114130323Y-81911504D02*
X114320799Y-82006742D01*
X113463656Y-83149600D02*
X113654132Y-83244838D01*
X113654132Y-83244838D02*
X114130323Y-83244838D01*
X114130323Y-83244838D02*
X114320799Y-83149600D01*
X114320799Y-83149600D02*
X114416037Y-82959123D01*
X114416037Y-82959123D02*
X114416037Y-82768647D01*
X114416037Y-82768647D02*
X114320799Y-82578171D01*
X114320799Y-82578171D02*
X114130323Y-82482933D01*
X114130323Y-82482933D02*
X113654132Y-82482933D01*
X113654132Y-82482933D02*
X113463656Y-82387695D01*
X112511275Y-83244838D02*
X112511275Y-81244838D01*
X112320799Y-82482933D02*
X111749370Y-83244838D01*
X111749370Y-81911504D02*
X112511275Y-82673409D01*
X110130322Y-83149600D02*
X110320798Y-83244838D01*
X110320798Y-83244838D02*
X110701751Y-83244838D01*
X110701751Y-83244838D02*
X110892227Y-83149600D01*
X110892227Y-83149600D02*
X110987465Y-82959123D01*
X110987465Y-82959123D02*
X110987465Y-82197219D01*
X110987465Y-82197219D02*
X110892227Y-82006742D01*
X110892227Y-82006742D02*
X110701751Y-81911504D01*
X110701751Y-81911504D02*
X110320798Y-81911504D01*
X110320798Y-81911504D02*
X110130322Y-82006742D01*
X110130322Y-82006742D02*
X110035084Y-82197219D01*
X110035084Y-82197219D02*
X110035084Y-82387695D01*
X110035084Y-82387695D02*
X110987465Y-82578171D01*
X109177941Y-83244838D02*
X109177941Y-81911504D01*
X109177941Y-82292457D02*
X109082703Y-82101980D01*
X109082703Y-82101980D02*
X108987465Y-82006742D01*
X108987465Y-82006742D02*
X108796989Y-81911504D01*
X108796989Y-81911504D02*
X108606512Y-81911504D01*
X106511275Y-81149600D02*
X108225560Y-83721028D01*
M02*
