M48
; DRILL file {KiCad 8.0.3} date 2024-06-27T17:09:29+0800
; FORMAT={-:-/ absolute / inch / decimal}
; #@! TF.CreationDate,2024-06-27T17:09:29+08:00
; #@! TF.GenerationSoftware,Kicad,Pcbnew,8.0.3
; #@! TF.FileFunction,Plated,1,2,PTH
FMAT,2
INCH
; #@! TA.AperFunction,Plated,PTH,ViaDrill
T1C0.0118
; #@! TA.AperFunction,Plated,PTH,ComponentDrill
T2C0.0315
; #@! TA.AperFunction,Plated,PTH,ComponentDrill
T3C0.0354
; #@! TA.AperFunction,Plated,PTH,ComponentDrill
T4C0.0394
; #@! TA.AperFunction,Plated,PTH,ComponentDrill
T5C0.0433
; #@! TA.AperFunction,Plated,PTH,ComponentDrill
T6C0.0512
%
G90
G05
T1
X6.6985Y-4.8135
T2
X6.9882Y-2.8815
X6.9882Y-3.1815
T3
X6.938Y-2.6575
X7.038Y-2.6575
T4
X4.4094Y-5.227
X4.4094Y-5.327
X4.4094Y-5.427
X4.4094Y-5.527
X4.4094Y-5.627
X4.4094Y-5.727
X4.4094Y-5.827
X4.4094Y-5.927
X4.6118Y-3.6453
X4.6118Y-3.7453
X4.6118Y-3.8453
X4.6118Y-3.9453
X4.6118Y-4.0453
X4.6118Y-4.1453
X4.6118Y-4.2453
X4.6118Y-4.3453
X4.6118Y-5.2264
X4.6118Y-5.3264
X4.6118Y-5.4264
X4.6118Y-5.5264
X4.6118Y-5.6264
X4.6118Y-5.7264
X4.6118Y-5.8264
X4.6118Y-5.9264
X5.5118Y-3.6453
X5.5118Y-3.7453
X5.5118Y-3.8453
X5.5118Y-3.9453
X5.5118Y-4.0453
X5.5118Y-4.1453
X5.5118Y-4.2453
X5.5118Y-4.3453
X5.5118Y-5.2264
X5.5118Y-5.3264
X5.5118Y-5.4264
X5.5118Y-5.5264
X5.5118Y-5.6264
X5.5118Y-5.7264
X5.5118Y-5.8264
X5.5118Y-5.9264
X5.7087Y-5.227
X5.7087Y-5.327
X5.7087Y-5.427
X5.7087Y-5.527
X5.7087Y-5.627
X5.7087Y-5.727
X5.7087Y-5.827
X5.7087Y-5.927
X5.911Y-3.6437
X5.911Y-3.7437
X5.911Y-3.8437
X5.911Y-3.9437
X5.911Y-4.0437
X5.911Y-4.1437
X5.911Y-4.2437
X5.911Y-4.3437
X5.911Y-5.2248
X5.911Y-5.3248
X5.911Y-5.4248
X5.911Y-5.5248
X5.911Y-5.6248
X5.911Y-5.7248
X5.911Y-5.8248
X5.911Y-5.9248
X6.811Y-3.6437
X6.811Y-3.7437
X6.811Y-3.8437
X6.811Y-3.9437
X6.811Y-4.0437
X6.811Y-4.1437
X6.811Y-4.2437
X6.811Y-4.3437
X6.811Y-5.2248
X6.811Y-5.3248
X6.811Y-5.4248
X6.811Y-5.5248
X6.811Y-5.6248
X6.811Y-5.7248
X6.811Y-5.8248
X6.811Y-5.9248
X7.126Y-3.3894
X7.126Y-3.4894
X7.126Y-3.5894
X7.126Y-3.6894
X7.126Y-3.7894
X7.126Y-4.1472
X7.126Y-4.2472
X7.126Y-4.3472
X7.126Y-4.4472
X7.126Y-4.5472
X7.126Y-4.9051
X7.126Y-5.0051
X7.126Y-5.1051
X7.126Y-5.2051
X7.126Y-5.3051
T5
X4.1732Y-3.9012
X4.1732Y-4.0783
X4.4291Y-3.9012
X4.4291Y-4.0783
T6
X7.6378Y-2.815
X7.6378Y-3.0118
X7.6378Y-3.2087
X7.6378Y-3.4055
X7.6378Y-3.6024
X7.6378Y-3.7992
X7.6378Y-3.9961
X7.6378Y-4.1929
X7.6378Y-4.5669
X7.6378Y-4.7638
X7.6378Y-4.9606
X7.6378Y-5.1575
X7.6378Y-5.3543
X7.6378Y-5.5512
X7.6378Y-5.748
X7.6378Y-5.9449
M30
