%TF.GenerationSoftware,KiCad,Pcbnew,8.0.3*%
%TF.CreationDate,2024-06-27T17:09:37+08:00*%
%TF.ProjectId,Kicad8,4b696361-6438-42e6-9b69-6361645f7063,rev?*%
%TF.SameCoordinates,Original*%
%TF.FileFunction,Legend,Top*%
%TF.FilePolarity,Positive*%
%FSLAX46Y46*%
G04 Gerber Fmt 4.6, Leading zero omitted, Abs format (unit mm)*
G04 Created by KiCad (PCBNEW 8.0.3) date 2024-06-27 17:09:37*
%MOMM*%
%LPD*%
G01*
G04 APERTURE LIST*
%ADD10C,0.200000*%
%ADD11C,0.400000*%
%ADD12C,1.500000*%
%ADD13C,0.100000*%
%ADD14C,0.150000*%
%ADD15C,0.120000*%
G04 APERTURE END LIST*
D10*
X183193790Y-130225564D02*
X183193790Y-130987469D01*
X183193790Y-130987469D02*
X183955695Y-131063660D01*
X183955695Y-131063660D02*
X183879504Y-130987469D01*
X183879504Y-130987469D02*
X183803314Y-130835088D01*
X183803314Y-130835088D02*
X183803314Y-130454136D01*
X183803314Y-130454136D02*
X183879504Y-130301755D01*
X183879504Y-130301755D02*
X183955695Y-130225564D01*
X183955695Y-130225564D02*
X184108076Y-130149374D01*
X184108076Y-130149374D02*
X184489028Y-130149374D01*
X184489028Y-130149374D02*
X184641409Y-130225564D01*
X184641409Y-130225564D02*
X184717600Y-130301755D01*
X184717600Y-130301755D02*
X184793790Y-130454136D01*
X184793790Y-130454136D02*
X184793790Y-130835088D01*
X184793790Y-130835088D02*
X184717600Y-130987469D01*
X184717600Y-130987469D02*
X184641409Y-131063660D01*
X183193790Y-129692231D02*
X184793790Y-129158897D01*
X184793790Y-129158897D02*
X183193790Y-128625564D01*
X183193790Y-112639850D02*
X183193790Y-111649374D01*
X183193790Y-111649374D02*
X183803314Y-112182707D01*
X183803314Y-112182707D02*
X183803314Y-111954136D01*
X183803314Y-111954136D02*
X183879504Y-111801755D01*
X183879504Y-111801755D02*
X183955695Y-111725564D01*
X183955695Y-111725564D02*
X184108076Y-111649374D01*
X184108076Y-111649374D02*
X184489028Y-111649374D01*
X184489028Y-111649374D02*
X184641409Y-111725564D01*
X184641409Y-111725564D02*
X184717600Y-111801755D01*
X184717600Y-111801755D02*
X184793790Y-111954136D01*
X184793790Y-111954136D02*
X184793790Y-112411279D01*
X184793790Y-112411279D02*
X184717600Y-112563660D01*
X184717600Y-112563660D02*
X184641409Y-112639850D01*
X183193790Y-111192231D02*
X184793790Y-110658897D01*
X184793790Y-110658897D02*
X183193790Y-110125564D01*
X183193790Y-109744611D02*
X183193790Y-108754135D01*
X183193790Y-108754135D02*
X183803314Y-109287468D01*
X183803314Y-109287468D02*
X183803314Y-109058897D01*
X183803314Y-109058897D02*
X183879504Y-108906516D01*
X183879504Y-108906516D02*
X183955695Y-108830325D01*
X183955695Y-108830325D02*
X184108076Y-108754135D01*
X184108076Y-108754135D02*
X184489028Y-108754135D01*
X184489028Y-108754135D02*
X184641409Y-108830325D01*
X184641409Y-108830325D02*
X184717600Y-108906516D01*
X184717600Y-108906516D02*
X184793790Y-109058897D01*
X184793790Y-109058897D02*
X184793790Y-109516040D01*
X184793790Y-109516040D02*
X184717600Y-109668421D01*
X184717600Y-109668421D02*
X184641409Y-109744611D01*
X183269980Y-92952231D02*
X183193790Y-93104612D01*
X183193790Y-93104612D02*
X183193790Y-93333183D01*
X183193790Y-93333183D02*
X183269980Y-93561755D01*
X183269980Y-93561755D02*
X183422361Y-93714136D01*
X183422361Y-93714136D02*
X183574742Y-93790326D01*
X183574742Y-93790326D02*
X183879504Y-93866517D01*
X183879504Y-93866517D02*
X184108076Y-93866517D01*
X184108076Y-93866517D02*
X184412838Y-93790326D01*
X184412838Y-93790326D02*
X184565219Y-93714136D01*
X184565219Y-93714136D02*
X184717600Y-93561755D01*
X184717600Y-93561755D02*
X184793790Y-93333183D01*
X184793790Y-93333183D02*
X184793790Y-93180802D01*
X184793790Y-93180802D02*
X184717600Y-92952231D01*
X184717600Y-92952231D02*
X184641409Y-92876040D01*
X184641409Y-92876040D02*
X184108076Y-92876040D01*
X184108076Y-92876040D02*
X184108076Y-93180802D01*
X184793790Y-92190326D02*
X183193790Y-92190326D01*
X183193790Y-92190326D02*
X184793790Y-91276040D01*
X184793790Y-91276040D02*
X183193790Y-91276040D01*
X184793790Y-90514136D02*
X183193790Y-90514136D01*
X183193790Y-90514136D02*
X183193790Y-90133184D01*
X183193790Y-90133184D02*
X183269980Y-89904612D01*
X183269980Y-89904612D02*
X183422361Y-89752231D01*
X183422361Y-89752231D02*
X183574742Y-89676041D01*
X183574742Y-89676041D02*
X183879504Y-89599850D01*
X183879504Y-89599850D02*
X184108076Y-89599850D01*
X184108076Y-89599850D02*
X184412838Y-89676041D01*
X184412838Y-89676041D02*
X184565219Y-89752231D01*
X184565219Y-89752231D02*
X184717600Y-89904612D01*
X184717600Y-89904612D02*
X184793790Y-90133184D01*
X184793790Y-90133184D02*
X184793790Y-90514136D01*
D11*
X187234438Y-108979700D02*
X187234438Y-107865414D01*
X187234438Y-107865414D02*
X187996342Y-108465414D01*
X187996342Y-108465414D02*
X187996342Y-108208271D01*
X187996342Y-108208271D02*
X188091580Y-108036843D01*
X188091580Y-108036843D02*
X188186819Y-107951128D01*
X188186819Y-107951128D02*
X188377295Y-107865414D01*
X188377295Y-107865414D02*
X188853485Y-107865414D01*
X188853485Y-107865414D02*
X189043961Y-107951128D01*
X189043961Y-107951128D02*
X189139200Y-108036843D01*
X189139200Y-108036843D02*
X189234438Y-108208271D01*
X189234438Y-108208271D02*
X189234438Y-108722557D01*
X189234438Y-108722557D02*
X189139200Y-108893985D01*
X189139200Y-108893985D02*
X189043961Y-108979700D01*
X187234438Y-107351128D02*
X189234438Y-106751128D01*
X189234438Y-106751128D02*
X187234438Y-106151128D01*
X187234438Y-105722557D02*
X187234438Y-104608271D01*
X187234438Y-104608271D02*
X187996342Y-105208271D01*
X187996342Y-105208271D02*
X187996342Y-104951128D01*
X187996342Y-104951128D02*
X188091580Y-104779700D01*
X188091580Y-104779700D02*
X188186819Y-104693985D01*
X188186819Y-104693985D02*
X188377295Y-104608271D01*
X188377295Y-104608271D02*
X188853485Y-104608271D01*
X188853485Y-104608271D02*
X189043961Y-104693985D01*
X189043961Y-104693985D02*
X189139200Y-104779700D01*
X189139200Y-104779700D02*
X189234438Y-104951128D01*
X189234438Y-104951128D02*
X189234438Y-105465414D01*
X189234438Y-105465414D02*
X189139200Y-105636842D01*
X189139200Y-105636842D02*
X189043961Y-105722557D01*
X189234438Y-102465413D02*
X187234438Y-102465413D01*
X187234438Y-102465413D02*
X187234438Y-102036842D01*
X187234438Y-102036842D02*
X187329676Y-101779699D01*
X187329676Y-101779699D02*
X187520152Y-101608270D01*
X187520152Y-101608270D02*
X187710628Y-101522556D01*
X187710628Y-101522556D02*
X188091580Y-101436842D01*
X188091580Y-101436842D02*
X188377295Y-101436842D01*
X188377295Y-101436842D02*
X188758247Y-101522556D01*
X188758247Y-101522556D02*
X188948723Y-101608270D01*
X188948723Y-101608270D02*
X189139200Y-101779699D01*
X189139200Y-101779699D02*
X189234438Y-102036842D01*
X189234438Y-102036842D02*
X189234438Y-102465413D01*
X188091580Y-100408270D02*
X187996342Y-100579699D01*
X187996342Y-100579699D02*
X187901104Y-100665413D01*
X187901104Y-100665413D02*
X187710628Y-100751127D01*
X187710628Y-100751127D02*
X187615390Y-100751127D01*
X187615390Y-100751127D02*
X187424914Y-100665413D01*
X187424914Y-100665413D02*
X187329676Y-100579699D01*
X187329676Y-100579699D02*
X187234438Y-100408270D01*
X187234438Y-100408270D02*
X187234438Y-100065413D01*
X187234438Y-100065413D02*
X187329676Y-99893985D01*
X187329676Y-99893985D02*
X187424914Y-99808270D01*
X187424914Y-99808270D02*
X187615390Y-99722556D01*
X187615390Y-99722556D02*
X187710628Y-99722556D01*
X187710628Y-99722556D02*
X187901104Y-99808270D01*
X187901104Y-99808270D02*
X187996342Y-99893985D01*
X187996342Y-99893985D02*
X188091580Y-100065413D01*
X188091580Y-100065413D02*
X188091580Y-100408270D01*
X188091580Y-100408270D02*
X188186819Y-100579699D01*
X188186819Y-100579699D02*
X188282057Y-100665413D01*
X188282057Y-100665413D02*
X188472533Y-100751127D01*
X188472533Y-100751127D02*
X188853485Y-100751127D01*
X188853485Y-100751127D02*
X189043961Y-100665413D01*
X189043961Y-100665413D02*
X189139200Y-100579699D01*
X189139200Y-100579699D02*
X189234438Y-100408270D01*
X189234438Y-100408270D02*
X189234438Y-100065413D01*
X189234438Y-100065413D02*
X189139200Y-99893985D01*
X189139200Y-99893985D02*
X189043961Y-99808270D01*
X189043961Y-99808270D02*
X188853485Y-99722556D01*
X188853485Y-99722556D02*
X188472533Y-99722556D01*
X188472533Y-99722556D02*
X188282057Y-99808270D01*
X188282057Y-99808270D02*
X188186819Y-99893985D01*
X188186819Y-99893985D02*
X188091580Y-100065413D01*
X189234438Y-97579698D02*
X187234438Y-97579698D01*
X187234438Y-97579698D02*
X187234438Y-97151127D01*
X187234438Y-97151127D02*
X187329676Y-96893984D01*
X187329676Y-96893984D02*
X187520152Y-96722555D01*
X187520152Y-96722555D02*
X187710628Y-96636841D01*
X187710628Y-96636841D02*
X188091580Y-96551127D01*
X188091580Y-96551127D02*
X188377295Y-96551127D01*
X188377295Y-96551127D02*
X188758247Y-96636841D01*
X188758247Y-96636841D02*
X188948723Y-96722555D01*
X188948723Y-96722555D02*
X189139200Y-96893984D01*
X189139200Y-96893984D02*
X189234438Y-97151127D01*
X189234438Y-97151127D02*
X189234438Y-97579698D01*
X187234438Y-95951127D02*
X187234438Y-94751127D01*
X187234438Y-94751127D02*
X189234438Y-95522555D01*
X189234438Y-92693983D02*
X187234438Y-92693983D01*
X187234438Y-92693983D02*
X187234438Y-92265412D01*
X187234438Y-92265412D02*
X187329676Y-92008269D01*
X187329676Y-92008269D02*
X187520152Y-91836840D01*
X187520152Y-91836840D02*
X187710628Y-91751126D01*
X187710628Y-91751126D02*
X188091580Y-91665412D01*
X188091580Y-91665412D02*
X188377295Y-91665412D01*
X188377295Y-91665412D02*
X188758247Y-91751126D01*
X188758247Y-91751126D02*
X188948723Y-91836840D01*
X188948723Y-91836840D02*
X189139200Y-92008269D01*
X189139200Y-92008269D02*
X189234438Y-92265412D01*
X189234438Y-92265412D02*
X189234438Y-92693983D01*
X187234438Y-90122555D02*
X187234438Y-90465412D01*
X187234438Y-90465412D02*
X187329676Y-90636840D01*
X187329676Y-90636840D02*
X187424914Y-90722555D01*
X187424914Y-90722555D02*
X187710628Y-90893983D01*
X187710628Y-90893983D02*
X188091580Y-90979697D01*
X188091580Y-90979697D02*
X188853485Y-90979697D01*
X188853485Y-90979697D02*
X189043961Y-90893983D01*
X189043961Y-90893983D02*
X189139200Y-90808269D01*
X189139200Y-90808269D02*
X189234438Y-90636840D01*
X189234438Y-90636840D02*
X189234438Y-90293983D01*
X189234438Y-90293983D02*
X189139200Y-90122555D01*
X189139200Y-90122555D02*
X189043961Y-90036840D01*
X189043961Y-90036840D02*
X188853485Y-89951126D01*
X188853485Y-89951126D02*
X188377295Y-89951126D01*
X188377295Y-89951126D02*
X188186819Y-90036840D01*
X188186819Y-90036840D02*
X188091580Y-90122555D01*
X188091580Y-90122555D02*
X187996342Y-90293983D01*
X187996342Y-90293983D02*
X187996342Y-90636840D01*
X187996342Y-90636840D02*
X188091580Y-90808269D01*
X188091580Y-90808269D02*
X188186819Y-90893983D01*
X188186819Y-90893983D02*
X188377295Y-90979697D01*
X189234438Y-87808268D02*
X187234438Y-87808268D01*
X187234438Y-87808268D02*
X187234438Y-87379697D01*
X187234438Y-87379697D02*
X187329676Y-87122554D01*
X187329676Y-87122554D02*
X187520152Y-86951125D01*
X187520152Y-86951125D02*
X187710628Y-86865411D01*
X187710628Y-86865411D02*
X188091580Y-86779697D01*
X188091580Y-86779697D02*
X188377295Y-86779697D01*
X188377295Y-86779697D02*
X188758247Y-86865411D01*
X188758247Y-86865411D02*
X188948723Y-86951125D01*
X188948723Y-86951125D02*
X189139200Y-87122554D01*
X189139200Y-87122554D02*
X189234438Y-87379697D01*
X189234438Y-87379697D02*
X189234438Y-87808268D01*
X187234438Y-85151125D02*
X187234438Y-86008268D01*
X187234438Y-86008268D02*
X188186819Y-86093982D01*
X188186819Y-86093982D02*
X188091580Y-86008268D01*
X188091580Y-86008268D02*
X187996342Y-85836840D01*
X187996342Y-85836840D02*
X187996342Y-85408268D01*
X187996342Y-85408268D02*
X188091580Y-85236840D01*
X188091580Y-85236840D02*
X188186819Y-85151125D01*
X188186819Y-85151125D02*
X188377295Y-85065411D01*
X188377295Y-85065411D02*
X188853485Y-85065411D01*
X188853485Y-85065411D02*
X189043961Y-85151125D01*
X189043961Y-85151125D02*
X189139200Y-85236840D01*
X189139200Y-85236840D02*
X189234438Y-85408268D01*
X189234438Y-85408268D02*
X189234438Y-85836840D01*
X189234438Y-85836840D02*
X189139200Y-86008268D01*
X189139200Y-86008268D02*
X189043961Y-86093982D01*
X189234438Y-82922553D02*
X187234438Y-82922553D01*
X187234438Y-82922553D02*
X187234438Y-82493982D01*
X187234438Y-82493982D02*
X187329676Y-82236839D01*
X187329676Y-82236839D02*
X187520152Y-82065410D01*
X187520152Y-82065410D02*
X187710628Y-81979696D01*
X187710628Y-81979696D02*
X188091580Y-81893982D01*
X188091580Y-81893982D02*
X188377295Y-81893982D01*
X188377295Y-81893982D02*
X188758247Y-81979696D01*
X188758247Y-81979696D02*
X188948723Y-82065410D01*
X188948723Y-82065410D02*
X189139200Y-82236839D01*
X189139200Y-82236839D02*
X189234438Y-82493982D01*
X189234438Y-82493982D02*
X189234438Y-82922553D01*
X187234438Y-80779696D02*
X187234438Y-80608267D01*
X187234438Y-80608267D02*
X187329676Y-80436839D01*
X187329676Y-80436839D02*
X187424914Y-80351125D01*
X187424914Y-80351125D02*
X187615390Y-80265410D01*
X187615390Y-80265410D02*
X187996342Y-80179696D01*
X187996342Y-80179696D02*
X188472533Y-80179696D01*
X188472533Y-80179696D02*
X188853485Y-80265410D01*
X188853485Y-80265410D02*
X189043961Y-80351125D01*
X189043961Y-80351125D02*
X189139200Y-80436839D01*
X189139200Y-80436839D02*
X189234438Y-80608267D01*
X189234438Y-80608267D02*
X189234438Y-80779696D01*
X189234438Y-80779696D02*
X189139200Y-80951125D01*
X189139200Y-80951125D02*
X189043961Y-81036839D01*
X189043961Y-81036839D02*
X188853485Y-81122553D01*
X188853485Y-81122553D02*
X188472533Y-81208267D01*
X188472533Y-81208267D02*
X187996342Y-81208267D01*
X187996342Y-81208267D02*
X187615390Y-81122553D01*
X187615390Y-81122553D02*
X187424914Y-81036839D01*
X187424914Y-81036839D02*
X187329676Y-80951125D01*
X187329676Y-80951125D02*
X187234438Y-80779696D01*
X188663009Y-78122552D02*
X188663009Y-77265410D01*
X189234438Y-78293981D02*
X187234438Y-77693981D01*
X187234438Y-77693981D02*
X189234438Y-77093981D01*
X187234438Y-76151124D02*
X187234438Y-75979695D01*
X187234438Y-75979695D02*
X187329676Y-75808267D01*
X187329676Y-75808267D02*
X187424914Y-75722553D01*
X187424914Y-75722553D02*
X187615390Y-75636838D01*
X187615390Y-75636838D02*
X187996342Y-75551124D01*
X187996342Y-75551124D02*
X188472533Y-75551124D01*
X188472533Y-75551124D02*
X188853485Y-75636838D01*
X188853485Y-75636838D02*
X189043961Y-75722553D01*
X189043961Y-75722553D02*
X189139200Y-75808267D01*
X189139200Y-75808267D02*
X189234438Y-75979695D01*
X189234438Y-75979695D02*
X189234438Y-76151124D01*
X189234438Y-76151124D02*
X189139200Y-76322553D01*
X189139200Y-76322553D02*
X189043961Y-76408267D01*
X189043961Y-76408267D02*
X188853485Y-76493981D01*
X188853485Y-76493981D02*
X188472533Y-76579695D01*
X188472533Y-76579695D02*
X187996342Y-76579695D01*
X187996342Y-76579695D02*
X187615390Y-76493981D01*
X187615390Y-76493981D02*
X187424914Y-76408267D01*
X187424914Y-76408267D02*
X187329676Y-76322553D01*
X187329676Y-76322553D02*
X187234438Y-76151124D01*
X189234438Y-72379695D02*
X188282057Y-72979695D01*
X189234438Y-73408266D02*
X187234438Y-73408266D01*
X187234438Y-73408266D02*
X187234438Y-72722552D01*
X187234438Y-72722552D02*
X187329676Y-72551123D01*
X187329676Y-72551123D02*
X187424914Y-72465409D01*
X187424914Y-72465409D02*
X187615390Y-72379695D01*
X187615390Y-72379695D02*
X187901104Y-72379695D01*
X187901104Y-72379695D02*
X188091580Y-72465409D01*
X188091580Y-72465409D02*
X188186819Y-72551123D01*
X188186819Y-72551123D02*
X188282057Y-72722552D01*
X188282057Y-72722552D02*
X188282057Y-73408266D01*
X189139200Y-71693980D02*
X189234438Y-71436838D01*
X189234438Y-71436838D02*
X189234438Y-71008266D01*
X189234438Y-71008266D02*
X189139200Y-70836838D01*
X189139200Y-70836838D02*
X189043961Y-70751123D01*
X189043961Y-70751123D02*
X188853485Y-70665409D01*
X188853485Y-70665409D02*
X188663009Y-70665409D01*
X188663009Y-70665409D02*
X188472533Y-70751123D01*
X188472533Y-70751123D02*
X188377295Y-70836838D01*
X188377295Y-70836838D02*
X188282057Y-71008266D01*
X188282057Y-71008266D02*
X188186819Y-71351123D01*
X188186819Y-71351123D02*
X188091580Y-71522552D01*
X188091580Y-71522552D02*
X187996342Y-71608266D01*
X187996342Y-71608266D02*
X187805866Y-71693980D01*
X187805866Y-71693980D02*
X187615390Y-71693980D01*
X187615390Y-71693980D02*
X187424914Y-71608266D01*
X187424914Y-71608266D02*
X187329676Y-71522552D01*
X187329676Y-71522552D02*
X187234438Y-71351123D01*
X187234438Y-71351123D02*
X187234438Y-70922552D01*
X187234438Y-70922552D02*
X187329676Y-70665409D01*
X187234438Y-70151123D02*
X187234438Y-69122552D01*
X189234438Y-69636837D02*
X187234438Y-69636837D01*
X187234438Y-152979700D02*
X187234438Y-151865414D01*
X187234438Y-151865414D02*
X187996342Y-152465414D01*
X187996342Y-152465414D02*
X187996342Y-152208271D01*
X187996342Y-152208271D02*
X188091580Y-152036843D01*
X188091580Y-152036843D02*
X188186819Y-151951128D01*
X188186819Y-151951128D02*
X188377295Y-151865414D01*
X188377295Y-151865414D02*
X188853485Y-151865414D01*
X188853485Y-151865414D02*
X189043961Y-151951128D01*
X189043961Y-151951128D02*
X189139200Y-152036843D01*
X189139200Y-152036843D02*
X189234438Y-152208271D01*
X189234438Y-152208271D02*
X189234438Y-152722557D01*
X189234438Y-152722557D02*
X189139200Y-152893985D01*
X189139200Y-152893985D02*
X189043961Y-152979700D01*
X187234438Y-151351128D02*
X189234438Y-150751128D01*
X189234438Y-150751128D02*
X187234438Y-150151128D01*
X187234438Y-149722557D02*
X187234438Y-148608271D01*
X187234438Y-148608271D02*
X187996342Y-149208271D01*
X187996342Y-149208271D02*
X187996342Y-148951128D01*
X187996342Y-148951128D02*
X188091580Y-148779700D01*
X188091580Y-148779700D02*
X188186819Y-148693985D01*
X188186819Y-148693985D02*
X188377295Y-148608271D01*
X188377295Y-148608271D02*
X188853485Y-148608271D01*
X188853485Y-148608271D02*
X189043961Y-148693985D01*
X189043961Y-148693985D02*
X189139200Y-148779700D01*
X189139200Y-148779700D02*
X189234438Y-148951128D01*
X189234438Y-148951128D02*
X189234438Y-149465414D01*
X189234438Y-149465414D02*
X189139200Y-149636842D01*
X189139200Y-149636842D02*
X189043961Y-149722557D01*
X189234438Y-146465413D02*
X187234438Y-146465413D01*
X187234438Y-146465413D02*
X187234438Y-146036842D01*
X187234438Y-146036842D02*
X187329676Y-145779699D01*
X187329676Y-145779699D02*
X187520152Y-145608270D01*
X187520152Y-145608270D02*
X187710628Y-145522556D01*
X187710628Y-145522556D02*
X188091580Y-145436842D01*
X188091580Y-145436842D02*
X188377295Y-145436842D01*
X188377295Y-145436842D02*
X188758247Y-145522556D01*
X188758247Y-145522556D02*
X188948723Y-145608270D01*
X188948723Y-145608270D02*
X189139200Y-145779699D01*
X189139200Y-145779699D02*
X189234438Y-146036842D01*
X189234438Y-146036842D02*
X189234438Y-146465413D01*
X188091580Y-144408270D02*
X187996342Y-144579699D01*
X187996342Y-144579699D02*
X187901104Y-144665413D01*
X187901104Y-144665413D02*
X187710628Y-144751127D01*
X187710628Y-144751127D02*
X187615390Y-144751127D01*
X187615390Y-144751127D02*
X187424914Y-144665413D01*
X187424914Y-144665413D02*
X187329676Y-144579699D01*
X187329676Y-144579699D02*
X187234438Y-144408270D01*
X187234438Y-144408270D02*
X187234438Y-144065413D01*
X187234438Y-144065413D02*
X187329676Y-143893985D01*
X187329676Y-143893985D02*
X187424914Y-143808270D01*
X187424914Y-143808270D02*
X187615390Y-143722556D01*
X187615390Y-143722556D02*
X187710628Y-143722556D01*
X187710628Y-143722556D02*
X187901104Y-143808270D01*
X187901104Y-143808270D02*
X187996342Y-143893985D01*
X187996342Y-143893985D02*
X188091580Y-144065413D01*
X188091580Y-144065413D02*
X188091580Y-144408270D01*
X188091580Y-144408270D02*
X188186819Y-144579699D01*
X188186819Y-144579699D02*
X188282057Y-144665413D01*
X188282057Y-144665413D02*
X188472533Y-144751127D01*
X188472533Y-144751127D02*
X188853485Y-144751127D01*
X188853485Y-144751127D02*
X189043961Y-144665413D01*
X189043961Y-144665413D02*
X189139200Y-144579699D01*
X189139200Y-144579699D02*
X189234438Y-144408270D01*
X189234438Y-144408270D02*
X189234438Y-144065413D01*
X189234438Y-144065413D02*
X189139200Y-143893985D01*
X189139200Y-143893985D02*
X189043961Y-143808270D01*
X189043961Y-143808270D02*
X188853485Y-143722556D01*
X188853485Y-143722556D02*
X188472533Y-143722556D01*
X188472533Y-143722556D02*
X188282057Y-143808270D01*
X188282057Y-143808270D02*
X188186819Y-143893985D01*
X188186819Y-143893985D02*
X188091580Y-144065413D01*
X189234438Y-141579698D02*
X187234438Y-141579698D01*
X187234438Y-141579698D02*
X187234438Y-141151127D01*
X187234438Y-141151127D02*
X187329676Y-140893984D01*
X187329676Y-140893984D02*
X187520152Y-140722555D01*
X187520152Y-140722555D02*
X187710628Y-140636841D01*
X187710628Y-140636841D02*
X188091580Y-140551127D01*
X188091580Y-140551127D02*
X188377295Y-140551127D01*
X188377295Y-140551127D02*
X188758247Y-140636841D01*
X188758247Y-140636841D02*
X188948723Y-140722555D01*
X188948723Y-140722555D02*
X189139200Y-140893984D01*
X189139200Y-140893984D02*
X189234438Y-141151127D01*
X189234438Y-141151127D02*
X189234438Y-141579698D01*
X187234438Y-139951127D02*
X187234438Y-138751127D01*
X187234438Y-138751127D02*
X189234438Y-139522555D01*
X189234438Y-136693983D02*
X187234438Y-136693983D01*
X187234438Y-136693983D02*
X187234438Y-136265412D01*
X187234438Y-136265412D02*
X187329676Y-136008269D01*
X187329676Y-136008269D02*
X187520152Y-135836840D01*
X187520152Y-135836840D02*
X187710628Y-135751126D01*
X187710628Y-135751126D02*
X188091580Y-135665412D01*
X188091580Y-135665412D02*
X188377295Y-135665412D01*
X188377295Y-135665412D02*
X188758247Y-135751126D01*
X188758247Y-135751126D02*
X188948723Y-135836840D01*
X188948723Y-135836840D02*
X189139200Y-136008269D01*
X189139200Y-136008269D02*
X189234438Y-136265412D01*
X189234438Y-136265412D02*
X189234438Y-136693983D01*
X187234438Y-134122555D02*
X187234438Y-134465412D01*
X187234438Y-134465412D02*
X187329676Y-134636840D01*
X187329676Y-134636840D02*
X187424914Y-134722555D01*
X187424914Y-134722555D02*
X187710628Y-134893983D01*
X187710628Y-134893983D02*
X188091580Y-134979697D01*
X188091580Y-134979697D02*
X188853485Y-134979697D01*
X188853485Y-134979697D02*
X189043961Y-134893983D01*
X189043961Y-134893983D02*
X189139200Y-134808269D01*
X189139200Y-134808269D02*
X189234438Y-134636840D01*
X189234438Y-134636840D02*
X189234438Y-134293983D01*
X189234438Y-134293983D02*
X189139200Y-134122555D01*
X189139200Y-134122555D02*
X189043961Y-134036840D01*
X189043961Y-134036840D02*
X188853485Y-133951126D01*
X188853485Y-133951126D02*
X188377295Y-133951126D01*
X188377295Y-133951126D02*
X188186819Y-134036840D01*
X188186819Y-134036840D02*
X188091580Y-134122555D01*
X188091580Y-134122555D02*
X187996342Y-134293983D01*
X187996342Y-134293983D02*
X187996342Y-134636840D01*
X187996342Y-134636840D02*
X188091580Y-134808269D01*
X188091580Y-134808269D02*
X188186819Y-134893983D01*
X188186819Y-134893983D02*
X188377295Y-134979697D01*
X189234438Y-131808268D02*
X187234438Y-131808268D01*
X187234438Y-131808268D02*
X187234438Y-131379697D01*
X187234438Y-131379697D02*
X187329676Y-131122554D01*
X187329676Y-131122554D02*
X187520152Y-130951125D01*
X187520152Y-130951125D02*
X187710628Y-130865411D01*
X187710628Y-130865411D02*
X188091580Y-130779697D01*
X188091580Y-130779697D02*
X188377295Y-130779697D01*
X188377295Y-130779697D02*
X188758247Y-130865411D01*
X188758247Y-130865411D02*
X188948723Y-130951125D01*
X188948723Y-130951125D02*
X189139200Y-131122554D01*
X189139200Y-131122554D02*
X189234438Y-131379697D01*
X189234438Y-131379697D02*
X189234438Y-131808268D01*
X187234438Y-129151125D02*
X187234438Y-130008268D01*
X187234438Y-130008268D02*
X188186819Y-130093982D01*
X188186819Y-130093982D02*
X188091580Y-130008268D01*
X188091580Y-130008268D02*
X187996342Y-129836840D01*
X187996342Y-129836840D02*
X187996342Y-129408268D01*
X187996342Y-129408268D02*
X188091580Y-129236840D01*
X188091580Y-129236840D02*
X188186819Y-129151125D01*
X188186819Y-129151125D02*
X188377295Y-129065411D01*
X188377295Y-129065411D02*
X188853485Y-129065411D01*
X188853485Y-129065411D02*
X189043961Y-129151125D01*
X189043961Y-129151125D02*
X189139200Y-129236840D01*
X189139200Y-129236840D02*
X189234438Y-129408268D01*
X189234438Y-129408268D02*
X189234438Y-129836840D01*
X189234438Y-129836840D02*
X189139200Y-130008268D01*
X189139200Y-130008268D02*
X189043961Y-130093982D01*
X189234438Y-126922553D02*
X187234438Y-126922553D01*
X187234438Y-126922553D02*
X187234438Y-126493982D01*
X187234438Y-126493982D02*
X187329676Y-126236839D01*
X187329676Y-126236839D02*
X187520152Y-126065410D01*
X187520152Y-126065410D02*
X187710628Y-125979696D01*
X187710628Y-125979696D02*
X188091580Y-125893982D01*
X188091580Y-125893982D02*
X188377295Y-125893982D01*
X188377295Y-125893982D02*
X188758247Y-125979696D01*
X188758247Y-125979696D02*
X188948723Y-126065410D01*
X188948723Y-126065410D02*
X189139200Y-126236839D01*
X189139200Y-126236839D02*
X189234438Y-126493982D01*
X189234438Y-126493982D02*
X189234438Y-126922553D01*
X187234438Y-124779696D02*
X187234438Y-124608267D01*
X187234438Y-124608267D02*
X187329676Y-124436839D01*
X187329676Y-124436839D02*
X187424914Y-124351125D01*
X187424914Y-124351125D02*
X187615390Y-124265410D01*
X187615390Y-124265410D02*
X187996342Y-124179696D01*
X187996342Y-124179696D02*
X188472533Y-124179696D01*
X188472533Y-124179696D02*
X188853485Y-124265410D01*
X188853485Y-124265410D02*
X189043961Y-124351125D01*
X189043961Y-124351125D02*
X189139200Y-124436839D01*
X189139200Y-124436839D02*
X189234438Y-124608267D01*
X189234438Y-124608267D02*
X189234438Y-124779696D01*
X189234438Y-124779696D02*
X189139200Y-124951125D01*
X189139200Y-124951125D02*
X189043961Y-125036839D01*
X189043961Y-125036839D02*
X188853485Y-125122553D01*
X188853485Y-125122553D02*
X188472533Y-125208267D01*
X188472533Y-125208267D02*
X187996342Y-125208267D01*
X187996342Y-125208267D02*
X187615390Y-125122553D01*
X187615390Y-125122553D02*
X187424914Y-125036839D01*
X187424914Y-125036839D02*
X187329676Y-124951125D01*
X187329676Y-124951125D02*
X187234438Y-124779696D01*
X188663009Y-122122552D02*
X188663009Y-121265410D01*
X189234438Y-122293981D02*
X187234438Y-121693981D01*
X187234438Y-121693981D02*
X189234438Y-121093981D01*
X187234438Y-120151124D02*
X187234438Y-119979695D01*
X187234438Y-119979695D02*
X187329676Y-119808267D01*
X187329676Y-119808267D02*
X187424914Y-119722553D01*
X187424914Y-119722553D02*
X187615390Y-119636838D01*
X187615390Y-119636838D02*
X187996342Y-119551124D01*
X187996342Y-119551124D02*
X188472533Y-119551124D01*
X188472533Y-119551124D02*
X188853485Y-119636838D01*
X188853485Y-119636838D02*
X189043961Y-119722553D01*
X189043961Y-119722553D02*
X189139200Y-119808267D01*
X189139200Y-119808267D02*
X189234438Y-119979695D01*
X189234438Y-119979695D02*
X189234438Y-120151124D01*
X189234438Y-120151124D02*
X189139200Y-120322553D01*
X189139200Y-120322553D02*
X189043961Y-120408267D01*
X189043961Y-120408267D02*
X188853485Y-120493981D01*
X188853485Y-120493981D02*
X188472533Y-120579695D01*
X188472533Y-120579695D02*
X187996342Y-120579695D01*
X187996342Y-120579695D02*
X187615390Y-120493981D01*
X187615390Y-120493981D02*
X187424914Y-120408267D01*
X187424914Y-120408267D02*
X187329676Y-120322553D01*
X187329676Y-120322553D02*
X187234438Y-120151124D01*
X189234438Y-116379695D02*
X188282057Y-116979695D01*
X189234438Y-117408266D02*
X187234438Y-117408266D01*
X187234438Y-117408266D02*
X187234438Y-116722552D01*
X187234438Y-116722552D02*
X187329676Y-116551123D01*
X187329676Y-116551123D02*
X187424914Y-116465409D01*
X187424914Y-116465409D02*
X187615390Y-116379695D01*
X187615390Y-116379695D02*
X187901104Y-116379695D01*
X187901104Y-116379695D02*
X188091580Y-116465409D01*
X188091580Y-116465409D02*
X188186819Y-116551123D01*
X188186819Y-116551123D02*
X188282057Y-116722552D01*
X188282057Y-116722552D02*
X188282057Y-117408266D01*
X189139200Y-115693980D02*
X189234438Y-115436838D01*
X189234438Y-115436838D02*
X189234438Y-115008266D01*
X189234438Y-115008266D02*
X189139200Y-114836838D01*
X189139200Y-114836838D02*
X189043961Y-114751123D01*
X189043961Y-114751123D02*
X188853485Y-114665409D01*
X188853485Y-114665409D02*
X188663009Y-114665409D01*
X188663009Y-114665409D02*
X188472533Y-114751123D01*
X188472533Y-114751123D02*
X188377295Y-114836838D01*
X188377295Y-114836838D02*
X188282057Y-115008266D01*
X188282057Y-115008266D02*
X188186819Y-115351123D01*
X188186819Y-115351123D02*
X188091580Y-115522552D01*
X188091580Y-115522552D02*
X187996342Y-115608266D01*
X187996342Y-115608266D02*
X187805866Y-115693980D01*
X187805866Y-115693980D02*
X187615390Y-115693980D01*
X187615390Y-115693980D02*
X187424914Y-115608266D01*
X187424914Y-115608266D02*
X187329676Y-115522552D01*
X187329676Y-115522552D02*
X187234438Y-115351123D01*
X187234438Y-115351123D02*
X187234438Y-114922552D01*
X187234438Y-114922552D02*
X187329676Y-114665409D01*
X187234438Y-114151123D02*
X187234438Y-113122552D01*
X189234438Y-113636837D02*
X187234438Y-113636837D01*
D12*
X107343984Y-68320571D02*
X108772556Y-77320571D01*
X108772556Y-77320571D02*
X109915413Y-70892000D01*
X109915413Y-70892000D02*
X111058270Y-77320571D01*
X111058270Y-77320571D02*
X112486842Y-68320571D01*
X117058270Y-76892000D02*
X116486842Y-77320571D01*
X116486842Y-77320571D02*
X115343985Y-77320571D01*
X115343985Y-77320571D02*
X114772556Y-76892000D01*
X114772556Y-76892000D02*
X114486842Y-76034857D01*
X114486842Y-76034857D02*
X114486842Y-72606285D01*
X114486842Y-72606285D02*
X114772556Y-71749142D01*
X114772556Y-71749142D02*
X115343985Y-71320571D01*
X115343985Y-71320571D02*
X116486842Y-71320571D01*
X116486842Y-71320571D02*
X117058270Y-71749142D01*
X117058270Y-71749142D02*
X117343985Y-72606285D01*
X117343985Y-72606285D02*
X117343985Y-73463428D01*
X117343985Y-73463428D02*
X114486842Y-74320571D01*
X119915413Y-77320571D02*
X119915413Y-68320571D01*
X119915413Y-68320571D02*
X121915413Y-74749142D01*
X121915413Y-74749142D02*
X123915413Y-68320571D01*
X123915413Y-68320571D02*
X123915413Y-77320571D01*
X127629699Y-77320571D02*
X127058270Y-76892000D01*
X127058270Y-76892000D02*
X126772556Y-76463428D01*
X126772556Y-76463428D02*
X126486842Y-75606285D01*
X126486842Y-75606285D02*
X126486842Y-73034857D01*
X126486842Y-73034857D02*
X126772556Y-72177714D01*
X126772556Y-72177714D02*
X127058270Y-71749142D01*
X127058270Y-71749142D02*
X127629699Y-71320571D01*
X127629699Y-71320571D02*
X128486842Y-71320571D01*
X128486842Y-71320571D02*
X129058270Y-71749142D01*
X129058270Y-71749142D02*
X129343985Y-72177714D01*
X129343985Y-72177714D02*
X129629699Y-73034857D01*
X129629699Y-73034857D02*
X129629699Y-75606285D01*
X129629699Y-75606285D02*
X129343985Y-76463428D01*
X129343985Y-76463428D02*
X129058270Y-76892000D01*
X129058270Y-76892000D02*
X128486842Y-77320571D01*
X128486842Y-77320571D02*
X127629699Y-77320571D01*
X131915413Y-76892000D02*
X132486841Y-77320571D01*
X132486841Y-77320571D02*
X133629698Y-77320571D01*
X133629698Y-77320571D02*
X134201127Y-76892000D01*
X134201127Y-76892000D02*
X134486841Y-76034857D01*
X134486841Y-76034857D02*
X134486841Y-75606285D01*
X134486841Y-75606285D02*
X134201127Y-74749142D01*
X134201127Y-74749142D02*
X133629698Y-74320571D01*
X133629698Y-74320571D02*
X132772556Y-74320571D01*
X132772556Y-74320571D02*
X132201127Y-73892000D01*
X132201127Y-73892000D02*
X131915413Y-73034857D01*
X131915413Y-73034857D02*
X131915413Y-72606285D01*
X131915413Y-72606285D02*
X132201127Y-71749142D01*
X132201127Y-71749142D02*
X132772556Y-71320571D01*
X132772556Y-71320571D02*
X133629698Y-71320571D01*
X133629698Y-71320571D02*
X134201127Y-71749142D01*
X141629699Y-77320571D02*
X141629699Y-68320571D01*
X141629699Y-68320571D02*
X143058270Y-68320571D01*
X143058270Y-68320571D02*
X143915413Y-68749142D01*
X143915413Y-68749142D02*
X144486842Y-69606285D01*
X144486842Y-69606285D02*
X144772556Y-70463428D01*
X144772556Y-70463428D02*
X145058270Y-72177714D01*
X145058270Y-72177714D02*
X145058270Y-73463428D01*
X145058270Y-73463428D02*
X144772556Y-75177714D01*
X144772556Y-75177714D02*
X144486842Y-76034857D01*
X144486842Y-76034857D02*
X143915413Y-76892000D01*
X143915413Y-76892000D02*
X143058270Y-77320571D01*
X143058270Y-77320571D02*
X141629699Y-77320571D01*
X150772556Y-77320571D02*
X147343985Y-77320571D01*
X149058270Y-77320571D02*
X149058270Y-68320571D01*
X149058270Y-68320571D02*
X148486842Y-69606285D01*
X148486842Y-69606285D02*
X147915413Y-70463428D01*
X147915413Y-70463428D02*
X147343985Y-70892000D01*
X157915414Y-77320571D02*
X157915414Y-68320571D01*
X157915414Y-68320571D02*
X159915414Y-74749142D01*
X159915414Y-74749142D02*
X161915414Y-68320571D01*
X161915414Y-68320571D02*
X161915414Y-77320571D01*
X167343986Y-77320571D02*
X167343986Y-72606285D01*
X167343986Y-72606285D02*
X167058271Y-71749142D01*
X167058271Y-71749142D02*
X166486843Y-71320571D01*
X166486843Y-71320571D02*
X165343986Y-71320571D01*
X165343986Y-71320571D02*
X164772557Y-71749142D01*
X167343986Y-76892000D02*
X166772557Y-77320571D01*
X166772557Y-77320571D02*
X165343986Y-77320571D01*
X165343986Y-77320571D02*
X164772557Y-76892000D01*
X164772557Y-76892000D02*
X164486843Y-76034857D01*
X164486843Y-76034857D02*
X164486843Y-75177714D01*
X164486843Y-75177714D02*
X164772557Y-74320571D01*
X164772557Y-74320571D02*
X165343986Y-73892000D01*
X165343986Y-73892000D02*
X166772557Y-73892000D01*
X166772557Y-73892000D02*
X167343986Y-73463428D01*
X169629699Y-77320571D02*
X172772557Y-71320571D01*
X169629699Y-71320571D02*
X172772557Y-77320571D01*
D13*
X155708646Y-119622419D02*
X155946741Y-120622419D01*
X155946741Y-120622419D02*
X156137217Y-119908133D01*
X156137217Y-119908133D02*
X156327693Y-120622419D01*
X156327693Y-120622419D02*
X156565789Y-119622419D01*
X157327693Y-120574800D02*
X157232455Y-120622419D01*
X157232455Y-120622419D02*
X157041979Y-120622419D01*
X157041979Y-120622419D02*
X156946741Y-120574800D01*
X156946741Y-120574800D02*
X156899122Y-120479561D01*
X156899122Y-120479561D02*
X156899122Y-120098609D01*
X156899122Y-120098609D02*
X156946741Y-120003371D01*
X156946741Y-120003371D02*
X157041979Y-119955752D01*
X157041979Y-119955752D02*
X157232455Y-119955752D01*
X157232455Y-119955752D02*
X157327693Y-120003371D01*
X157327693Y-120003371D02*
X157375312Y-120098609D01*
X157375312Y-120098609D02*
X157375312Y-120193847D01*
X157375312Y-120193847D02*
X156899122Y-120289085D01*
X157803884Y-120622419D02*
X157803884Y-119622419D01*
X157803884Y-119622419D02*
X158137217Y-120336704D01*
X158137217Y-120336704D02*
X158470550Y-119622419D01*
X158470550Y-119622419D02*
X158470550Y-120622419D01*
X159089598Y-120622419D02*
X158994360Y-120574800D01*
X158994360Y-120574800D02*
X158946741Y-120527180D01*
X158946741Y-120527180D02*
X158899122Y-120431942D01*
X158899122Y-120431942D02*
X158899122Y-120146228D01*
X158899122Y-120146228D02*
X158946741Y-120050990D01*
X158946741Y-120050990D02*
X158994360Y-120003371D01*
X158994360Y-120003371D02*
X159089598Y-119955752D01*
X159089598Y-119955752D02*
X159232455Y-119955752D01*
X159232455Y-119955752D02*
X159327693Y-120003371D01*
X159327693Y-120003371D02*
X159375312Y-120050990D01*
X159375312Y-120050990D02*
X159422931Y-120146228D01*
X159422931Y-120146228D02*
X159422931Y-120431942D01*
X159422931Y-120431942D02*
X159375312Y-120527180D01*
X159375312Y-120527180D02*
X159327693Y-120574800D01*
X159327693Y-120574800D02*
X159232455Y-120622419D01*
X159232455Y-120622419D02*
X159089598Y-120622419D01*
X159803884Y-120574800D02*
X159899122Y-120622419D01*
X159899122Y-120622419D02*
X160089598Y-120622419D01*
X160089598Y-120622419D02*
X160184836Y-120574800D01*
X160184836Y-120574800D02*
X160232455Y-120479561D01*
X160232455Y-120479561D02*
X160232455Y-120431942D01*
X160232455Y-120431942D02*
X160184836Y-120336704D01*
X160184836Y-120336704D02*
X160089598Y-120289085D01*
X160089598Y-120289085D02*
X159946741Y-120289085D01*
X159946741Y-120289085D02*
X159851503Y-120241466D01*
X159851503Y-120241466D02*
X159803884Y-120146228D01*
X159803884Y-120146228D02*
X159803884Y-120098609D01*
X159803884Y-120098609D02*
X159851503Y-120003371D01*
X159851503Y-120003371D02*
X159946741Y-119955752D01*
X159946741Y-119955752D02*
X160089598Y-119955752D01*
X160089598Y-119955752D02*
X160184836Y-120003371D01*
X161375313Y-120574800D02*
X161518170Y-120622419D01*
X161518170Y-120622419D02*
X161756265Y-120622419D01*
X161756265Y-120622419D02*
X161851503Y-120574800D01*
X161851503Y-120574800D02*
X161899122Y-120527180D01*
X161899122Y-120527180D02*
X161946741Y-120431942D01*
X161946741Y-120431942D02*
X161946741Y-120336704D01*
X161946741Y-120336704D02*
X161899122Y-120241466D01*
X161899122Y-120241466D02*
X161851503Y-120193847D01*
X161851503Y-120193847D02*
X161756265Y-120146228D01*
X161756265Y-120146228D02*
X161565789Y-120098609D01*
X161565789Y-120098609D02*
X161470551Y-120050990D01*
X161470551Y-120050990D02*
X161422932Y-120003371D01*
X161422932Y-120003371D02*
X161375313Y-119908133D01*
X161375313Y-119908133D02*
X161375313Y-119812895D01*
X161375313Y-119812895D02*
X161422932Y-119717657D01*
X161422932Y-119717657D02*
X161470551Y-119670038D01*
X161470551Y-119670038D02*
X161565789Y-119622419D01*
X161565789Y-119622419D02*
X161803884Y-119622419D01*
X161803884Y-119622419D02*
X161946741Y-119670038D01*
X162375313Y-120622419D02*
X162375313Y-119622419D01*
X162803884Y-120622419D02*
X162803884Y-120098609D01*
X162803884Y-120098609D02*
X162756265Y-120003371D01*
X162756265Y-120003371D02*
X162661027Y-119955752D01*
X162661027Y-119955752D02*
X162518170Y-119955752D01*
X162518170Y-119955752D02*
X162422932Y-120003371D01*
X162422932Y-120003371D02*
X162375313Y-120050990D01*
X163280075Y-120622419D02*
X163280075Y-119955752D01*
X163280075Y-119622419D02*
X163232456Y-119670038D01*
X163232456Y-119670038D02*
X163280075Y-119717657D01*
X163280075Y-119717657D02*
X163327694Y-119670038D01*
X163327694Y-119670038D02*
X163280075Y-119622419D01*
X163280075Y-119622419D02*
X163280075Y-119717657D01*
X164137217Y-120574800D02*
X164041979Y-120622419D01*
X164041979Y-120622419D02*
X163851503Y-120622419D01*
X163851503Y-120622419D02*
X163756265Y-120574800D01*
X163756265Y-120574800D02*
X163708646Y-120479561D01*
X163708646Y-120479561D02*
X163708646Y-120098609D01*
X163708646Y-120098609D02*
X163756265Y-120003371D01*
X163756265Y-120003371D02*
X163851503Y-119955752D01*
X163851503Y-119955752D02*
X164041979Y-119955752D01*
X164041979Y-119955752D02*
X164137217Y-120003371D01*
X164137217Y-120003371D02*
X164184836Y-120098609D01*
X164184836Y-120098609D02*
X164184836Y-120193847D01*
X164184836Y-120193847D02*
X163708646Y-120289085D01*
X164756265Y-120622419D02*
X164661027Y-120574800D01*
X164661027Y-120574800D02*
X164613408Y-120479561D01*
X164613408Y-120479561D02*
X164613408Y-119622419D01*
X165565789Y-120622419D02*
X165565789Y-119622419D01*
X165565789Y-120574800D02*
X165470551Y-120622419D01*
X165470551Y-120622419D02*
X165280075Y-120622419D01*
X165280075Y-120622419D02*
X165184837Y-120574800D01*
X165184837Y-120574800D02*
X165137218Y-120527180D01*
X165137218Y-120527180D02*
X165089599Y-120431942D01*
X165089599Y-120431942D02*
X165089599Y-120146228D01*
X165089599Y-120146228D02*
X165137218Y-120050990D01*
X165137218Y-120050990D02*
X165184837Y-120003371D01*
X165184837Y-120003371D02*
X165280075Y-119955752D01*
X165280075Y-119955752D02*
X165470551Y-119955752D01*
X165470551Y-119955752D02*
X165565789Y-120003371D01*
X166708647Y-119622419D02*
X167327694Y-119622419D01*
X167327694Y-119622419D02*
X166994361Y-120003371D01*
X166994361Y-120003371D02*
X167137218Y-120003371D01*
X167137218Y-120003371D02*
X167232456Y-120050990D01*
X167232456Y-120050990D02*
X167280075Y-120098609D01*
X167280075Y-120098609D02*
X167327694Y-120193847D01*
X167327694Y-120193847D02*
X167327694Y-120431942D01*
X167327694Y-120431942D02*
X167280075Y-120527180D01*
X167280075Y-120527180D02*
X167232456Y-120574800D01*
X167232456Y-120574800D02*
X167137218Y-120622419D01*
X167137218Y-120622419D02*
X166851504Y-120622419D01*
X166851504Y-120622419D02*
X166756266Y-120574800D01*
X166756266Y-120574800D02*
X166708647Y-120527180D01*
X122708646Y-119622419D02*
X122946741Y-120622419D01*
X122946741Y-120622419D02*
X123137217Y-119908133D01*
X123137217Y-119908133D02*
X123327693Y-120622419D01*
X123327693Y-120622419D02*
X123565789Y-119622419D01*
X124327693Y-120574800D02*
X124232455Y-120622419D01*
X124232455Y-120622419D02*
X124041979Y-120622419D01*
X124041979Y-120622419D02*
X123946741Y-120574800D01*
X123946741Y-120574800D02*
X123899122Y-120479561D01*
X123899122Y-120479561D02*
X123899122Y-120098609D01*
X123899122Y-120098609D02*
X123946741Y-120003371D01*
X123946741Y-120003371D02*
X124041979Y-119955752D01*
X124041979Y-119955752D02*
X124232455Y-119955752D01*
X124232455Y-119955752D02*
X124327693Y-120003371D01*
X124327693Y-120003371D02*
X124375312Y-120098609D01*
X124375312Y-120098609D02*
X124375312Y-120193847D01*
X124375312Y-120193847D02*
X123899122Y-120289085D01*
X124803884Y-120622419D02*
X124803884Y-119622419D01*
X124803884Y-119622419D02*
X125137217Y-120336704D01*
X125137217Y-120336704D02*
X125470550Y-119622419D01*
X125470550Y-119622419D02*
X125470550Y-120622419D01*
X126089598Y-120622419D02*
X125994360Y-120574800D01*
X125994360Y-120574800D02*
X125946741Y-120527180D01*
X125946741Y-120527180D02*
X125899122Y-120431942D01*
X125899122Y-120431942D02*
X125899122Y-120146228D01*
X125899122Y-120146228D02*
X125946741Y-120050990D01*
X125946741Y-120050990D02*
X125994360Y-120003371D01*
X125994360Y-120003371D02*
X126089598Y-119955752D01*
X126089598Y-119955752D02*
X126232455Y-119955752D01*
X126232455Y-119955752D02*
X126327693Y-120003371D01*
X126327693Y-120003371D02*
X126375312Y-120050990D01*
X126375312Y-120050990D02*
X126422931Y-120146228D01*
X126422931Y-120146228D02*
X126422931Y-120431942D01*
X126422931Y-120431942D02*
X126375312Y-120527180D01*
X126375312Y-120527180D02*
X126327693Y-120574800D01*
X126327693Y-120574800D02*
X126232455Y-120622419D01*
X126232455Y-120622419D02*
X126089598Y-120622419D01*
X126803884Y-120574800D02*
X126899122Y-120622419D01*
X126899122Y-120622419D02*
X127089598Y-120622419D01*
X127089598Y-120622419D02*
X127184836Y-120574800D01*
X127184836Y-120574800D02*
X127232455Y-120479561D01*
X127232455Y-120479561D02*
X127232455Y-120431942D01*
X127232455Y-120431942D02*
X127184836Y-120336704D01*
X127184836Y-120336704D02*
X127089598Y-120289085D01*
X127089598Y-120289085D02*
X126946741Y-120289085D01*
X126946741Y-120289085D02*
X126851503Y-120241466D01*
X126851503Y-120241466D02*
X126803884Y-120146228D01*
X126803884Y-120146228D02*
X126803884Y-120098609D01*
X126803884Y-120098609D02*
X126851503Y-120003371D01*
X126851503Y-120003371D02*
X126946741Y-119955752D01*
X126946741Y-119955752D02*
X127089598Y-119955752D01*
X127089598Y-119955752D02*
X127184836Y-120003371D01*
X128375313Y-120574800D02*
X128518170Y-120622419D01*
X128518170Y-120622419D02*
X128756265Y-120622419D01*
X128756265Y-120622419D02*
X128851503Y-120574800D01*
X128851503Y-120574800D02*
X128899122Y-120527180D01*
X128899122Y-120527180D02*
X128946741Y-120431942D01*
X128946741Y-120431942D02*
X128946741Y-120336704D01*
X128946741Y-120336704D02*
X128899122Y-120241466D01*
X128899122Y-120241466D02*
X128851503Y-120193847D01*
X128851503Y-120193847D02*
X128756265Y-120146228D01*
X128756265Y-120146228D02*
X128565789Y-120098609D01*
X128565789Y-120098609D02*
X128470551Y-120050990D01*
X128470551Y-120050990D02*
X128422932Y-120003371D01*
X128422932Y-120003371D02*
X128375313Y-119908133D01*
X128375313Y-119908133D02*
X128375313Y-119812895D01*
X128375313Y-119812895D02*
X128422932Y-119717657D01*
X128422932Y-119717657D02*
X128470551Y-119670038D01*
X128470551Y-119670038D02*
X128565789Y-119622419D01*
X128565789Y-119622419D02*
X128803884Y-119622419D01*
X128803884Y-119622419D02*
X128946741Y-119670038D01*
X129375313Y-120622419D02*
X129375313Y-119622419D01*
X129803884Y-120622419D02*
X129803884Y-120098609D01*
X129803884Y-120098609D02*
X129756265Y-120003371D01*
X129756265Y-120003371D02*
X129661027Y-119955752D01*
X129661027Y-119955752D02*
X129518170Y-119955752D01*
X129518170Y-119955752D02*
X129422932Y-120003371D01*
X129422932Y-120003371D02*
X129375313Y-120050990D01*
X130280075Y-120622419D02*
X130280075Y-119955752D01*
X130280075Y-119622419D02*
X130232456Y-119670038D01*
X130232456Y-119670038D02*
X130280075Y-119717657D01*
X130280075Y-119717657D02*
X130327694Y-119670038D01*
X130327694Y-119670038D02*
X130280075Y-119622419D01*
X130280075Y-119622419D02*
X130280075Y-119717657D01*
X131137217Y-120574800D02*
X131041979Y-120622419D01*
X131041979Y-120622419D02*
X130851503Y-120622419D01*
X130851503Y-120622419D02*
X130756265Y-120574800D01*
X130756265Y-120574800D02*
X130708646Y-120479561D01*
X130708646Y-120479561D02*
X130708646Y-120098609D01*
X130708646Y-120098609D02*
X130756265Y-120003371D01*
X130756265Y-120003371D02*
X130851503Y-119955752D01*
X130851503Y-119955752D02*
X131041979Y-119955752D01*
X131041979Y-119955752D02*
X131137217Y-120003371D01*
X131137217Y-120003371D02*
X131184836Y-120098609D01*
X131184836Y-120098609D02*
X131184836Y-120193847D01*
X131184836Y-120193847D02*
X130708646Y-120289085D01*
X131756265Y-120622419D02*
X131661027Y-120574800D01*
X131661027Y-120574800D02*
X131613408Y-120479561D01*
X131613408Y-120479561D02*
X131613408Y-119622419D01*
X132565789Y-120622419D02*
X132565789Y-119622419D01*
X132565789Y-120574800D02*
X132470551Y-120622419D01*
X132470551Y-120622419D02*
X132280075Y-120622419D01*
X132280075Y-120622419D02*
X132184837Y-120574800D01*
X132184837Y-120574800D02*
X132137218Y-120527180D01*
X132137218Y-120527180D02*
X132089599Y-120431942D01*
X132089599Y-120431942D02*
X132089599Y-120146228D01*
X132089599Y-120146228D02*
X132137218Y-120050990D01*
X132137218Y-120050990D02*
X132184837Y-120003371D01*
X132184837Y-120003371D02*
X132280075Y-119955752D01*
X132280075Y-119955752D02*
X132470551Y-119955752D01*
X132470551Y-119955752D02*
X132565789Y-120003371D01*
X133756266Y-119717657D02*
X133803885Y-119670038D01*
X133803885Y-119670038D02*
X133899123Y-119622419D01*
X133899123Y-119622419D02*
X134137218Y-119622419D01*
X134137218Y-119622419D02*
X134232456Y-119670038D01*
X134232456Y-119670038D02*
X134280075Y-119717657D01*
X134280075Y-119717657D02*
X134327694Y-119812895D01*
X134327694Y-119812895D02*
X134327694Y-119908133D01*
X134327694Y-119908133D02*
X134280075Y-120050990D01*
X134280075Y-120050990D02*
X133708647Y-120622419D01*
X133708647Y-120622419D02*
X134327694Y-120622419D01*
X155208646Y-159872419D02*
X155446741Y-160872419D01*
X155446741Y-160872419D02*
X155637217Y-160158133D01*
X155637217Y-160158133D02*
X155827693Y-160872419D01*
X155827693Y-160872419D02*
X156065789Y-159872419D01*
X156827693Y-160824800D02*
X156732455Y-160872419D01*
X156732455Y-160872419D02*
X156541979Y-160872419D01*
X156541979Y-160872419D02*
X156446741Y-160824800D01*
X156446741Y-160824800D02*
X156399122Y-160729561D01*
X156399122Y-160729561D02*
X156399122Y-160348609D01*
X156399122Y-160348609D02*
X156446741Y-160253371D01*
X156446741Y-160253371D02*
X156541979Y-160205752D01*
X156541979Y-160205752D02*
X156732455Y-160205752D01*
X156732455Y-160205752D02*
X156827693Y-160253371D01*
X156827693Y-160253371D02*
X156875312Y-160348609D01*
X156875312Y-160348609D02*
X156875312Y-160443847D01*
X156875312Y-160443847D02*
X156399122Y-160539085D01*
X157303884Y-160872419D02*
X157303884Y-159872419D01*
X157303884Y-159872419D02*
X157637217Y-160586704D01*
X157637217Y-160586704D02*
X157970550Y-159872419D01*
X157970550Y-159872419D02*
X157970550Y-160872419D01*
X158589598Y-160872419D02*
X158494360Y-160824800D01*
X158494360Y-160824800D02*
X158446741Y-160777180D01*
X158446741Y-160777180D02*
X158399122Y-160681942D01*
X158399122Y-160681942D02*
X158399122Y-160396228D01*
X158399122Y-160396228D02*
X158446741Y-160300990D01*
X158446741Y-160300990D02*
X158494360Y-160253371D01*
X158494360Y-160253371D02*
X158589598Y-160205752D01*
X158589598Y-160205752D02*
X158732455Y-160205752D01*
X158732455Y-160205752D02*
X158827693Y-160253371D01*
X158827693Y-160253371D02*
X158875312Y-160300990D01*
X158875312Y-160300990D02*
X158922931Y-160396228D01*
X158922931Y-160396228D02*
X158922931Y-160681942D01*
X158922931Y-160681942D02*
X158875312Y-160777180D01*
X158875312Y-160777180D02*
X158827693Y-160824800D01*
X158827693Y-160824800D02*
X158732455Y-160872419D01*
X158732455Y-160872419D02*
X158589598Y-160872419D01*
X159303884Y-160824800D02*
X159399122Y-160872419D01*
X159399122Y-160872419D02*
X159589598Y-160872419D01*
X159589598Y-160872419D02*
X159684836Y-160824800D01*
X159684836Y-160824800D02*
X159732455Y-160729561D01*
X159732455Y-160729561D02*
X159732455Y-160681942D01*
X159732455Y-160681942D02*
X159684836Y-160586704D01*
X159684836Y-160586704D02*
X159589598Y-160539085D01*
X159589598Y-160539085D02*
X159446741Y-160539085D01*
X159446741Y-160539085D02*
X159351503Y-160491466D01*
X159351503Y-160491466D02*
X159303884Y-160396228D01*
X159303884Y-160396228D02*
X159303884Y-160348609D01*
X159303884Y-160348609D02*
X159351503Y-160253371D01*
X159351503Y-160253371D02*
X159446741Y-160205752D01*
X159446741Y-160205752D02*
X159589598Y-160205752D01*
X159589598Y-160205752D02*
X159684836Y-160253371D01*
X160875313Y-160824800D02*
X161018170Y-160872419D01*
X161018170Y-160872419D02*
X161256265Y-160872419D01*
X161256265Y-160872419D02*
X161351503Y-160824800D01*
X161351503Y-160824800D02*
X161399122Y-160777180D01*
X161399122Y-160777180D02*
X161446741Y-160681942D01*
X161446741Y-160681942D02*
X161446741Y-160586704D01*
X161446741Y-160586704D02*
X161399122Y-160491466D01*
X161399122Y-160491466D02*
X161351503Y-160443847D01*
X161351503Y-160443847D02*
X161256265Y-160396228D01*
X161256265Y-160396228D02*
X161065789Y-160348609D01*
X161065789Y-160348609D02*
X160970551Y-160300990D01*
X160970551Y-160300990D02*
X160922932Y-160253371D01*
X160922932Y-160253371D02*
X160875313Y-160158133D01*
X160875313Y-160158133D02*
X160875313Y-160062895D01*
X160875313Y-160062895D02*
X160922932Y-159967657D01*
X160922932Y-159967657D02*
X160970551Y-159920038D01*
X160970551Y-159920038D02*
X161065789Y-159872419D01*
X161065789Y-159872419D02*
X161303884Y-159872419D01*
X161303884Y-159872419D02*
X161446741Y-159920038D01*
X161875313Y-160872419D02*
X161875313Y-159872419D01*
X162303884Y-160872419D02*
X162303884Y-160348609D01*
X162303884Y-160348609D02*
X162256265Y-160253371D01*
X162256265Y-160253371D02*
X162161027Y-160205752D01*
X162161027Y-160205752D02*
X162018170Y-160205752D01*
X162018170Y-160205752D02*
X161922932Y-160253371D01*
X161922932Y-160253371D02*
X161875313Y-160300990D01*
X162780075Y-160872419D02*
X162780075Y-160205752D01*
X162780075Y-159872419D02*
X162732456Y-159920038D01*
X162732456Y-159920038D02*
X162780075Y-159967657D01*
X162780075Y-159967657D02*
X162827694Y-159920038D01*
X162827694Y-159920038D02*
X162780075Y-159872419D01*
X162780075Y-159872419D02*
X162780075Y-159967657D01*
X163637217Y-160824800D02*
X163541979Y-160872419D01*
X163541979Y-160872419D02*
X163351503Y-160872419D01*
X163351503Y-160872419D02*
X163256265Y-160824800D01*
X163256265Y-160824800D02*
X163208646Y-160729561D01*
X163208646Y-160729561D02*
X163208646Y-160348609D01*
X163208646Y-160348609D02*
X163256265Y-160253371D01*
X163256265Y-160253371D02*
X163351503Y-160205752D01*
X163351503Y-160205752D02*
X163541979Y-160205752D01*
X163541979Y-160205752D02*
X163637217Y-160253371D01*
X163637217Y-160253371D02*
X163684836Y-160348609D01*
X163684836Y-160348609D02*
X163684836Y-160443847D01*
X163684836Y-160443847D02*
X163208646Y-160539085D01*
X164256265Y-160872419D02*
X164161027Y-160824800D01*
X164161027Y-160824800D02*
X164113408Y-160729561D01*
X164113408Y-160729561D02*
X164113408Y-159872419D01*
X165065789Y-160872419D02*
X165065789Y-159872419D01*
X165065789Y-160824800D02*
X164970551Y-160872419D01*
X164970551Y-160872419D02*
X164780075Y-160872419D01*
X164780075Y-160872419D02*
X164684837Y-160824800D01*
X164684837Y-160824800D02*
X164637218Y-160777180D01*
X164637218Y-160777180D02*
X164589599Y-160681942D01*
X164589599Y-160681942D02*
X164589599Y-160396228D01*
X164589599Y-160396228D02*
X164637218Y-160300990D01*
X164637218Y-160300990D02*
X164684837Y-160253371D01*
X164684837Y-160253371D02*
X164780075Y-160205752D01*
X164780075Y-160205752D02*
X164970551Y-160205752D01*
X164970551Y-160205752D02*
X165065789Y-160253371D01*
X166827694Y-160872419D02*
X166256266Y-160872419D01*
X166541980Y-160872419D02*
X166541980Y-159872419D01*
X166541980Y-159872419D02*
X166446742Y-160015276D01*
X166446742Y-160015276D02*
X166351504Y-160110514D01*
X166351504Y-160110514D02*
X166256266Y-160158133D01*
X123208646Y-159872419D02*
X123446741Y-160872419D01*
X123446741Y-160872419D02*
X123637217Y-160158133D01*
X123637217Y-160158133D02*
X123827693Y-160872419D01*
X123827693Y-160872419D02*
X124065789Y-159872419D01*
X124827693Y-160824800D02*
X124732455Y-160872419D01*
X124732455Y-160872419D02*
X124541979Y-160872419D01*
X124541979Y-160872419D02*
X124446741Y-160824800D01*
X124446741Y-160824800D02*
X124399122Y-160729561D01*
X124399122Y-160729561D02*
X124399122Y-160348609D01*
X124399122Y-160348609D02*
X124446741Y-160253371D01*
X124446741Y-160253371D02*
X124541979Y-160205752D01*
X124541979Y-160205752D02*
X124732455Y-160205752D01*
X124732455Y-160205752D02*
X124827693Y-160253371D01*
X124827693Y-160253371D02*
X124875312Y-160348609D01*
X124875312Y-160348609D02*
X124875312Y-160443847D01*
X124875312Y-160443847D02*
X124399122Y-160539085D01*
X125303884Y-160872419D02*
X125303884Y-159872419D01*
X125303884Y-159872419D02*
X125637217Y-160586704D01*
X125637217Y-160586704D02*
X125970550Y-159872419D01*
X125970550Y-159872419D02*
X125970550Y-160872419D01*
X126589598Y-160872419D02*
X126494360Y-160824800D01*
X126494360Y-160824800D02*
X126446741Y-160777180D01*
X126446741Y-160777180D02*
X126399122Y-160681942D01*
X126399122Y-160681942D02*
X126399122Y-160396228D01*
X126399122Y-160396228D02*
X126446741Y-160300990D01*
X126446741Y-160300990D02*
X126494360Y-160253371D01*
X126494360Y-160253371D02*
X126589598Y-160205752D01*
X126589598Y-160205752D02*
X126732455Y-160205752D01*
X126732455Y-160205752D02*
X126827693Y-160253371D01*
X126827693Y-160253371D02*
X126875312Y-160300990D01*
X126875312Y-160300990D02*
X126922931Y-160396228D01*
X126922931Y-160396228D02*
X126922931Y-160681942D01*
X126922931Y-160681942D02*
X126875312Y-160777180D01*
X126875312Y-160777180D02*
X126827693Y-160824800D01*
X126827693Y-160824800D02*
X126732455Y-160872419D01*
X126732455Y-160872419D02*
X126589598Y-160872419D01*
X127303884Y-160824800D02*
X127399122Y-160872419D01*
X127399122Y-160872419D02*
X127589598Y-160872419D01*
X127589598Y-160872419D02*
X127684836Y-160824800D01*
X127684836Y-160824800D02*
X127732455Y-160729561D01*
X127732455Y-160729561D02*
X127732455Y-160681942D01*
X127732455Y-160681942D02*
X127684836Y-160586704D01*
X127684836Y-160586704D02*
X127589598Y-160539085D01*
X127589598Y-160539085D02*
X127446741Y-160539085D01*
X127446741Y-160539085D02*
X127351503Y-160491466D01*
X127351503Y-160491466D02*
X127303884Y-160396228D01*
X127303884Y-160396228D02*
X127303884Y-160348609D01*
X127303884Y-160348609D02*
X127351503Y-160253371D01*
X127351503Y-160253371D02*
X127446741Y-160205752D01*
X127446741Y-160205752D02*
X127589598Y-160205752D01*
X127589598Y-160205752D02*
X127684836Y-160253371D01*
X128922932Y-160872419D02*
X128922932Y-159872419D01*
X128922932Y-159872419D02*
X129161027Y-159872419D01*
X129161027Y-159872419D02*
X129303884Y-159920038D01*
X129303884Y-159920038D02*
X129399122Y-160015276D01*
X129399122Y-160015276D02*
X129446741Y-160110514D01*
X129446741Y-160110514D02*
X129494360Y-160300990D01*
X129494360Y-160300990D02*
X129494360Y-160443847D01*
X129494360Y-160443847D02*
X129446741Y-160634323D01*
X129446741Y-160634323D02*
X129399122Y-160729561D01*
X129399122Y-160729561D02*
X129303884Y-160824800D01*
X129303884Y-160824800D02*
X129161027Y-160872419D01*
X129161027Y-160872419D02*
X128922932Y-160872419D01*
X130446741Y-160872419D02*
X129875313Y-160872419D01*
X130161027Y-160872419D02*
X130161027Y-159872419D01*
X130161027Y-159872419D02*
X130065789Y-160015276D01*
X130065789Y-160015276D02*
X129970551Y-160110514D01*
X129970551Y-160110514D02*
X129875313Y-160158133D01*
X131637218Y-160872419D02*
X131637218Y-159872419D01*
X131637218Y-159872419D02*
X131970551Y-160586704D01*
X131970551Y-160586704D02*
X132303884Y-159872419D01*
X132303884Y-159872419D02*
X132303884Y-160872419D01*
X132780075Y-160872419D02*
X132780075Y-160205752D01*
X132780075Y-159872419D02*
X132732456Y-159920038D01*
X132732456Y-159920038D02*
X132780075Y-159967657D01*
X132780075Y-159967657D02*
X132827694Y-159920038D01*
X132827694Y-159920038D02*
X132780075Y-159872419D01*
X132780075Y-159872419D02*
X132780075Y-159967657D01*
X133256265Y-160205752D02*
X133256265Y-160872419D01*
X133256265Y-160300990D02*
X133303884Y-160253371D01*
X133303884Y-160253371D02*
X133399122Y-160205752D01*
X133399122Y-160205752D02*
X133541979Y-160205752D01*
X133541979Y-160205752D02*
X133637217Y-160253371D01*
X133637217Y-160253371D02*
X133684836Y-160348609D01*
X133684836Y-160348609D02*
X133684836Y-160872419D01*
X134161027Y-160872419D02*
X134161027Y-160205752D01*
X134161027Y-159872419D02*
X134113408Y-159920038D01*
X134113408Y-159920038D02*
X134161027Y-159967657D01*
X134161027Y-159967657D02*
X134208646Y-159920038D01*
X134208646Y-159920038D02*
X134161027Y-159872419D01*
X134161027Y-159872419D02*
X134161027Y-159967657D01*
D14*
X171378095Y-119004819D02*
X171378095Y-119814342D01*
X171378095Y-119814342D02*
X171425714Y-119909580D01*
X171425714Y-119909580D02*
X171473333Y-119957200D01*
X171473333Y-119957200D02*
X171568571Y-120004819D01*
X171568571Y-120004819D02*
X171759047Y-120004819D01*
X171759047Y-120004819D02*
X171854285Y-119957200D01*
X171854285Y-119957200D02*
X171901904Y-119909580D01*
X171901904Y-119909580D02*
X171949523Y-119814342D01*
X171949523Y-119814342D02*
X171949523Y-119004819D01*
X172854285Y-119338152D02*
X172854285Y-120004819D01*
X172616190Y-118957200D02*
X172378095Y-119671485D01*
X172378095Y-119671485D02*
X172997142Y-119671485D01*
X138378095Y-119044819D02*
X138378095Y-119854342D01*
X138378095Y-119854342D02*
X138425714Y-119949580D01*
X138425714Y-119949580D02*
X138473333Y-119997200D01*
X138473333Y-119997200D02*
X138568571Y-120044819D01*
X138568571Y-120044819D02*
X138759047Y-120044819D01*
X138759047Y-120044819D02*
X138854285Y-119997200D01*
X138854285Y-119997200D02*
X138901904Y-119949580D01*
X138901904Y-119949580D02*
X138949523Y-119854342D01*
X138949523Y-119854342D02*
X138949523Y-119044819D01*
X139330476Y-119044819D02*
X139949523Y-119044819D01*
X139949523Y-119044819D02*
X139616190Y-119425771D01*
X139616190Y-119425771D02*
X139759047Y-119425771D01*
X139759047Y-119425771D02*
X139854285Y-119473390D01*
X139854285Y-119473390D02*
X139901904Y-119521009D01*
X139901904Y-119521009D02*
X139949523Y-119616247D01*
X139949523Y-119616247D02*
X139949523Y-119854342D01*
X139949523Y-119854342D02*
X139901904Y-119949580D01*
X139901904Y-119949580D02*
X139854285Y-119997200D01*
X139854285Y-119997200D02*
X139759047Y-120044819D01*
X139759047Y-120044819D02*
X139473333Y-120044819D01*
X139473333Y-120044819D02*
X139378095Y-119997200D01*
X139378095Y-119997200D02*
X139330476Y-119949580D01*
X171378095Y-159164819D02*
X171378095Y-159974342D01*
X171378095Y-159974342D02*
X171425714Y-160069580D01*
X171425714Y-160069580D02*
X171473333Y-160117200D01*
X171473333Y-160117200D02*
X171568571Y-160164819D01*
X171568571Y-160164819D02*
X171759047Y-160164819D01*
X171759047Y-160164819D02*
X171854285Y-160117200D01*
X171854285Y-160117200D02*
X171901904Y-160069580D01*
X171901904Y-160069580D02*
X171949523Y-159974342D01*
X171949523Y-159974342D02*
X171949523Y-159164819D01*
X172378095Y-159260057D02*
X172425714Y-159212438D01*
X172425714Y-159212438D02*
X172520952Y-159164819D01*
X172520952Y-159164819D02*
X172759047Y-159164819D01*
X172759047Y-159164819D02*
X172854285Y-159212438D01*
X172854285Y-159212438D02*
X172901904Y-159260057D01*
X172901904Y-159260057D02*
X172949523Y-159355295D01*
X172949523Y-159355295D02*
X172949523Y-159450533D01*
X172949523Y-159450533D02*
X172901904Y-159593390D01*
X172901904Y-159593390D02*
X172330476Y-160164819D01*
X172330476Y-160164819D02*
X172949523Y-160164819D01*
X138378095Y-159204819D02*
X138378095Y-160014342D01*
X138378095Y-160014342D02*
X138425714Y-160109580D01*
X138425714Y-160109580D02*
X138473333Y-160157200D01*
X138473333Y-160157200D02*
X138568571Y-160204819D01*
X138568571Y-160204819D02*
X138759047Y-160204819D01*
X138759047Y-160204819D02*
X138854285Y-160157200D01*
X138854285Y-160157200D02*
X138901904Y-160109580D01*
X138901904Y-160109580D02*
X138949523Y-160014342D01*
X138949523Y-160014342D02*
X138949523Y-159204819D01*
X139949523Y-160204819D02*
X139378095Y-160204819D01*
X139663809Y-160204819D02*
X139663809Y-159204819D01*
X139663809Y-159204819D02*
X139568571Y-159347676D01*
X139568571Y-159347676D02*
X139473333Y-159442914D01*
X139473333Y-159442914D02*
X139378095Y-159490533D01*
X107916667Y-97497200D02*
X108059524Y-97544819D01*
X108059524Y-97544819D02*
X108297619Y-97544819D01*
X108297619Y-97544819D02*
X108392857Y-97497200D01*
X108392857Y-97497200D02*
X108440476Y-97449580D01*
X108440476Y-97449580D02*
X108488095Y-97354342D01*
X108488095Y-97354342D02*
X108488095Y-97259104D01*
X108488095Y-97259104D02*
X108440476Y-97163866D01*
X108440476Y-97163866D02*
X108392857Y-97116247D01*
X108392857Y-97116247D02*
X108297619Y-97068628D01*
X108297619Y-97068628D02*
X108107143Y-97021009D01*
X108107143Y-97021009D02*
X108011905Y-96973390D01*
X108011905Y-96973390D02*
X107964286Y-96925771D01*
X107964286Y-96925771D02*
X107916667Y-96830533D01*
X107916667Y-96830533D02*
X107916667Y-96735295D01*
X107916667Y-96735295D02*
X107964286Y-96640057D01*
X107964286Y-96640057D02*
X108011905Y-96592438D01*
X108011905Y-96592438D02*
X108107143Y-96544819D01*
X108107143Y-96544819D02*
X108345238Y-96544819D01*
X108345238Y-96544819D02*
X108488095Y-96592438D01*
X108821429Y-96544819D02*
X109059524Y-97544819D01*
X109059524Y-97544819D02*
X109250000Y-96830533D01*
X109250000Y-96830533D02*
X109440476Y-97544819D01*
X109440476Y-97544819D02*
X109678572Y-96544819D01*
X110583333Y-97544819D02*
X110011905Y-97544819D01*
X110297619Y-97544819D02*
X110297619Y-96544819D01*
X110297619Y-96544819D02*
X110202381Y-96687676D01*
X110202381Y-96687676D02*
X110107143Y-96782914D01*
X110107143Y-96782914D02*
X110011905Y-96830533D01*
X175584819Y-77166666D02*
X175108628Y-77499999D01*
X175584819Y-77738094D02*
X174584819Y-77738094D01*
X174584819Y-77738094D02*
X174584819Y-77357142D01*
X174584819Y-77357142D02*
X174632438Y-77261904D01*
X174632438Y-77261904D02*
X174680057Y-77214285D01*
X174680057Y-77214285D02*
X174775295Y-77166666D01*
X174775295Y-77166666D02*
X174918152Y-77166666D01*
X174918152Y-77166666D02*
X175013390Y-77214285D01*
X175013390Y-77214285D02*
X175061009Y-77261904D01*
X175061009Y-77261904D02*
X175108628Y-77357142D01*
X175108628Y-77357142D02*
X175108628Y-77738094D01*
X175584819Y-76214285D02*
X175584819Y-76785713D01*
X175584819Y-76499999D02*
X174584819Y-76499999D01*
X174584819Y-76499999D02*
X174727676Y-76595237D01*
X174727676Y-76595237D02*
X174822914Y-76690475D01*
X174822914Y-76690475D02*
X174870533Y-76785713D01*
X198614819Y-89333333D02*
X199329104Y-89333333D01*
X199329104Y-89333333D02*
X199471961Y-89380952D01*
X199471961Y-89380952D02*
X199567200Y-89476190D01*
X199567200Y-89476190D02*
X199614819Y-89619047D01*
X199614819Y-89619047D02*
X199614819Y-89714285D01*
X198614819Y-88952380D02*
X198614819Y-88285714D01*
X198614819Y-88285714D02*
X199614819Y-88714285D01*
X198614819Y-133833333D02*
X199329104Y-133833333D01*
X199329104Y-133833333D02*
X199471961Y-133880952D01*
X199471961Y-133880952D02*
X199567200Y-133976190D01*
X199567200Y-133976190D02*
X199614819Y-134119047D01*
X199614819Y-134119047D02*
X199614819Y-134214285D01*
X198614819Y-132928571D02*
X198614819Y-133119047D01*
X198614819Y-133119047D02*
X198662438Y-133214285D01*
X198662438Y-133214285D02*
X198710057Y-133261904D01*
X198710057Y-133261904D02*
X198852914Y-133357142D01*
X198852914Y-133357142D02*
X199043390Y-133404761D01*
X199043390Y-133404761D02*
X199424342Y-133404761D01*
X199424342Y-133404761D02*
X199519580Y-133357142D01*
X199519580Y-133357142D02*
X199567200Y-133309523D01*
X199567200Y-133309523D02*
X199614819Y-133214285D01*
X199614819Y-133214285D02*
X199614819Y-133023809D01*
X199614819Y-133023809D02*
X199567200Y-132928571D01*
X199567200Y-132928571D02*
X199519580Y-132880952D01*
X199519580Y-132880952D02*
X199424342Y-132833333D01*
X199424342Y-132833333D02*
X199186247Y-132833333D01*
X199186247Y-132833333D02*
X199091009Y-132880952D01*
X199091009Y-132880952D02*
X199043390Y-132928571D01*
X199043390Y-132928571D02*
X198995771Y-133023809D01*
X198995771Y-133023809D02*
X198995771Y-133214285D01*
X198995771Y-133214285D02*
X199043390Y-133309523D01*
X199043390Y-133309523D02*
X199091009Y-133357142D01*
X199091009Y-133357142D02*
X199186247Y-133404761D01*
X180666666Y-121274819D02*
X180666666Y-121989104D01*
X180666666Y-121989104D02*
X180619047Y-122131961D01*
X180619047Y-122131961D02*
X180523809Y-122227200D01*
X180523809Y-122227200D02*
X180380952Y-122274819D01*
X180380952Y-122274819D02*
X180285714Y-122274819D01*
X181619047Y-121274819D02*
X181142857Y-121274819D01*
X181142857Y-121274819D02*
X181095238Y-121751009D01*
X181095238Y-121751009D02*
X181142857Y-121703390D01*
X181142857Y-121703390D02*
X181238095Y-121655771D01*
X181238095Y-121655771D02*
X181476190Y-121655771D01*
X181476190Y-121655771D02*
X181571428Y-121703390D01*
X181571428Y-121703390D02*
X181619047Y-121751009D01*
X181619047Y-121751009D02*
X181666666Y-121846247D01*
X181666666Y-121846247D02*
X181666666Y-122084342D01*
X181666666Y-122084342D02*
X181619047Y-122179580D01*
X181619047Y-122179580D02*
X181571428Y-122227200D01*
X181571428Y-122227200D02*
X181476190Y-122274819D01*
X181476190Y-122274819D02*
X181238095Y-122274819D01*
X181238095Y-122274819D02*
X181142857Y-122227200D01*
X181142857Y-122227200D02*
X181095238Y-122179580D01*
X180666666Y-102024819D02*
X180666666Y-102739104D01*
X180666666Y-102739104D02*
X180619047Y-102881961D01*
X180619047Y-102881961D02*
X180523809Y-102977200D01*
X180523809Y-102977200D02*
X180380952Y-103024819D01*
X180380952Y-103024819D02*
X180285714Y-103024819D01*
X181571428Y-102358152D02*
X181571428Y-103024819D01*
X181333333Y-101977200D02*
X181095238Y-102691485D01*
X181095238Y-102691485D02*
X181714285Y-102691485D01*
X180666666Y-82774819D02*
X180666666Y-83489104D01*
X180666666Y-83489104D02*
X180619047Y-83631961D01*
X180619047Y-83631961D02*
X180523809Y-83727200D01*
X180523809Y-83727200D02*
X180380952Y-83774819D01*
X180380952Y-83774819D02*
X180285714Y-83774819D01*
X181047619Y-82774819D02*
X181666666Y-82774819D01*
X181666666Y-82774819D02*
X181333333Y-83155771D01*
X181333333Y-83155771D02*
X181476190Y-83155771D01*
X181476190Y-83155771D02*
X181571428Y-83203390D01*
X181571428Y-83203390D02*
X181619047Y-83251009D01*
X181619047Y-83251009D02*
X181666666Y-83346247D01*
X181666666Y-83346247D02*
X181666666Y-83584342D01*
X181666666Y-83584342D02*
X181619047Y-83679580D01*
X181619047Y-83679580D02*
X181571428Y-83727200D01*
X181571428Y-83727200D02*
X181476190Y-83774819D01*
X181476190Y-83774819D02*
X181190476Y-83774819D01*
X181190476Y-83774819D02*
X181095238Y-83727200D01*
X181095238Y-83727200D02*
X181047619Y-83679580D01*
X111666666Y-129889819D02*
X111666666Y-130604104D01*
X111666666Y-130604104D02*
X111619047Y-130746961D01*
X111619047Y-130746961D02*
X111523809Y-130842200D01*
X111523809Y-130842200D02*
X111380952Y-130889819D01*
X111380952Y-130889819D02*
X111285714Y-130889819D01*
X112095238Y-129985057D02*
X112142857Y-129937438D01*
X112142857Y-129937438D02*
X112238095Y-129889819D01*
X112238095Y-129889819D02*
X112476190Y-129889819D01*
X112476190Y-129889819D02*
X112571428Y-129937438D01*
X112571428Y-129937438D02*
X112619047Y-129985057D01*
X112619047Y-129985057D02*
X112666666Y-130080295D01*
X112666666Y-130080295D02*
X112666666Y-130175533D01*
X112666666Y-130175533D02*
X112619047Y-130318390D01*
X112619047Y-130318390D02*
X112047619Y-130889819D01*
X112047619Y-130889819D02*
X112666666Y-130889819D01*
X144666666Y-129889819D02*
X144666666Y-130604104D01*
X144666666Y-130604104D02*
X144619047Y-130746961D01*
X144619047Y-130746961D02*
X144523809Y-130842200D01*
X144523809Y-130842200D02*
X144380952Y-130889819D01*
X144380952Y-130889819D02*
X144285714Y-130889819D01*
X145666666Y-130889819D02*
X145095238Y-130889819D01*
X145380952Y-130889819D02*
X145380952Y-129889819D01*
X145380952Y-129889819D02*
X145285714Y-130032676D01*
X145285714Y-130032676D02*
X145190476Y-130127914D01*
X145190476Y-130127914D02*
X145095238Y-130175533D01*
X176756905Y-64994819D02*
X176756905Y-63994819D01*
X176756905Y-63994819D02*
X176995000Y-63994819D01*
X176995000Y-63994819D02*
X177137857Y-64042438D01*
X177137857Y-64042438D02*
X177233095Y-64137676D01*
X177233095Y-64137676D02*
X177280714Y-64232914D01*
X177280714Y-64232914D02*
X177328333Y-64423390D01*
X177328333Y-64423390D02*
X177328333Y-64566247D01*
X177328333Y-64566247D02*
X177280714Y-64756723D01*
X177280714Y-64756723D02*
X177233095Y-64851961D01*
X177233095Y-64851961D02*
X177137857Y-64947200D01*
X177137857Y-64947200D02*
X176995000Y-64994819D01*
X176995000Y-64994819D02*
X176756905Y-64994819D01*
X178280714Y-64994819D02*
X177709286Y-64994819D01*
X177995000Y-64994819D02*
X177995000Y-63994819D01*
X177995000Y-63994819D02*
X177899762Y-64137676D01*
X177899762Y-64137676D02*
X177804524Y-64232914D01*
X177804524Y-64232914D02*
X177709286Y-64280533D01*
%TO.C,U4*%
X148235000Y-92550000D02*
X147600000Y-93185000D01*
X147600000Y-91915000D01*
X148235000Y-92550000D01*
G36*
X148235000Y-92550000D02*
G01*
X147600000Y-93185000D01*
X147600000Y-91915000D01*
X148235000Y-92550000D01*
G37*
D15*
X172370000Y-84210000D02*
G75*
G02*
X174500000Y-86340000I0J-2130000D01*
G01*
X148640000Y-86340000D02*
G75*
G02*
X150770000Y-84210000I2130002J-2D01*
G01*
X174500000Y-118670000D02*
X174500000Y-86340000D01*
X172380000Y-84210000D02*
X150770000Y-84210000D01*
X151180000Y-118670000D02*
X174500000Y-118670000D01*
X151180000Y-111770000D02*
X151180000Y-118670000D01*
X148640000Y-111770000D02*
X151180000Y-111770000D01*
X148640000Y-111770000D02*
X148640000Y-86340000D01*
%TO.C,U3*%
X115640000Y-111810000D02*
X115640000Y-86380000D01*
X115640000Y-111810000D02*
X118180000Y-111810000D01*
X118180000Y-111810000D02*
X118180000Y-118710000D01*
X118180000Y-118710000D02*
X141500000Y-118710000D01*
X139380000Y-84250000D02*
X117770000Y-84250000D01*
X141500000Y-118710000D02*
X141500000Y-86380000D01*
X115640000Y-86380000D02*
G75*
G02*
X117770000Y-84250000I2130002J-2D01*
G01*
X139370000Y-84250000D02*
G75*
G02*
X141500000Y-86380000I0J-2130000D01*
G01*
D14*
X115235000Y-92590000D02*
X114600000Y-93225000D01*
X114600000Y-91955000D01*
X115235000Y-92590000D01*
G36*
X115235000Y-92590000D02*
G01*
X114600000Y-93225000D01*
X114600000Y-91955000D01*
X115235000Y-92590000D01*
G37*
D15*
%TO.C,U2*%
X148640000Y-151930000D02*
X148640000Y-126500000D01*
X148640000Y-151930000D02*
X151180000Y-151930000D01*
X151180000Y-151930000D02*
X151180000Y-158830000D01*
X151180000Y-158830000D02*
X174500000Y-158830000D01*
X172380000Y-124370000D02*
X150770000Y-124370000D01*
X174500000Y-158830000D02*
X174500000Y-126500000D01*
X148640000Y-126500000D02*
G75*
G02*
X150770000Y-124370000I2130002J-2D01*
G01*
X172370000Y-124370000D02*
G75*
G02*
X174500000Y-126500000I0J-2130000D01*
G01*
D14*
X148235000Y-132710000D02*
X147600000Y-133345000D01*
X147600000Y-132075000D01*
X148235000Y-132710000D01*
G36*
X148235000Y-132710000D02*
G01*
X147600000Y-133345000D01*
X147600000Y-132075000D01*
X148235000Y-132710000D01*
G37*
%TO.C,U1*%
X115235000Y-132750000D02*
X114600000Y-133385000D01*
X114600000Y-132115000D01*
X115235000Y-132750000D01*
G36*
X115235000Y-132750000D02*
G01*
X114600000Y-133385000D01*
X114600000Y-132115000D01*
X115235000Y-132750000D01*
G37*
D15*
X139370000Y-124410000D02*
G75*
G02*
X141500000Y-126540000I0J-2130000D01*
G01*
X115640000Y-126540000D02*
G75*
G02*
X117770000Y-124410000I2130002J-2D01*
G01*
X141500000Y-158870000D02*
X141500000Y-126540000D01*
X139380000Y-124410000D02*
X117770000Y-124410000D01*
X118180000Y-158870000D02*
X141500000Y-158870000D01*
X118180000Y-151970000D02*
X118180000Y-158870000D01*
X115640000Y-151970000D02*
X118180000Y-151970000D01*
X115640000Y-151970000D02*
X115640000Y-126540000D01*
%TO.C,SW1*%
X112750000Y-102090000D02*
X112750000Y-100590000D01*
X111500000Y-98090000D02*
X107000000Y-98090000D01*
X107000000Y-104590000D02*
X111500000Y-104590000D01*
X105750000Y-100590000D02*
X105750000Y-102090000D01*
%TO.C,R1*%
X176130000Y-80270000D02*
X176130000Y-73730000D01*
X176460000Y-80270000D02*
X176130000Y-80270000D01*
X178540000Y-80270000D02*
X178870000Y-80270000D01*
X178870000Y-80270000D02*
X178870000Y-73730000D01*
X176130000Y-73730000D02*
X176460000Y-73730000D01*
X178870000Y-73730000D02*
X178540000Y-73730000D01*
%TO.C,J7*%
X195680000Y-106500000D02*
G75*
G02*
X192320000Y-106500000I-1680000J0D01*
G01*
X192320000Y-106500000D02*
G75*
G02*
X195680000Y-106500000I1680000J0D01*
G01*
X197550000Y-106500000D02*
G75*
G02*
X196450000Y-106500000I-550000J0D01*
G01*
X196450000Y-106500000D02*
G75*
G02*
X197550000Y-106500000I550000J0D01*
G01*
X195680000Y-101500000D02*
G75*
G02*
X192320000Y-101500000I-1680000J0D01*
G01*
X192320000Y-101500000D02*
G75*
G02*
X195680000Y-101500000I1680000J0D01*
G01*
X197550000Y-101500000D02*
G75*
G02*
X196450000Y-101500000I-550000J0D01*
G01*
X196450000Y-101500000D02*
G75*
G02*
X197550000Y-101500000I550000J0D01*
G01*
X195680000Y-96500000D02*
G75*
G02*
X192320000Y-96500000I-1680000J0D01*
G01*
X192320000Y-96500000D02*
G75*
G02*
X195680000Y-96500000I1680000J0D01*
G01*
X197550000Y-96500000D02*
G75*
G02*
X196450000Y-96500000I-550000J0D01*
G01*
X196450000Y-96500000D02*
G75*
G02*
X197550000Y-96500000I550000J0D01*
G01*
X195680000Y-91500000D02*
G75*
G02*
X192320000Y-91500000I-1680000J0D01*
G01*
X192320000Y-91500000D02*
G75*
G02*
X195680000Y-91500000I1680000J0D01*
G01*
X197550000Y-91500000D02*
G75*
G02*
X196450000Y-91500000I-550000J0D01*
G01*
X196450000Y-91500000D02*
G75*
G02*
X197550000Y-91500000I550000J0D01*
G01*
X195680000Y-86500000D02*
G75*
G02*
X192320000Y-86500000I-1680000J0D01*
G01*
X192320000Y-86500000D02*
G75*
G02*
X195680000Y-86500000I1680000J0D01*
G01*
X197550000Y-86500000D02*
G75*
G02*
X196450000Y-86500000I-550000J0D01*
G01*
X196450000Y-86500000D02*
G75*
G02*
X197550000Y-86500000I550000J0D01*
G01*
X195680000Y-81500000D02*
G75*
G02*
X192320000Y-81500000I-1680000J0D01*
G01*
X192320000Y-81500000D02*
G75*
G02*
X195680000Y-81500000I1680000J0D01*
G01*
X197550000Y-81500000D02*
G75*
G02*
X196450000Y-81500000I-550000J0D01*
G01*
X196450000Y-81500000D02*
G75*
G02*
X197550000Y-81500000I550000J0D01*
G01*
X195680000Y-76500000D02*
G75*
G02*
X192320000Y-76500000I-1680000J0D01*
G01*
X192320000Y-76500000D02*
G75*
G02*
X195680000Y-76500000I1680000J0D01*
G01*
X197550000Y-76500000D02*
G75*
G02*
X196450000Y-76500000I-550000J0D01*
G01*
X196450000Y-76500000D02*
G75*
G02*
X197550000Y-76500000I550000J0D01*
G01*
X197550000Y-71500000D02*
G75*
G02*
X196450000Y-71500000I-550000J0D01*
G01*
X196450000Y-71500000D02*
G75*
G02*
X197550000Y-71500000I550000J0D01*
G01*
X194789089Y-72983953D02*
G75*
G02*
X193211000Y-72984000I-789089J1483953D01*
G01*
X192516648Y-72288712D02*
G75*
G02*
X192320000Y-71500000I1483352J788712D01*
G01*
X192319550Y-71529383D02*
G75*
G02*
X192516000Y-70711000I1680445J29385D01*
G01*
X195483953Y-70710911D02*
G75*
G02*
X195484000Y-72289000I-1483948J-789089D01*
G01*
X193210911Y-70016047D02*
G75*
G02*
X194789000Y-70016000I789089J-1483948D01*
G01*
X198160000Y-109060000D02*
X190439000Y-109060000D01*
X195069000Y-107775000D02*
X194976000Y-107681000D01*
X195275000Y-107570000D02*
X195216000Y-107511000D01*
X192784000Y-105490000D02*
X192726000Y-105431000D01*
X193024000Y-105320000D02*
X192931000Y-105226000D01*
X195069000Y-102775000D02*
X194976000Y-102681000D01*
X195275000Y-102570000D02*
X195216000Y-102511000D01*
X192784000Y-100490000D02*
X192726000Y-100431000D01*
X193024000Y-100320000D02*
X192931000Y-100226000D01*
X195069000Y-97775000D02*
X194976000Y-97681000D01*
X195275000Y-97570000D02*
X195216000Y-97511000D01*
X192784000Y-95490000D02*
X192726000Y-95431000D01*
X193024000Y-95320000D02*
X192931000Y-95226000D01*
X195069000Y-92775000D02*
X194976000Y-92681000D01*
X195275000Y-92570000D02*
X195216000Y-92511000D01*
X192784000Y-90490000D02*
X192726000Y-90431000D01*
X193024000Y-90320000D02*
X192931000Y-90226000D01*
X195069000Y-87775000D02*
X194976000Y-87681000D01*
X195275000Y-87570000D02*
X195216000Y-87511000D01*
X192784000Y-85490000D02*
X192726000Y-85431000D01*
X193024000Y-85320000D02*
X192931000Y-85226000D01*
X195069000Y-82775000D02*
X194976000Y-82681000D01*
X195275000Y-82570000D02*
X195216000Y-82511000D01*
X192784000Y-80490000D02*
X192726000Y-80431000D01*
X193024000Y-80320000D02*
X192931000Y-80226000D01*
X195069000Y-77775000D02*
X194976000Y-77681000D01*
X195275000Y-77570000D02*
X195216000Y-77511000D01*
X192784000Y-75490000D02*
X192726000Y-75431000D01*
X193024000Y-75320000D02*
X192931000Y-75226000D01*
X190439000Y-68940000D02*
X190439000Y-109060000D01*
X191100000Y-68940000D02*
X191100000Y-109060000D01*
X191700000Y-68940000D02*
X191700000Y-109060000D01*
X196400000Y-68940000D02*
X196400000Y-109060000D01*
X198160000Y-68940000D02*
X198160000Y-109060000D01*
X198160000Y-68940000D02*
X190439000Y-68940000D01*
X190200000Y-68700000D02*
X190200000Y-69300000D01*
X191040000Y-68700000D02*
X190200000Y-68700000D01*
%TO.C,J6*%
X195680000Y-151000000D02*
G75*
G02*
X192320000Y-151000000I-1680000J0D01*
G01*
X192320000Y-151000000D02*
G75*
G02*
X195680000Y-151000000I1680000J0D01*
G01*
X197550000Y-151000000D02*
G75*
G02*
X196450000Y-151000000I-550000J0D01*
G01*
X196450000Y-151000000D02*
G75*
G02*
X197550000Y-151000000I550000J0D01*
G01*
X195680000Y-146000000D02*
G75*
G02*
X192320000Y-146000000I-1680000J0D01*
G01*
X192320000Y-146000000D02*
G75*
G02*
X195680000Y-146000000I1680000J0D01*
G01*
X197550000Y-146000000D02*
G75*
G02*
X196450000Y-146000000I-550000J0D01*
G01*
X196450000Y-146000000D02*
G75*
G02*
X197550000Y-146000000I550000J0D01*
G01*
X195680000Y-141000000D02*
G75*
G02*
X192320000Y-141000000I-1680000J0D01*
G01*
X192320000Y-141000000D02*
G75*
G02*
X195680000Y-141000000I1680000J0D01*
G01*
X197550000Y-141000000D02*
G75*
G02*
X196450000Y-141000000I-550000J0D01*
G01*
X196450000Y-141000000D02*
G75*
G02*
X197550000Y-141000000I550000J0D01*
G01*
X195680000Y-136000000D02*
G75*
G02*
X192320000Y-136000000I-1680000J0D01*
G01*
X192320000Y-136000000D02*
G75*
G02*
X195680000Y-136000000I1680000J0D01*
G01*
X197550000Y-136000000D02*
G75*
G02*
X196450000Y-136000000I-550000J0D01*
G01*
X196450000Y-136000000D02*
G75*
G02*
X197550000Y-136000000I550000J0D01*
G01*
X195680000Y-131000000D02*
G75*
G02*
X192320000Y-131000000I-1680000J0D01*
G01*
X192320000Y-131000000D02*
G75*
G02*
X195680000Y-131000000I1680000J0D01*
G01*
X197550000Y-131000000D02*
G75*
G02*
X196450000Y-131000000I-550000J0D01*
G01*
X196450000Y-131000000D02*
G75*
G02*
X197550000Y-131000000I550000J0D01*
G01*
X195680000Y-126000000D02*
G75*
G02*
X192320000Y-126000000I-1680000J0D01*
G01*
X192320000Y-126000000D02*
G75*
G02*
X195680000Y-126000000I1680000J0D01*
G01*
X197550000Y-126000000D02*
G75*
G02*
X196450000Y-126000000I-550000J0D01*
G01*
X196450000Y-126000000D02*
G75*
G02*
X197550000Y-126000000I550000J0D01*
G01*
X195680000Y-121000000D02*
G75*
G02*
X192320000Y-121000000I-1680000J0D01*
G01*
X192320000Y-121000000D02*
G75*
G02*
X195680000Y-121000000I1680000J0D01*
G01*
X197550000Y-121000000D02*
G75*
G02*
X196450000Y-121000000I-550000J0D01*
G01*
X196450000Y-121000000D02*
G75*
G02*
X197550000Y-121000000I550000J0D01*
G01*
X197550000Y-116000000D02*
G75*
G02*
X196450000Y-116000000I-550000J0D01*
G01*
X196450000Y-116000000D02*
G75*
G02*
X197550000Y-116000000I550000J0D01*
G01*
X194789089Y-117483953D02*
G75*
G02*
X193211000Y-117484000I-789089J1483953D01*
G01*
X192516648Y-116788712D02*
G75*
G02*
X192320000Y-116000000I1483352J788712D01*
G01*
X192319550Y-116029383D02*
G75*
G02*
X192516000Y-115211000I1680445J29385D01*
G01*
X195483953Y-115210911D02*
G75*
G02*
X195484000Y-116789000I-1483948J-789089D01*
G01*
X193210911Y-114516047D02*
G75*
G02*
X194789000Y-114516000I789089J-1483948D01*
G01*
X198160000Y-153560000D02*
X190439000Y-153560000D01*
X195069000Y-152275000D02*
X194976000Y-152181000D01*
X195275000Y-152070000D02*
X195216000Y-152011000D01*
X192784000Y-149990000D02*
X192726000Y-149931000D01*
X193024000Y-149820000D02*
X192931000Y-149726000D01*
X195069000Y-147275000D02*
X194976000Y-147181000D01*
X195275000Y-147070000D02*
X195216000Y-147011000D01*
X192784000Y-144990000D02*
X192726000Y-144931000D01*
X193024000Y-144820000D02*
X192931000Y-144726000D01*
X195069000Y-142275000D02*
X194976000Y-142181000D01*
X195275000Y-142070000D02*
X195216000Y-142011000D01*
X192784000Y-139990000D02*
X192726000Y-139931000D01*
X193024000Y-139820000D02*
X192931000Y-139726000D01*
X195069000Y-137275000D02*
X194976000Y-137181000D01*
X195275000Y-137070000D02*
X195216000Y-137011000D01*
X192784000Y-134990000D02*
X192726000Y-134931000D01*
X193024000Y-134820000D02*
X192931000Y-134726000D01*
X195069000Y-132275000D02*
X194976000Y-132181000D01*
X195275000Y-132070000D02*
X195216000Y-132011000D01*
X192784000Y-129990000D02*
X192726000Y-129931000D01*
X193024000Y-129820000D02*
X192931000Y-129726000D01*
X195069000Y-127275000D02*
X194976000Y-127181000D01*
X195275000Y-127070000D02*
X195216000Y-127011000D01*
X192784000Y-124990000D02*
X192726000Y-124931000D01*
X193024000Y-124820000D02*
X192931000Y-124726000D01*
X195069000Y-122275000D02*
X194976000Y-122181000D01*
X195275000Y-122070000D02*
X195216000Y-122011000D01*
X192784000Y-119990000D02*
X192726000Y-119931000D01*
X193024000Y-119820000D02*
X192931000Y-119726000D01*
X190439000Y-113440000D02*
X190439000Y-153560000D01*
X191100000Y-113440000D02*
X191100000Y-153560000D01*
X191700000Y-113440000D02*
X191700000Y-153560000D01*
X196400000Y-113440000D02*
X196400000Y-153560000D01*
X198160000Y-113440000D02*
X198160000Y-153560000D01*
X198160000Y-113440000D02*
X190439000Y-113440000D01*
X190200000Y-113200000D02*
X190200000Y-113800000D01*
X191040000Y-113200000D02*
X190200000Y-113200000D01*
%TO.C,J5*%
X182330000Y-125860000D02*
X182330000Y-136080000D01*
X182330000Y-123260000D02*
X182330000Y-124590000D01*
X181000000Y-123260000D02*
X182330000Y-123260000D01*
X179670000Y-136080000D02*
X182330000Y-136080000D01*
X179670000Y-125860000D02*
X182330000Y-125860000D01*
X179670000Y-125860000D02*
X179670000Y-136080000D01*
%TO.C,J4*%
X179670000Y-106610000D02*
X179670000Y-116830000D01*
X179670000Y-106610000D02*
X182330000Y-106610000D01*
X179670000Y-116830000D02*
X182330000Y-116830000D01*
X181000000Y-104010000D02*
X182330000Y-104010000D01*
X182330000Y-104010000D02*
X182330000Y-105340000D01*
X182330000Y-106610000D02*
X182330000Y-116830000D01*
%TO.C,J3*%
X182330000Y-87360000D02*
X182330000Y-97580000D01*
X182330000Y-84760000D02*
X182330000Y-86090000D01*
X181000000Y-84760000D02*
X182330000Y-84760000D01*
X179670000Y-97580000D02*
X182330000Y-97580000D01*
X179670000Y-87360000D02*
X182330000Y-87360000D01*
X179670000Y-87360000D02*
X179670000Y-97580000D01*
%TO.C,J2*%
X110670000Y-131435000D02*
X112000000Y-131435000D01*
X110670000Y-132765000D02*
X110670000Y-131435000D01*
X110670000Y-134035000D02*
X110670000Y-151875000D01*
X110670000Y-134035000D02*
X113330000Y-134035000D01*
X110670000Y-151875000D02*
X113330000Y-151875000D01*
X113330000Y-134035000D02*
X113330000Y-151875000D01*
%TO.C,J1*%
X143670000Y-131435000D02*
X145000000Y-131435000D01*
X143670000Y-132765000D02*
X143670000Y-131435000D01*
X143670000Y-134035000D02*
X143670000Y-151875000D01*
X143670000Y-134035000D02*
X146330000Y-134035000D01*
X143670000Y-151875000D02*
X146330000Y-151875000D01*
X146330000Y-134035000D02*
X146330000Y-151875000D01*
%TO.C,D1*%
X175935000Y-66264000D02*
X175935000Y-66420000D01*
X175935000Y-68580000D02*
X175935000Y-68736000D01*
X175935000Y-66264484D02*
G75*
G02*
X179167335Y-66421392I1560000J-1235516D01*
G01*
X176454039Y-66420000D02*
G75*
G02*
X178536130Y-66420163I1040961J-1080000D01*
G01*
X178536130Y-68579837D02*
G75*
G02*
X176454039Y-68580000I-1041130J1079837D01*
G01*
X179167335Y-68578608D02*
G75*
G02*
X175935000Y-68735516I-1672335J1078608D01*
G01*
%TD*%
M02*
