%TF.GenerationSoftware,KiCad,Pcbnew,8.0.3*%
%TF.CreationDate,2024-06-27T17:09:37+08:00*%
%TF.ProjectId,Kicad8,4b696361-6438-42e6-9b69-6361645f7063,rev?*%
%TF.SameCoordinates,Original*%
%TF.FileFunction,Copper,L1,Top*%
%TF.FilePolarity,Positive*%
%FSLAX46Y46*%
G04 Gerber Fmt 4.6, Leading zero omitted, Abs format (unit mm)*
G04 Created by KiCad (PCBNEW 8.0.3) date 2024-06-27 17:09:37*
%MOMM*%
%LPD*%
G01*
G04 APERTURE LIST*
%TA.AperFunction,ComponentPad*%
%ADD10O,2.000000X1.600000*%
%TD*%
%TA.AperFunction,ComponentPad*%
%ADD11R,2.000000X2.000000*%
%TD*%
%TA.AperFunction,ComponentPad*%
%ADD12C,2.000000*%
%TD*%
%TA.AperFunction,ComponentPad*%
%ADD13C,1.600000*%
%TD*%
%TA.AperFunction,ComponentPad*%
%ADD14O,1.600000X1.600000*%
%TD*%
%TA.AperFunction,ComponentPad*%
%ADD15C,2.500000*%
%TD*%
%TA.AperFunction,ComponentPad*%
%ADD16R,2.500000X2.500000*%
%TD*%
%TA.AperFunction,ComponentPad*%
%ADD17O,1.700000X1.700000*%
%TD*%
%TA.AperFunction,ComponentPad*%
%ADD18R,1.700000X1.700000*%
%TD*%
%TA.AperFunction,ComponentPad*%
%ADD19R,1.800000X1.800000*%
%TD*%
%TA.AperFunction,ComponentPad*%
%ADD20C,1.800000*%
%TD*%
%TA.AperFunction,ViaPad*%
%ADD21C,0.600000*%
%TD*%
%TA.AperFunction,Conductor*%
%ADD22C,0.200000*%
%TD*%
G04 APERTURE END LIST*
D10*
%TO.P,U4,16,TX*%
%TO.N,Net-(J1-Pin_1)*%
X173000000Y-92550000D03*
%TO.P,U4,15,RX*%
%TO.N,Net-(J1-Pin_2)*%
X173000000Y-95090000D03*
%TO.P,U4,14,SCL/D1*%
%TO.N,Net-(J1-Pin_3)*%
X173000000Y-97630000D03*
%TO.P,U4,13,SDA/D2*%
%TO.N,Net-(J1-Pin_4)*%
X173000000Y-100170000D03*
%TO.P,U4,12,D3*%
%TO.N,Net-(J1-Pin_5)*%
X173000000Y-102710000D03*
%TO.P,U4,11,D4*%
%TO.N,Net-(J1-Pin_6)*%
X173000000Y-105250000D03*
%TO.P,U4,10,GND*%
%TO.N,GND*%
X173000000Y-107790000D03*
%TO.P,U4,9,5V*%
%TO.N,Net-(J1-Pin_8)*%
X173000000Y-110330000D03*
%TO.P,U4,8,3V3*%
%TO.N,Net-(J2-Pin_8)*%
X150140000Y-110330000D03*
%TO.P,U4,7,CS/D8*%
%TO.N,Net-(J2-Pin_7)*%
X150140000Y-107790000D03*
%TO.P,U4,6,MOSI/D7*%
%TO.N,Net-(J2-Pin_6)*%
X150140000Y-105250000D03*
%TO.P,U4,5,MISO/D6*%
%TO.N,Net-(J2-Pin_5)*%
X150140000Y-102710000D03*
%TO.P,U4,4,SCK/D5*%
%TO.N,Net-(J2-Pin_4)*%
X150140000Y-100170000D03*
%TO.P,U4,3,D0*%
%TO.N,Net-(J2-Pin_3)*%
X150140000Y-97630000D03*
%TO.P,U4,2,A0*%
%TO.N,Net-(J2-Pin_2)*%
X150140000Y-95090000D03*
D11*
%TO.P,U4,1,~{RST}*%
%TO.N,Net-(J2-Pin_1)*%
X150140000Y-92550000D03*
%TD*%
%TO.P,U3,1,~{RST}*%
%TO.N,Net-(J2-Pin_1)*%
X117140000Y-92590000D03*
D10*
%TO.P,U3,2,A0*%
%TO.N,Net-(J2-Pin_2)*%
X117140000Y-95130000D03*
%TO.P,U3,3,D0*%
%TO.N,Net-(J2-Pin_3)*%
X117140000Y-97670000D03*
%TO.P,U3,4,SCK/D5*%
%TO.N,Net-(J2-Pin_4)*%
X117140000Y-100210000D03*
%TO.P,U3,5,MISO/D6*%
%TO.N,Net-(J2-Pin_5)*%
X117140000Y-102750000D03*
%TO.P,U3,6,MOSI/D7*%
%TO.N,Net-(J2-Pin_6)*%
X117140000Y-105290000D03*
%TO.P,U3,7,CS/D8*%
%TO.N,Net-(J2-Pin_7)*%
X117140000Y-107830000D03*
%TO.P,U3,8,3V3*%
%TO.N,Net-(J2-Pin_8)*%
X117140000Y-110370000D03*
%TO.P,U3,9,5V*%
%TO.N,Net-(J1-Pin_8)*%
X140000000Y-110370000D03*
%TO.P,U3,10,GND*%
%TO.N,GND*%
X140000000Y-107830000D03*
%TO.P,U3,11,D4*%
%TO.N,Net-(J1-Pin_6)*%
X140000000Y-105290000D03*
%TO.P,U3,12,D3*%
%TO.N,Net-(J1-Pin_5)*%
X140000000Y-102750000D03*
%TO.P,U3,13,SDA/D2*%
%TO.N,Net-(J1-Pin_4)*%
X140000000Y-100210000D03*
%TO.P,U3,14,SCL/D1*%
%TO.N,Net-(J1-Pin_3)*%
X140000000Y-97670000D03*
%TO.P,U3,15,RX*%
%TO.N,Net-(J1-Pin_2)*%
X140000000Y-95130000D03*
%TO.P,U3,16,TX*%
%TO.N,Net-(J1-Pin_1)*%
X140000000Y-92590000D03*
%TD*%
D11*
%TO.P,U2,1,~{RST}*%
%TO.N,Net-(J2-Pin_1)*%
X150140000Y-132710000D03*
D10*
%TO.P,U2,2,A0*%
%TO.N,Net-(J2-Pin_2)*%
X150140000Y-135250000D03*
%TO.P,U2,3,D0*%
%TO.N,Net-(J2-Pin_3)*%
X150140000Y-137790000D03*
%TO.P,U2,4,SCK/D5*%
%TO.N,Net-(J2-Pin_4)*%
X150140000Y-140330000D03*
%TO.P,U2,5,MISO/D6*%
%TO.N,Net-(J2-Pin_5)*%
X150140000Y-142870000D03*
%TO.P,U2,6,MOSI/D7*%
%TO.N,Net-(J2-Pin_6)*%
X150140000Y-145410000D03*
%TO.P,U2,7,CS/D8*%
%TO.N,Net-(J2-Pin_7)*%
X150140000Y-147950000D03*
%TO.P,U2,8,3V3*%
%TO.N,Net-(J2-Pin_8)*%
X150140000Y-150490000D03*
%TO.P,U2,9,5V*%
%TO.N,Net-(J1-Pin_8)*%
X173000000Y-150490000D03*
%TO.P,U2,10,GND*%
%TO.N,GND*%
X173000000Y-147950000D03*
%TO.P,U2,11,D4*%
%TO.N,Net-(J1-Pin_6)*%
X173000000Y-145410000D03*
%TO.P,U2,12,D3*%
%TO.N,Net-(J1-Pin_5)*%
X173000000Y-142870000D03*
%TO.P,U2,13,SDA/D2*%
%TO.N,Net-(J1-Pin_4)*%
X173000000Y-140330000D03*
%TO.P,U2,14,SCL/D1*%
%TO.N,Net-(J1-Pin_3)*%
X173000000Y-137790000D03*
%TO.P,U2,15,RX*%
%TO.N,Net-(J1-Pin_2)*%
X173000000Y-135250000D03*
%TO.P,U2,16,TX*%
%TO.N,Net-(J1-Pin_1)*%
X173000000Y-132710000D03*
%TD*%
%TO.P,U1,16,TX*%
%TO.N,Net-(J1-Pin_1)*%
X140000000Y-132750000D03*
%TO.P,U1,15,RX*%
%TO.N,Net-(J1-Pin_2)*%
X140000000Y-135290000D03*
%TO.P,U1,14,SCL/D1*%
%TO.N,Net-(J1-Pin_3)*%
X140000000Y-137830000D03*
%TO.P,U1,13,SDA/D2*%
%TO.N,Net-(J1-Pin_4)*%
X140000000Y-140370000D03*
%TO.P,U1,12,D3*%
%TO.N,Net-(J1-Pin_5)*%
X140000000Y-142910000D03*
%TO.P,U1,11,D4*%
%TO.N,Net-(J1-Pin_6)*%
X140000000Y-145450000D03*
%TO.P,U1,10,GND*%
%TO.N,GND*%
X140000000Y-147990000D03*
%TO.P,U1,9,5V*%
%TO.N,Net-(J1-Pin_8)*%
X140000000Y-150530000D03*
%TO.P,U1,8,3V3*%
%TO.N,Net-(J2-Pin_8)*%
X117140000Y-150530000D03*
%TO.P,U1,7,CS/D8*%
%TO.N,Net-(J2-Pin_7)*%
X117140000Y-147990000D03*
%TO.P,U1,6,MOSI/D7*%
%TO.N,Net-(J2-Pin_6)*%
X117140000Y-145450000D03*
%TO.P,U1,5,MISO/D6*%
%TO.N,Net-(J2-Pin_5)*%
X117140000Y-142910000D03*
%TO.P,U1,4,SCK/D5*%
%TO.N,Net-(J2-Pin_4)*%
X117140000Y-140370000D03*
%TO.P,U1,3,D0*%
%TO.N,Net-(J2-Pin_3)*%
X117140000Y-137830000D03*
%TO.P,U1,2,A0*%
%TO.N,Net-(J2-Pin_2)*%
X117140000Y-135290000D03*
D11*
%TO.P,U1,1,~{RST}*%
%TO.N,Net-(J2-Pin_1)*%
X117140000Y-132750000D03*
%TD*%
D12*
%TO.P,SW1,2,2*%
%TO.N,Net-(J2-Pin_1)*%
X112500000Y-103590000D03*
X106000000Y-103590000D03*
%TO.P,SW1,1,1*%
%TO.N,GND*%
X112500000Y-99090000D03*
X106000000Y-99090000D03*
%TD*%
D13*
%TO.P,R1,1*%
%TO.N,Net-(D1-A)*%
X177500000Y-80810000D03*
D14*
%TO.P,R1,2*%
%TO.N,Net-(J1-Pin_8)*%
X177500000Y-73190000D03*
%TD*%
D15*
%TO.P,J7,8,Pin_8*%
%TO.N,Net-(J1-Pin_8)*%
X194000000Y-106500000D03*
%TO.P,J7,7,Pin_7*%
%TO.N,GND*%
X194000000Y-101500000D03*
%TO.P,J7,6,Pin_6*%
%TO.N,Net-(J1-Pin_6)*%
X194000000Y-96500000D03*
%TO.P,J7,5,Pin_5*%
%TO.N,Net-(J1-Pin_5)*%
X194000000Y-91500000D03*
%TO.P,J7,4,Pin_4*%
%TO.N,Net-(J1-Pin_4)*%
X194000000Y-86500000D03*
%TO.P,J7,3,Pin_3*%
%TO.N,Net-(J1-Pin_3)*%
X194000000Y-81500000D03*
%TO.P,J7,2,Pin_2*%
%TO.N,Net-(J1-Pin_2)*%
X194000000Y-76500000D03*
D16*
%TO.P,J7,1,Pin_1*%
%TO.N,Net-(J1-Pin_1)*%
X194000000Y-71500000D03*
%TD*%
D15*
%TO.P,J6,8,Pin_8*%
%TO.N,Net-(J2-Pin_8)*%
X194000000Y-151000000D03*
%TO.P,J6,7,Pin_7*%
%TO.N,Net-(J2-Pin_7)*%
X194000000Y-146000000D03*
%TO.P,J6,6,Pin_6*%
%TO.N,Net-(J2-Pin_6)*%
X194000000Y-141000000D03*
%TO.P,J6,5,Pin_5*%
%TO.N,Net-(J2-Pin_5)*%
X194000000Y-136000000D03*
%TO.P,J6,4,Pin_4*%
%TO.N,Net-(J2-Pin_4)*%
X194000000Y-131000000D03*
%TO.P,J6,3,Pin_3*%
%TO.N,Net-(J2-Pin_3)*%
X194000000Y-126000000D03*
%TO.P,J6,2,Pin_2*%
%TO.N,Net-(J2-Pin_2)*%
X194000000Y-121000000D03*
D16*
%TO.P,J6,1,Pin_1*%
%TO.N,Net-(J2-Pin_1)*%
X194000000Y-116000000D03*
%TD*%
D17*
%TO.P,J5,5,Pin_5*%
%TO.N,Net-(J1-Pin_8)*%
X181000000Y-134750000D03*
%TO.P,J5,4,Pin_4*%
X181000000Y-132210000D03*
%TO.P,J5,3,Pin_3*%
X181000000Y-129670000D03*
%TO.P,J5,2,Pin_2*%
X181000000Y-127130000D03*
D18*
%TO.P,J5,1,Pin_1*%
X181000000Y-124590000D03*
%TD*%
%TO.P,J4,1,Pin_1*%
%TO.N,Net-(J2-Pin_8)*%
X181000000Y-105340000D03*
D17*
%TO.P,J4,2,Pin_2*%
X181000000Y-107880000D03*
%TO.P,J4,3,Pin_3*%
X181000000Y-110420000D03*
%TO.P,J4,4,Pin_4*%
X181000000Y-112960000D03*
%TO.P,J4,5,Pin_5*%
X181000000Y-115500000D03*
%TD*%
%TO.P,J3,5,Pin_5*%
%TO.N,GND*%
X181000000Y-96250000D03*
%TO.P,J3,4,Pin_4*%
X181000000Y-93710000D03*
%TO.P,J3,3,Pin_3*%
X181000000Y-91170000D03*
%TO.P,J3,2,Pin_2*%
X181000000Y-88630000D03*
D18*
%TO.P,J3,1,Pin_1*%
X181000000Y-86090000D03*
%TD*%
%TO.P,J2,1,Pin_1*%
%TO.N,Net-(J2-Pin_1)*%
X112000000Y-132765000D03*
D17*
%TO.P,J2,2,Pin_2*%
%TO.N,Net-(J2-Pin_2)*%
X112000000Y-135305000D03*
%TO.P,J2,3,Pin_3*%
%TO.N,Net-(J2-Pin_3)*%
X112000000Y-137845000D03*
%TO.P,J2,4,Pin_4*%
%TO.N,Net-(J2-Pin_4)*%
X112000000Y-140385000D03*
%TO.P,J2,5,Pin_5*%
%TO.N,Net-(J2-Pin_5)*%
X112000000Y-142925000D03*
%TO.P,J2,6,Pin_6*%
%TO.N,Net-(J2-Pin_6)*%
X112000000Y-145465000D03*
%TO.P,J2,7,Pin_7*%
%TO.N,Net-(J2-Pin_7)*%
X112000000Y-148005000D03*
%TO.P,J2,8,Pin_8*%
%TO.N,Net-(J2-Pin_8)*%
X112000000Y-150545000D03*
%TD*%
D18*
%TO.P,J1,1,Pin_1*%
%TO.N,Net-(J1-Pin_1)*%
X145000000Y-132765000D03*
D17*
%TO.P,J1,2,Pin_2*%
%TO.N,Net-(J1-Pin_2)*%
X145000000Y-135305000D03*
%TO.P,J1,3,Pin_3*%
%TO.N,Net-(J1-Pin_3)*%
X145000000Y-137845000D03*
%TO.P,J1,4,Pin_4*%
%TO.N,Net-(J1-Pin_4)*%
X145000000Y-140385000D03*
%TO.P,J1,5,Pin_5*%
%TO.N,Net-(J1-Pin_5)*%
X145000000Y-142925000D03*
%TO.P,J1,6,Pin_6*%
%TO.N,Net-(J1-Pin_6)*%
X145000000Y-145465000D03*
%TO.P,J1,7,Pin_7*%
%TO.N,GND*%
X145000000Y-148005000D03*
%TO.P,J1,8,Pin_8*%
%TO.N,Net-(J1-Pin_8)*%
X145000000Y-150545000D03*
%TD*%
D19*
%TO.P,D1,1,K*%
%TO.N,GND*%
X176225000Y-67500000D03*
D20*
%TO.P,D1,2,A*%
%TO.N,Net-(D1-A)*%
X178765000Y-67500000D03*
%TD*%
D21*
%TO.N,Net-(J2-Pin_3)*%
X170142900Y-122262200D03*
%TD*%
D22*
%TO.N,Net-(J2-Pin_1)*%
X166600000Y-117551700D02*
X151441700Y-132710000D01*
X190896600Y-117551700D02*
X166600000Y-117551700D01*
X192448300Y-116000000D02*
X190896600Y-117551700D01*
X194000000Y-116000000D02*
X192448300Y-116000000D01*
X150140000Y-132710000D02*
X151441700Y-132710000D01*
X147741600Y-131613300D02*
X148838300Y-132710000D01*
X119578400Y-131613300D02*
X147741600Y-131613300D01*
X118441700Y-132750000D02*
X119578400Y-131613300D01*
X117140000Y-132750000D02*
X118441700Y-132750000D01*
X150140000Y-132710000D02*
X148838300Y-132710000D01*
X115823300Y-132765000D02*
X115838300Y-132750000D01*
X112000000Y-132765000D02*
X115823300Y-132765000D01*
X117140000Y-132750000D02*
X115838300Y-132750000D01*
X147687100Y-93701200D02*
X148838300Y-92550000D01*
X119552900Y-93701200D02*
X147687100Y-93701200D01*
X118441700Y-92590000D02*
X119552900Y-93701200D01*
X117140000Y-92590000D02*
X118441700Y-92590000D01*
X150140000Y-92550000D02*
X148838300Y-92550000D01*
%TO.N,Net-(J2-Pin_7)*%
X117140000Y-147990000D02*
X117140000Y-146888300D01*
X117180000Y-146848300D02*
X150140000Y-146848300D01*
X117140000Y-146888300D02*
X117180000Y-146848300D01*
X193151700Y-146848300D02*
X194000000Y-146000000D01*
X150140000Y-146848300D02*
X193151700Y-146848300D01*
X150140000Y-147950000D02*
X150140000Y-146848300D01*
X115823300Y-148005000D02*
X115838300Y-147990000D01*
X112000000Y-148005000D02*
X115823300Y-148005000D01*
X117140000Y-147990000D02*
X115838300Y-147990000D01*
%TO.N,Net-(J2-Pin_6)*%
X117180000Y-144308300D02*
X150140000Y-144308300D01*
X117140000Y-144348300D02*
X117180000Y-144308300D01*
X117140000Y-145450000D02*
X117140000Y-144348300D01*
X150140000Y-145410000D02*
X150140000Y-144308300D01*
X190691700Y-144308300D02*
X150140000Y-144308300D01*
X194000000Y-141000000D02*
X190691700Y-144308300D01*
X115823300Y-145465000D02*
X115838300Y-145450000D01*
X112000000Y-145465000D02*
X115823300Y-145465000D01*
X117140000Y-145450000D02*
X115838300Y-145450000D01*
%TO.N,Net-(J2-Pin_4)*%
X115823300Y-140385000D02*
X115838300Y-140370000D01*
X112000000Y-140385000D02*
X115823300Y-140385000D01*
X117140000Y-140370000D02*
X115838300Y-140370000D01*
X150140000Y-140330000D02*
X150140000Y-139331600D01*
X117140000Y-140370000D02*
X117140000Y-139268300D01*
X150140000Y-139331600D02*
X150140000Y-139234800D01*
X117240900Y-139167400D02*
X117140000Y-139268300D01*
X150072600Y-139167400D02*
X117240900Y-139167400D01*
X150140000Y-139234800D02*
X150072600Y-139167400D01*
X185940000Y-139060000D02*
X194000000Y-131000000D01*
X150314800Y-139060000D02*
X185940000Y-139060000D01*
X150140000Y-139234800D02*
X150314800Y-139060000D01*
X150100000Y-101311700D02*
X150140000Y-101271700D01*
X117140000Y-101311700D02*
X150100000Y-101311700D01*
X117140000Y-100210000D02*
X117140000Y-101311700D01*
X150140000Y-100170000D02*
X150140000Y-101271700D01*
%TO.N,Net-(J2-Pin_2)*%
X150140000Y-135250000D02*
X150140000Y-134148300D01*
X117180000Y-134148300D02*
X117140000Y-134188300D01*
X150140000Y-134148300D02*
X117180000Y-134148300D01*
X117140000Y-135290000D02*
X117140000Y-134188300D01*
X115823300Y-135305000D02*
X115838300Y-135290000D01*
X112000000Y-135305000D02*
X115823300Y-135305000D01*
X117140000Y-135290000D02*
X115838300Y-135290000D01*
X152721000Y-134148300D02*
X150140000Y-134148300D01*
X166114800Y-120754500D02*
X152721000Y-134148300D01*
X193754500Y-120754500D02*
X166114800Y-120754500D01*
X194000000Y-121000000D02*
X193754500Y-120754500D01*
%TO.N,Net-(J2-Pin_3)*%
X117140000Y-137830000D02*
X117140000Y-136728300D01*
X149038300Y-136688300D02*
X150140000Y-137790000D01*
X117180000Y-136688300D02*
X149038300Y-136688300D01*
X117140000Y-136728300D02*
X117180000Y-136688300D01*
X115823300Y-137845000D02*
X115838300Y-137830000D01*
X112000000Y-137845000D02*
X115823300Y-137845000D01*
X117140000Y-137830000D02*
X115838300Y-137830000D01*
X190262200Y-122262200D02*
X170142900Y-122262200D01*
X194000000Y-126000000D02*
X190262200Y-122262200D01*
%TO.N,Net-(J2-Pin_8)*%
X115823300Y-150545000D02*
X115838300Y-150530000D01*
X112000000Y-150545000D02*
X115823300Y-150545000D01*
X117140000Y-150530000D02*
X115838300Y-150530000D01*
X117140000Y-150530000D02*
X117140000Y-149428300D01*
X148070800Y-150490000D02*
X150140000Y-150490000D01*
X146932400Y-149351600D02*
X148070800Y-150490000D01*
X117216700Y-149351600D02*
X146932400Y-149351600D01*
X117140000Y-149428300D02*
X117216700Y-149351600D01*
X181000000Y-105340000D02*
X179848300Y-105340000D01*
X168520500Y-110330000D02*
X150140000Y-110330000D01*
X172358800Y-106491700D02*
X168520500Y-110330000D01*
X178696600Y-106491700D02*
X172358800Y-106491700D01*
X179848300Y-105340000D02*
X178696600Y-106491700D01*
%TO.N,Net-(J2-Pin_5)*%
X188231700Y-141768300D02*
X150140000Y-141768300D01*
X194000000Y-136000000D02*
X188231700Y-141768300D01*
X117178500Y-141769800D02*
X150140000Y-141769800D01*
X117140000Y-141808300D02*
X117178500Y-141769800D01*
X150140000Y-142870000D02*
X150140000Y-141769800D01*
X150140000Y-141769800D02*
X150140000Y-141768300D01*
X117140000Y-142910000D02*
X117140000Y-141808300D01*
X115823300Y-142925000D02*
X115838300Y-142910000D01*
X112000000Y-142925000D02*
X115823300Y-142925000D01*
X117140000Y-142910000D02*
X115838300Y-142910000D01*
%TO.N,Net-(J1-Pin_6)*%
X140000000Y-145450000D02*
X141301700Y-145450000D01*
X140000000Y-105290000D02*
X140000000Y-106391700D01*
X141316700Y-145465000D02*
X145000000Y-145465000D01*
X141301700Y-145450000D02*
X141316700Y-145465000D01*
X171858300Y-106391700D02*
X173000000Y-105250000D01*
X140000000Y-106391700D02*
X171858300Y-106391700D01*
X187590100Y-102909900D02*
X194000000Y-96500000D01*
X175340100Y-102909900D02*
X187590100Y-102909900D01*
X173000000Y-105250000D02*
X175340100Y-102909900D01*
%TO.N,Net-(J1-Pin_1)*%
X141316700Y-132765000D02*
X141301700Y-132750000D01*
X145000000Y-132765000D02*
X141316700Y-132765000D01*
X140000000Y-132750000D02*
X141301700Y-132750000D01*
X140000000Y-92590000D02*
X140000000Y-91488300D01*
X173000000Y-92550000D02*
X173000000Y-91448300D01*
X192448300Y-71600000D02*
X172800000Y-91248300D01*
X192448300Y-71500000D02*
X192448300Y-71600000D01*
X140240000Y-91248300D02*
X172800000Y-91248300D01*
X140000000Y-91488300D02*
X140240000Y-91248300D01*
X172800000Y-91248300D02*
X173000000Y-91448300D01*
X194000000Y-71500000D02*
X192448300Y-71500000D01*
%TO.N,Net-(J1-Pin_8)*%
X140000000Y-150530000D02*
X141301700Y-150530000D01*
X141316700Y-150545000D02*
X145000000Y-150545000D01*
X141301700Y-150530000D02*
X141316700Y-150545000D01*
X147198400Y-151591700D02*
X173000000Y-151591700D01*
X146151700Y-150545000D02*
X147198400Y-151591700D01*
X145000000Y-150545000D02*
X146151700Y-150545000D01*
X173000000Y-150490000D02*
X173000000Y-151591700D01*
X173000000Y-110330000D02*
X171698300Y-110330000D01*
X140000000Y-110370000D02*
X140000000Y-111471700D01*
X170137000Y-111891300D02*
X171698300Y-110330000D01*
X140419600Y-111891300D02*
X170137000Y-111891300D01*
X140000000Y-111471700D02*
X140419600Y-111891300D01*
%TO.N,Net-(J1-Pin_3)*%
X140040000Y-96528300D02*
X173000000Y-96528300D01*
X140000000Y-96568300D02*
X140040000Y-96528300D01*
X140000000Y-97670000D02*
X140000000Y-96568300D01*
X173000000Y-97630000D02*
X173000000Y-96528300D01*
X174954100Y-96528300D02*
X173000000Y-96528300D01*
X179042400Y-92440000D02*
X174954100Y-96528300D01*
X183060000Y-92440000D02*
X179042400Y-92440000D01*
X194000000Y-81500000D02*
X183060000Y-92440000D01*
X141316700Y-137845000D02*
X141301700Y-137830000D01*
X145000000Y-137845000D02*
X141316700Y-137845000D01*
X140000000Y-137830000D02*
X141301700Y-137830000D01*
%TO.N,Net-(J1-Pin_2)*%
X140000000Y-135290000D02*
X141301700Y-135290000D01*
X194000000Y-77283800D02*
X194000000Y-76500000D01*
X181383800Y-89900000D02*
X194000000Y-77283800D01*
X178190000Y-89900000D02*
X181383800Y-89900000D01*
X174101700Y-93988300D02*
X178190000Y-89900000D01*
X173000000Y-93988300D02*
X174101700Y-93988300D01*
X173000000Y-95090000D02*
X173000000Y-93988300D01*
X141316700Y-135305000D02*
X145000000Y-135305000D01*
X141301700Y-135290000D02*
X141316700Y-135305000D01*
X149483600Y-136351700D02*
X173000000Y-136351700D01*
X148436900Y-135305000D02*
X149483600Y-136351700D01*
X145000000Y-135305000D02*
X148436900Y-135305000D01*
X173000000Y-135250000D02*
X173000000Y-136351700D01*
%TO.N,Net-(J1-Pin_5)*%
X172960000Y-103851700D02*
X173000000Y-103811700D01*
X140000000Y-103851700D02*
X172960000Y-103851700D01*
X140000000Y-102750000D02*
X140000000Y-103851700D01*
X174703400Y-102308300D02*
X174301700Y-102710000D01*
X183191700Y-102308300D02*
X174703400Y-102308300D01*
X194000000Y-91500000D02*
X183191700Y-102308300D01*
X173000000Y-102710000D02*
X174301700Y-102710000D01*
X173000000Y-102710000D02*
X173000000Y-103811700D01*
X141316700Y-142925000D02*
X141301700Y-142910000D01*
X145000000Y-142925000D02*
X141316700Y-142925000D01*
X140000000Y-142910000D02*
X141301700Y-142910000D01*
%TO.N,Net-(J1-Pin_4)*%
X141316700Y-140385000D02*
X141301700Y-140370000D01*
X145000000Y-140385000D02*
X141316700Y-140385000D01*
X140000000Y-140370000D02*
X141301700Y-140370000D01*
X140040000Y-99068300D02*
X173000000Y-99068300D01*
X140000000Y-99108300D02*
X140040000Y-99068300D01*
X140000000Y-100210000D02*
X140000000Y-99108300D01*
X173000000Y-100170000D02*
X173000000Y-99068300D01*
X181431700Y-99068300D02*
X173000000Y-99068300D01*
X194000000Y-86500000D02*
X181431700Y-99068300D01*
%TO.N,GND*%
X141316700Y-148005000D02*
X141301700Y-147990000D01*
X145000000Y-148005000D02*
X141316700Y-148005000D01*
X140000000Y-147990000D02*
X141301700Y-147990000D01*
X106000000Y-99090000D02*
X112500000Y-99090000D01*
X173000000Y-147950000D02*
X173000000Y-149051700D01*
X145000000Y-148005000D02*
X146151700Y-148005000D01*
X146179400Y-148005000D02*
X146151700Y-148005000D01*
X147226100Y-149051700D02*
X146179400Y-148005000D01*
X173000000Y-149051700D02*
X147226100Y-149051700D01*
X112500000Y-99924500D02*
X112500000Y-99090000D01*
X116595500Y-104020000D02*
X112500000Y-99924500D01*
X136190000Y-104020000D02*
X116595500Y-104020000D01*
X140000000Y-107830000D02*
X136190000Y-104020000D01*
X178951700Y-107790000D02*
X173000000Y-107790000D01*
X180131800Y-106609900D02*
X178951700Y-107790000D01*
X188890100Y-106609900D02*
X180131800Y-106609900D01*
X194000000Y-101500000D02*
X188890100Y-106609900D01*
X141101700Y-108931700D02*
X140000000Y-108931700D01*
X143629900Y-111459900D02*
X141101700Y-108931700D01*
X169330100Y-111459900D02*
X143629900Y-111459900D01*
X171898300Y-108891700D02*
X169330100Y-111459900D01*
X173000000Y-108891700D02*
X171898300Y-108891700D01*
X173000000Y-107790000D02*
X173000000Y-108891700D01*
X140000000Y-107830000D02*
X140000000Y-108931700D01*
%TD*%
%TA.AperFunction,Conductor*%
%TO.N,GND*%
G36*
X171492317Y-147468485D02*
G01*
X171538072Y-147521289D01*
X171548016Y-147590447D01*
X171543209Y-147611119D01*
X171532008Y-147645588D01*
X171523391Y-147700000D01*
X172566988Y-147700000D01*
X172534075Y-147757007D01*
X172500000Y-147884174D01*
X172500000Y-148015826D01*
X172534075Y-148142993D01*
X172566988Y-148200000D01*
X171523391Y-148200000D01*
X171532009Y-148254413D01*
X171595244Y-148449029D01*
X171688140Y-148631349D01*
X171808417Y-148796894D01*
X171808417Y-148796895D01*
X171953104Y-148941582D01*
X172118652Y-149061861D01*
X172211628Y-149109234D01*
X172262425Y-149157208D01*
X172279220Y-149225029D01*
X172256683Y-149291164D01*
X172211630Y-149330203D01*
X172118388Y-149377713D01*
X171952786Y-149498028D01*
X171808028Y-149642786D01*
X171687715Y-149808386D01*
X171594781Y-149990776D01*
X171531522Y-150185465D01*
X171499500Y-150387648D01*
X171499500Y-150592351D01*
X171531522Y-150794534D01*
X171542683Y-150828881D01*
X171544678Y-150898722D01*
X171508598Y-150958555D01*
X171445898Y-150989384D01*
X171424752Y-150991200D01*
X151715248Y-150991200D01*
X151648209Y-150971515D01*
X151602454Y-150918711D01*
X151592510Y-150849553D01*
X151597317Y-150828881D01*
X151608477Y-150794534D01*
X151617373Y-150738370D01*
X151640500Y-150592352D01*
X151640500Y-150387648D01*
X151616854Y-150238356D01*
X151608477Y-150185465D01*
X151551836Y-150011143D01*
X151545220Y-149990781D01*
X151545218Y-149990778D01*
X151545218Y-149990776D01*
X151510523Y-149922684D01*
X151452287Y-149808390D01*
X151444556Y-149797749D01*
X151331971Y-149642786D01*
X151187213Y-149498028D01*
X151021614Y-149377715D01*
X150998498Y-149365937D01*
X150928917Y-149330483D01*
X150878123Y-149282511D01*
X150861328Y-149214690D01*
X150883865Y-149148555D01*
X150928917Y-149109516D01*
X151021610Y-149062287D01*
X151047478Y-149043493D01*
X151187213Y-148941971D01*
X151187215Y-148941968D01*
X151187219Y-148941966D01*
X151331966Y-148797219D01*
X151331968Y-148797215D01*
X151331971Y-148797213D01*
X151415073Y-148682831D01*
X151452287Y-148631610D01*
X151545220Y-148449219D01*
X151608477Y-148254534D01*
X151640500Y-148052352D01*
X151640500Y-147847648D01*
X151623450Y-147740000D01*
X151608477Y-147645465D01*
X151597317Y-147611119D01*
X151595322Y-147541278D01*
X151631402Y-147481445D01*
X151694102Y-147450616D01*
X151715248Y-147448800D01*
X171425278Y-147448800D01*
X171492317Y-147468485D01*
G37*
%TD.AperFunction*%
%TA.AperFunction,Conductor*%
G36*
X148631791Y-147468485D02*
G01*
X148677546Y-147521289D01*
X148687490Y-147590447D01*
X148682683Y-147611119D01*
X148671522Y-147645465D01*
X148639500Y-147847648D01*
X148639500Y-148052351D01*
X148671522Y-148254534D01*
X148734781Y-148449223D01*
X148796731Y-148570805D01*
X148824439Y-148625185D01*
X148827715Y-148631613D01*
X148948028Y-148797213D01*
X149092786Y-148941971D01*
X149232522Y-149043493D01*
X149258390Y-149062287D01*
X149349840Y-149108883D01*
X149351080Y-149109515D01*
X149401876Y-149157490D01*
X149418671Y-149225311D01*
X149396134Y-149291446D01*
X149351080Y-149330485D01*
X149258386Y-149377715D01*
X149092786Y-149498028D01*
X148948028Y-149642786D01*
X148827715Y-149808385D01*
X148820883Y-149821795D01*
X148772909Y-149872591D01*
X148710398Y-149889500D01*
X148370898Y-149889500D01*
X148303859Y-149869815D01*
X148283217Y-149853181D01*
X147419990Y-148989955D01*
X147419988Y-148989952D01*
X147301117Y-148871081D01*
X147301116Y-148871080D01*
X147214304Y-148820960D01*
X147214304Y-148820959D01*
X147214300Y-148820958D01*
X147164185Y-148792023D01*
X147011457Y-148751099D01*
X146853343Y-148751099D01*
X146845747Y-148751099D01*
X146845731Y-148751100D01*
X146336289Y-148751100D01*
X146269250Y-148731415D01*
X146223495Y-148678611D01*
X146213551Y-148609453D01*
X146223907Y-148574695D01*
X146273429Y-148468492D01*
X146273432Y-148468486D01*
X146330636Y-148255000D01*
X145433012Y-148255000D01*
X145465925Y-148197993D01*
X145500000Y-148070826D01*
X145500000Y-147939174D01*
X145465925Y-147812007D01*
X145433012Y-147755000D01*
X146330636Y-147755000D01*
X146330635Y-147754999D01*
X146290415Y-147604894D01*
X146292078Y-147535044D01*
X146331240Y-147477181D01*
X146395469Y-147449677D01*
X146410190Y-147448800D01*
X148564752Y-147448800D01*
X148631791Y-147468485D01*
G37*
%TD.AperFunction*%
%TA.AperFunction,Conductor*%
G36*
X138505314Y-147468485D02*
G01*
X138551069Y-147521289D01*
X138561013Y-147590447D01*
X138556206Y-147611119D01*
X138532009Y-147685588D01*
X138523391Y-147740000D01*
X139566988Y-147740000D01*
X139534075Y-147797007D01*
X139500000Y-147924174D01*
X139500000Y-148055826D01*
X139534075Y-148182993D01*
X139566988Y-148240000D01*
X138523391Y-148240000D01*
X138532009Y-148294413D01*
X138595244Y-148489029D01*
X138636911Y-148570805D01*
X138649807Y-148639474D01*
X138623531Y-148704215D01*
X138566424Y-148744472D01*
X138526426Y-148751100D01*
X118614135Y-148751100D01*
X118547096Y-148731415D01*
X118501341Y-148678611D01*
X118491397Y-148609453D01*
X118503650Y-148570805D01*
X118545218Y-148489223D01*
X118545218Y-148489222D01*
X118545220Y-148489219D01*
X118608477Y-148294534D01*
X118640500Y-148092352D01*
X118640500Y-147887648D01*
X118634165Y-147847648D01*
X118608477Y-147685465D01*
X118591775Y-147634063D01*
X118584319Y-147611118D01*
X118582325Y-147541278D01*
X118618405Y-147481445D01*
X118681106Y-147450616D01*
X118702251Y-147448800D01*
X138438275Y-147448800D01*
X138505314Y-147468485D01*
G37*
%TD.AperFunction*%
%TA.AperFunction,Conductor*%
G36*
X143656849Y-147468485D02*
G01*
X143702604Y-147521289D01*
X143712548Y-147590447D01*
X143709585Y-147604894D01*
X143669364Y-147754999D01*
X143669364Y-147755000D01*
X144566988Y-147755000D01*
X144534075Y-147812007D01*
X144500000Y-147939174D01*
X144500000Y-148070826D01*
X144534075Y-148197993D01*
X144566988Y-148255000D01*
X143669364Y-148255000D01*
X143726567Y-148468486D01*
X143726570Y-148468492D01*
X143776093Y-148574695D01*
X143786585Y-148643773D01*
X143758065Y-148707557D01*
X143699589Y-148745796D01*
X143663711Y-148751100D01*
X141473574Y-148751100D01*
X141406535Y-148731415D01*
X141360780Y-148678611D01*
X141350836Y-148609453D01*
X141363089Y-148570805D01*
X141404755Y-148489029D01*
X141467990Y-148294413D01*
X141476609Y-148240000D01*
X140433012Y-148240000D01*
X140465925Y-148182993D01*
X140500000Y-148055826D01*
X140500000Y-147924174D01*
X140465925Y-147797007D01*
X140433012Y-147740000D01*
X141476609Y-147740000D01*
X141467990Y-147685588D01*
X141443794Y-147611119D01*
X141441799Y-147541278D01*
X141477879Y-147481445D01*
X141540580Y-147450616D01*
X141561725Y-147448800D01*
X143589810Y-147448800D01*
X143656849Y-147468485D01*
G37*
%TD.AperFunction*%
%TA.AperFunction,Conductor*%
G36*
X148751604Y-107011885D02*
G01*
X148797359Y-107064689D01*
X148807303Y-107133847D01*
X148795050Y-107172495D01*
X148734781Y-107290776D01*
X148671522Y-107485465D01*
X148639500Y-107687648D01*
X148639500Y-107892351D01*
X148671522Y-108094534D01*
X148734781Y-108289223D01*
X148827715Y-108471613D01*
X148948028Y-108637213D01*
X149092786Y-108781971D01*
X149247749Y-108894556D01*
X149258390Y-108902287D01*
X149349840Y-108948883D01*
X149351080Y-108949515D01*
X149401876Y-108997490D01*
X149418671Y-109065311D01*
X149396134Y-109131446D01*
X149351080Y-109170485D01*
X149258386Y-109217715D01*
X149092786Y-109338028D01*
X148948028Y-109482786D01*
X148827715Y-109648386D01*
X148734781Y-109830776D01*
X148671522Y-110025465D01*
X148639500Y-110227648D01*
X148639500Y-110432351D01*
X148671522Y-110634534D01*
X148734781Y-110829223D01*
X148827715Y-111011613D01*
X148887510Y-111093915D01*
X148910990Y-111159721D01*
X148895164Y-111227775D01*
X148845058Y-111276470D01*
X148787192Y-111290800D01*
X141381870Y-111290800D01*
X141314831Y-111271115D01*
X141269076Y-111218311D01*
X141259132Y-111149153D01*
X141281551Y-111093916D01*
X141300315Y-111068087D01*
X141312287Y-111051610D01*
X141405220Y-110869219D01*
X141468477Y-110674534D01*
X141500500Y-110472352D01*
X141500500Y-110267648D01*
X141468477Y-110065466D01*
X141405220Y-109870781D01*
X141405218Y-109870778D01*
X141405218Y-109870776D01*
X141354084Y-109770421D01*
X141312287Y-109688390D01*
X141283222Y-109648385D01*
X141191971Y-109522786D01*
X141047213Y-109378028D01*
X140881611Y-109257713D01*
X140788369Y-109210203D01*
X140737574Y-109162229D01*
X140720779Y-109094407D01*
X140743317Y-109028273D01*
X140788371Y-108989234D01*
X140881347Y-108941861D01*
X141046894Y-108821582D01*
X141046895Y-108821582D01*
X141191582Y-108676895D01*
X141191582Y-108676894D01*
X141311859Y-108511349D01*
X141404755Y-108329029D01*
X141467990Y-108134413D01*
X141476609Y-108080000D01*
X140433012Y-108080000D01*
X140465925Y-108022993D01*
X140500000Y-107895826D01*
X140500000Y-107764174D01*
X140465925Y-107637007D01*
X140433012Y-107580000D01*
X141476609Y-107580000D01*
X141467990Y-107525586D01*
X141404755Y-107330970D01*
X141324009Y-107172495D01*
X141311113Y-107103825D01*
X141337390Y-107039085D01*
X141394496Y-106998828D01*
X141434494Y-106992200D01*
X148684565Y-106992200D01*
X148751604Y-107011885D01*
G37*
%TD.AperFunction*%
%TA.AperFunction,Conductor*%
G36*
X171543286Y-108258960D02*
G01*
X171599219Y-108300832D01*
X171610437Y-108318847D01*
X171688140Y-108471349D01*
X171808417Y-108636894D01*
X171808417Y-108636895D01*
X171953104Y-108781582D01*
X172118652Y-108901861D01*
X172211628Y-108949234D01*
X172262425Y-108997208D01*
X172279220Y-109065029D01*
X172256683Y-109131164D01*
X172211630Y-109170203D01*
X172118388Y-109217713D01*
X171952786Y-109338028D01*
X171808028Y-109482786D01*
X171687712Y-109648389D01*
X171687710Y-109648392D01*
X171675739Y-109671887D01*
X171627764Y-109722682D01*
X171597351Y-109735364D01*
X171466520Y-109770421D01*
X171466509Y-109770426D01*
X171329590Y-109849475D01*
X171329582Y-109849481D01*
X169924584Y-111254481D01*
X169863261Y-111287966D01*
X169836903Y-111290800D01*
X151492808Y-111290800D01*
X151425769Y-111271115D01*
X151380014Y-111218311D01*
X151370070Y-111149153D01*
X151392490Y-111093915D01*
X151452284Y-111011614D01*
X151452285Y-111011613D01*
X151452287Y-111011610D01*
X151459117Y-110998204D01*
X151507091Y-110947409D01*
X151569602Y-110930500D01*
X168433831Y-110930500D01*
X168433847Y-110930501D01*
X168441443Y-110930501D01*
X168599554Y-110930501D01*
X168599557Y-110930501D01*
X168752285Y-110889577D01*
X168831375Y-110843914D01*
X168889216Y-110810520D01*
X169001020Y-110698716D01*
X169001020Y-110698714D01*
X169011224Y-110688511D01*
X169011227Y-110688506D01*
X171412276Y-108287457D01*
X171473594Y-108253976D01*
X171543286Y-108258960D01*
G37*
%TD.AperFunction*%
%TA.AperFunction,Conductor*%
G36*
X179695031Y-90520185D02*
G01*
X179740786Y-90572989D01*
X179750730Y-90642147D01*
X179740374Y-90676905D01*
X179726569Y-90706507D01*
X179726567Y-90706513D01*
X179669364Y-90919999D01*
X179669364Y-90920000D01*
X180566988Y-90920000D01*
X180534075Y-90977007D01*
X180500000Y-91104174D01*
X180500000Y-91235826D01*
X180534075Y-91362993D01*
X180566988Y-91420000D01*
X179669364Y-91420000D01*
X179726567Y-91633486D01*
X179726569Y-91633492D01*
X179740374Y-91663095D01*
X179750866Y-91732172D01*
X179722347Y-91795956D01*
X179663870Y-91834196D01*
X179627992Y-91839500D01*
X178963342Y-91839500D01*
X178810614Y-91880423D01*
X178786395Y-91894406D01*
X178762175Y-91908390D01*
X178762174Y-91908390D01*
X178673690Y-91959475D01*
X178673682Y-91959481D01*
X178615762Y-92017402D01*
X178561880Y-92071284D01*
X178561878Y-92071286D01*
X176639367Y-93993798D01*
X174741684Y-95891481D01*
X174680361Y-95924966D01*
X174654003Y-95927800D01*
X174435054Y-95927800D01*
X174368015Y-95908115D01*
X174322260Y-95855311D01*
X174312316Y-95786153D01*
X174324569Y-95747505D01*
X174405218Y-95589223D01*
X174405218Y-95589222D01*
X174405220Y-95589219D01*
X174468477Y-95394534D01*
X174500500Y-95192352D01*
X174500500Y-94987648D01*
X174485849Y-94895145D01*
X174468477Y-94785465D01*
X174453612Y-94739718D01*
X174413178Y-94615276D01*
X174411184Y-94545438D01*
X174447264Y-94485605D01*
X174469109Y-94469574D01*
X174470416Y-94468820D01*
X174582220Y-94357016D01*
X174582220Y-94357014D01*
X174592428Y-94346807D01*
X174592429Y-94346804D01*
X178402416Y-90536819D01*
X178463739Y-90503334D01*
X178490097Y-90500500D01*
X179627992Y-90500500D01*
X179695031Y-90520185D01*
G37*
%TD.AperFunction*%
%TA.AperFunction,Conductor*%
G36*
X181250000Y-95816988D02*
G01*
X181192993Y-95784075D01*
X181065826Y-95750000D01*
X180934174Y-95750000D01*
X180807007Y-95784075D01*
X180750000Y-95816988D01*
X180750000Y-94143012D01*
X180807007Y-94175925D01*
X180934174Y-94210000D01*
X181065826Y-94210000D01*
X181192993Y-94175925D01*
X181250000Y-94143012D01*
X181250000Y-95816988D01*
G37*
%TD.AperFunction*%
%TA.AperFunction,Conductor*%
G36*
X181193039Y-93060185D02*
G01*
X181238794Y-93112989D01*
X181250000Y-93164500D01*
X181250000Y-93276988D01*
X181192993Y-93244075D01*
X181065826Y-93210000D01*
X180934174Y-93210000D01*
X180807007Y-93244075D01*
X180750000Y-93276988D01*
X180750000Y-93164500D01*
X180769685Y-93097461D01*
X180822489Y-93051706D01*
X180874000Y-93040500D01*
X181126000Y-93040500D01*
X181193039Y-93060185D01*
G37*
%TD.AperFunction*%
%TA.AperFunction,Conductor*%
G36*
X179569334Y-85430714D02*
G01*
X179625267Y-85472586D01*
X179649684Y-85538050D01*
X179650000Y-85546896D01*
X179650000Y-85840000D01*
X180566988Y-85840000D01*
X180534075Y-85897007D01*
X180500000Y-86024174D01*
X180500000Y-86155826D01*
X180534075Y-86282993D01*
X180566988Y-86340000D01*
X179650000Y-86340000D01*
X179650000Y-86987844D01*
X179656401Y-87047372D01*
X179656403Y-87047379D01*
X179706645Y-87182086D01*
X179706649Y-87182093D01*
X179792809Y-87297187D01*
X179792812Y-87297190D01*
X179907906Y-87383350D01*
X179907913Y-87383354D01*
X180039986Y-87432614D01*
X180095920Y-87474485D01*
X180120337Y-87539949D01*
X180105486Y-87608222D01*
X180084335Y-87636477D01*
X179961886Y-87758926D01*
X179826400Y-87952420D01*
X179826399Y-87952422D01*
X179726570Y-88166507D01*
X179726567Y-88166513D01*
X179669364Y-88379999D01*
X179669364Y-88380000D01*
X180566988Y-88380000D01*
X180534075Y-88437007D01*
X180500000Y-88564174D01*
X180500000Y-88695826D01*
X180534075Y-88822993D01*
X180566988Y-88880000D01*
X179669364Y-88880000D01*
X179726567Y-89093486D01*
X179726569Y-89093492D01*
X179740374Y-89123095D01*
X179750866Y-89192172D01*
X179722347Y-89255956D01*
X179663870Y-89294196D01*
X179627992Y-89299500D01*
X178269057Y-89299500D01*
X178110942Y-89299500D01*
X177958215Y-89340423D01*
X177958214Y-89340423D01*
X177958212Y-89340424D01*
X177958209Y-89340425D01*
X177908096Y-89369359D01*
X177908095Y-89369360D01*
X177864689Y-89394420D01*
X177821285Y-89419479D01*
X177821282Y-89419481D01*
X177709478Y-89531286D01*
X174712044Y-92528719D01*
X174650721Y-92562204D01*
X174581029Y-92557220D01*
X174525096Y-92515348D01*
X174501376Y-92452441D01*
X174501262Y-92452460D01*
X174501174Y-92451907D01*
X174500746Y-92450771D01*
X174500500Y-92447651D01*
X174468477Y-92245465D01*
X174418215Y-92090776D01*
X174405220Y-92050781D01*
X174405218Y-92050778D01*
X174405218Y-92050776D01*
X174358697Y-91959475D01*
X174312287Y-91868390D01*
X174298054Y-91848800D01*
X174191971Y-91702786D01*
X174047213Y-91558028D01*
X173881614Y-91437715D01*
X173754260Y-91372825D01*
X173703464Y-91324850D01*
X173686669Y-91257029D01*
X173709206Y-91190894D01*
X173722868Y-91174665D01*
X179438319Y-85459215D01*
X179499642Y-85425730D01*
X179569334Y-85430714D01*
G37*
%TD.AperFunction*%
%TA.AperFunction,Conductor*%
G36*
X181250000Y-91715500D02*
G01*
X181230315Y-91782539D01*
X181177511Y-91828294D01*
X181126000Y-91839500D01*
X180874000Y-91839500D01*
X180806961Y-91819815D01*
X180761206Y-91767011D01*
X180750000Y-91715500D01*
X180750000Y-91603012D01*
X180807007Y-91635925D01*
X180934174Y-91670000D01*
X181065826Y-91670000D01*
X181192993Y-91635925D01*
X181250000Y-91603012D01*
X181250000Y-91715500D01*
G37*
%TD.AperFunction*%
%TA.AperFunction,Conductor*%
G36*
X181193039Y-90520185D02*
G01*
X181238794Y-90572989D01*
X181250000Y-90624500D01*
X181250000Y-90736988D01*
X181192993Y-90704075D01*
X181065826Y-90670000D01*
X180934174Y-90670000D01*
X180807007Y-90704075D01*
X180750000Y-90736988D01*
X180750000Y-90624500D01*
X180769685Y-90557461D01*
X180822489Y-90511706D01*
X180874000Y-90500500D01*
X181126000Y-90500500D01*
X181193039Y-90520185D01*
G37*
%TD.AperFunction*%
%TA.AperFunction,Conductor*%
G36*
X181250000Y-89133201D02*
G01*
X181230315Y-89200240D01*
X181213682Y-89220881D01*
X181171384Y-89263180D01*
X181110062Y-89296666D01*
X181083702Y-89299500D01*
X180874000Y-89299500D01*
X180806961Y-89279815D01*
X180761206Y-89227011D01*
X180750000Y-89175500D01*
X180750000Y-89063012D01*
X180807007Y-89095925D01*
X180934174Y-89130000D01*
X181065826Y-89130000D01*
X181192993Y-89095925D01*
X181250000Y-89063012D01*
X181250000Y-89133201D01*
G37*
%TD.AperFunction*%
%TA.AperFunction,Conductor*%
G36*
X181250000Y-88196988D02*
G01*
X181192993Y-88164075D01*
X181065826Y-88130000D01*
X180934174Y-88130000D01*
X180807007Y-88164075D01*
X180750000Y-88196988D01*
X180750000Y-86523012D01*
X180807007Y-86555925D01*
X180934174Y-86590000D01*
X181065826Y-86590000D01*
X181192993Y-86555925D01*
X181250000Y-86523012D01*
X181250000Y-88196988D01*
G37*
%TD.AperFunction*%
%TA.AperFunction,Conductor*%
G36*
X200942539Y-63020185D02*
G01*
X200988294Y-63072989D01*
X200999500Y-63124500D01*
X200999500Y-160875500D01*
X200979815Y-160942539D01*
X200927011Y-160988294D01*
X200875500Y-160999500D01*
X103124500Y-160999500D01*
X103057461Y-160979815D01*
X103011706Y-160927011D01*
X103000500Y-160875500D01*
X103000500Y-135304999D01*
X110644341Y-135304999D01*
X110644341Y-135305000D01*
X110664936Y-135540403D01*
X110664938Y-135540413D01*
X110726094Y-135768655D01*
X110726096Y-135768659D01*
X110726097Y-135768663D01*
X110798839Y-135924658D01*
X110825965Y-135982830D01*
X110825967Y-135982834D01*
X110961501Y-136176395D01*
X110961506Y-136176402D01*
X111128597Y-136343493D01*
X111128603Y-136343498D01*
X111314158Y-136473425D01*
X111357783Y-136528002D01*
X111364977Y-136597500D01*
X111333454Y-136659855D01*
X111314158Y-136676575D01*
X111128597Y-136806505D01*
X110961505Y-136973597D01*
X110825965Y-137167169D01*
X110825964Y-137167171D01*
X110726098Y-137381335D01*
X110726094Y-137381344D01*
X110664938Y-137609586D01*
X110664936Y-137609596D01*
X110644341Y-137844999D01*
X110644341Y-137845000D01*
X110664936Y-138080403D01*
X110664938Y-138080413D01*
X110726094Y-138308655D01*
X110726096Y-138308659D01*
X110726097Y-138308663D01*
X110795112Y-138456666D01*
X110825965Y-138522830D01*
X110825967Y-138522834D01*
X110961501Y-138716395D01*
X110961506Y-138716402D01*
X111128597Y-138883493D01*
X111128603Y-138883498D01*
X111314158Y-139013425D01*
X111357783Y-139068002D01*
X111364977Y-139137500D01*
X111333454Y-139199855D01*
X111314158Y-139216575D01*
X111128597Y-139346505D01*
X110961505Y-139513597D01*
X110825965Y-139707169D01*
X110825964Y-139707171D01*
X110726098Y-139921335D01*
X110726094Y-139921344D01*
X110664938Y-140149586D01*
X110664936Y-140149596D01*
X110644341Y-140384999D01*
X110644341Y-140385000D01*
X110664936Y-140620403D01*
X110664938Y-140620413D01*
X110726094Y-140848655D01*
X110726096Y-140848659D01*
X110726097Y-140848663D01*
X110796667Y-141000000D01*
X110825965Y-141062830D01*
X110825967Y-141062834D01*
X110961501Y-141256395D01*
X110961506Y-141256402D01*
X111128597Y-141423493D01*
X111128603Y-141423498D01*
X111314158Y-141553425D01*
X111357783Y-141608002D01*
X111364977Y-141677500D01*
X111333454Y-141739855D01*
X111314158Y-141756575D01*
X111128597Y-141886505D01*
X110961505Y-142053597D01*
X110825965Y-142247169D01*
X110825964Y-142247171D01*
X110759369Y-142389985D01*
X110728333Y-142456543D01*
X110726098Y-142461335D01*
X110726094Y-142461344D01*
X110664938Y-142689586D01*
X110664936Y-142689596D01*
X110644341Y-142924999D01*
X110644341Y-142925000D01*
X110664936Y-143160403D01*
X110664938Y-143160413D01*
X110726094Y-143388655D01*
X110726096Y-143388659D01*
X110726097Y-143388663D01*
X110789906Y-143525501D01*
X110825965Y-143602830D01*
X110825967Y-143602834D01*
X110961501Y-143796395D01*
X110961506Y-143796402D01*
X111128597Y-143963493D01*
X111128603Y-143963498D01*
X111314158Y-144093425D01*
X111357783Y-144148002D01*
X111364977Y-144217500D01*
X111333454Y-144279855D01*
X111314158Y-144296575D01*
X111128597Y-144426505D01*
X110961505Y-144593597D01*
X110825965Y-144787169D01*
X110825964Y-144787171D01*
X110726098Y-145001335D01*
X110726094Y-145001344D01*
X110664938Y-145229586D01*
X110664936Y-145229596D01*
X110644341Y-145464999D01*
X110644341Y-145465000D01*
X110664936Y-145700403D01*
X110664938Y-145700413D01*
X110726094Y-145928655D01*
X110726096Y-145928659D01*
X110726097Y-145928663D01*
X110789906Y-146065501D01*
X110825965Y-146142830D01*
X110825967Y-146142834D01*
X110961501Y-146336395D01*
X110961506Y-146336402D01*
X111128597Y-146503493D01*
X111128603Y-146503498D01*
X111314158Y-146633425D01*
X111357783Y-146688002D01*
X111364977Y-146757500D01*
X111333454Y-146819855D01*
X111314158Y-146836575D01*
X111128597Y-146966505D01*
X110961505Y-147133597D01*
X110825965Y-147327169D01*
X110825964Y-147327171D01*
X110754025Y-147481445D01*
X110729032Y-147535044D01*
X110726098Y-147541335D01*
X110726094Y-147541344D01*
X110664938Y-147769586D01*
X110664936Y-147769596D01*
X110644341Y-148004999D01*
X110644341Y-148005000D01*
X110664936Y-148240403D01*
X110664938Y-148240413D01*
X110726094Y-148468655D01*
X110726096Y-148468659D01*
X110726097Y-148468663D01*
X110789906Y-148605501D01*
X110825965Y-148682830D01*
X110825967Y-148682834D01*
X110905834Y-148796895D01*
X110957778Y-148871079D01*
X110961501Y-148876395D01*
X110961506Y-148876402D01*
X111128597Y-149043493D01*
X111128603Y-149043498D01*
X111314158Y-149173425D01*
X111357783Y-149228002D01*
X111364977Y-149297500D01*
X111333454Y-149359855D01*
X111314158Y-149376575D01*
X111128597Y-149506505D01*
X110961505Y-149673597D01*
X110825965Y-149867169D01*
X110825964Y-149867171D01*
X110726098Y-150081335D01*
X110726094Y-150081344D01*
X110664938Y-150309586D01*
X110664936Y-150309596D01*
X110644341Y-150544999D01*
X110644341Y-150545000D01*
X110664936Y-150780403D01*
X110664938Y-150780413D01*
X110726094Y-151008655D01*
X110726096Y-151008659D01*
X110726097Y-151008663D01*
X110789906Y-151145501D01*
X110825965Y-151222830D01*
X110825967Y-151222834D01*
X110905754Y-151336780D01*
X110961505Y-151416401D01*
X111128599Y-151583495D01*
X111155437Y-151602287D01*
X111322165Y-151719032D01*
X111322167Y-151719033D01*
X111322170Y-151719035D01*
X111536337Y-151818903D01*
X111536343Y-151818904D01*
X111536344Y-151818905D01*
X111553441Y-151823486D01*
X111764592Y-151880063D01*
X111952918Y-151896539D01*
X111999999Y-151900659D01*
X112000000Y-151900659D01*
X112000001Y-151900659D01*
X112039234Y-151897226D01*
X112235408Y-151880063D01*
X112463663Y-151818903D01*
X112677830Y-151719035D01*
X112871401Y-151583495D01*
X113038495Y-151416401D01*
X113174035Y-151222830D01*
X113176707Y-151217097D01*
X113222878Y-151164658D01*
X113289091Y-151145500D01*
X115718041Y-151145500D01*
X115785080Y-151165185D01*
X115823984Y-151208181D01*
X115825168Y-151207457D01*
X115827706Y-151211600D01*
X115827712Y-151211608D01*
X115827713Y-151211610D01*
X115918654Y-151336780D01*
X115948034Y-151377219D01*
X116092786Y-151521971D01*
X116203330Y-151602284D01*
X116258390Y-151642287D01*
X116362275Y-151695219D01*
X116440776Y-151735218D01*
X116440778Y-151735218D01*
X116440781Y-151735220D01*
X116522103Y-151761643D01*
X116635465Y-151798477D01*
X116736557Y-151814488D01*
X116837648Y-151830500D01*
X116837649Y-151830500D01*
X117442351Y-151830500D01*
X117442352Y-151830500D01*
X117644534Y-151798477D01*
X117839219Y-151735220D01*
X118021610Y-151642287D01*
X118114590Y-151574732D01*
X118187213Y-151521971D01*
X118187215Y-151521968D01*
X118187219Y-151521966D01*
X118331966Y-151377219D01*
X118331968Y-151377215D01*
X118331971Y-151377213D01*
X118384732Y-151304590D01*
X118452287Y-151211610D01*
X118545220Y-151029219D01*
X118608477Y-150834534D01*
X118640500Y-150632352D01*
X118640500Y-150427648D01*
X118621802Y-150309596D01*
X118608477Y-150225465D01*
X118592497Y-150176284D01*
X118572394Y-150114416D01*
X118570400Y-150044578D01*
X118606480Y-149984745D01*
X118669180Y-149953916D01*
X118690326Y-149952100D01*
X138449674Y-149952100D01*
X138516713Y-149971785D01*
X138562468Y-150024589D01*
X138572412Y-150093747D01*
X138567606Y-150114412D01*
X138555884Y-150150488D01*
X138531522Y-150225465D01*
X138499500Y-150427648D01*
X138499500Y-150632351D01*
X138531522Y-150834534D01*
X138594781Y-151029223D01*
X138654028Y-151145500D01*
X138686007Y-151208262D01*
X138687715Y-151211613D01*
X138808028Y-151377213D01*
X138952786Y-151521971D01*
X139063330Y-151602284D01*
X139118390Y-151642287D01*
X139222275Y-151695219D01*
X139300776Y-151735218D01*
X139300778Y-151735218D01*
X139300781Y-151735220D01*
X139382103Y-151761643D01*
X139495465Y-151798477D01*
X139596557Y-151814488D01*
X139697648Y-151830500D01*
X139697649Y-151830500D01*
X140302351Y-151830500D01*
X140302352Y-151830500D01*
X140504534Y-151798477D01*
X140699219Y-151735220D01*
X140881610Y-151642287D01*
X140974590Y-151574732D01*
X141047213Y-151521971D01*
X141047215Y-151521968D01*
X141047219Y-151521966D01*
X141191966Y-151377219D01*
X141191968Y-151377215D01*
X141191971Y-151377213D01*
X141312287Y-151211610D01*
X141314832Y-151207458D01*
X141316144Y-151208262D01*
X141359444Y-151162412D01*
X141421959Y-151145500D01*
X143710909Y-151145500D01*
X143777948Y-151165185D01*
X143823292Y-151217097D01*
X143825965Y-151222830D01*
X143961505Y-151416401D01*
X144128599Y-151583495D01*
X144155437Y-151602287D01*
X144322165Y-151719032D01*
X144322167Y-151719033D01*
X144322170Y-151719035D01*
X144536337Y-151818903D01*
X144536343Y-151818904D01*
X144536344Y-151818905D01*
X144553441Y-151823486D01*
X144764592Y-151880063D01*
X144952918Y-151896539D01*
X144999999Y-151900659D01*
X145000000Y-151900659D01*
X145000001Y-151900659D01*
X145039234Y-151897226D01*
X145235408Y-151880063D01*
X145463663Y-151818903D01*
X145677830Y-151719035D01*
X145871401Y-151583495D01*
X146018502Y-151436393D01*
X146079822Y-151402911D01*
X146149513Y-151407895D01*
X146193861Y-151436396D01*
X146713539Y-151956074D01*
X146713549Y-151956085D01*
X146717879Y-151960415D01*
X146717880Y-151960416D01*
X146829684Y-152072220D01*
X146829686Y-152072221D01*
X146829690Y-152072224D01*
X146966609Y-152151273D01*
X146966616Y-152151277D01*
X147078419Y-152181234D01*
X147119342Y-152192200D01*
X147119343Y-152192200D01*
X147119344Y-152192200D01*
X173079055Y-152192200D01*
X173079057Y-152192200D01*
X173231784Y-152151277D01*
X173368716Y-152072220D01*
X173480520Y-151960416D01*
X173559577Y-151823484D01*
X173566480Y-151797720D01*
X173602843Y-151738061D01*
X173647936Y-151711882D01*
X173699219Y-151695220D01*
X173881610Y-151602287D01*
X173974590Y-151534732D01*
X174047213Y-151481971D01*
X174047215Y-151481968D01*
X174047219Y-151481966D01*
X174191966Y-151337219D01*
X174191968Y-151337215D01*
X174191971Y-151337213D01*
X174275073Y-151222831D01*
X174312287Y-151171610D01*
X174399729Y-150999995D01*
X192244592Y-150999995D01*
X192244592Y-151000004D01*
X192264196Y-151261620D01*
X192264197Y-151261625D01*
X192322576Y-151517402D01*
X192322578Y-151517411D01*
X192322580Y-151517416D01*
X192418432Y-151761643D01*
X192549614Y-151988857D01*
X192679139Y-152151276D01*
X192713198Y-152193985D01*
X192894753Y-152362441D01*
X192905521Y-152372433D01*
X193122296Y-152520228D01*
X193122301Y-152520230D01*
X193122302Y-152520231D01*
X193122303Y-152520232D01*
X193247843Y-152580688D01*
X193358673Y-152634061D01*
X193358674Y-152634061D01*
X193358677Y-152634063D01*
X193609385Y-152711396D01*
X193868818Y-152750500D01*
X194131182Y-152750500D01*
X194390615Y-152711396D01*
X194641323Y-152634063D01*
X194877704Y-152520228D01*
X195094479Y-152372433D01*
X195286805Y-152193981D01*
X195450386Y-151988857D01*
X195581568Y-151761643D01*
X195677420Y-151517416D01*
X195735802Y-151261630D01*
X195735803Y-151261620D01*
X195755408Y-151000004D01*
X195755408Y-150999995D01*
X195735803Y-150738379D01*
X195735802Y-150738374D01*
X195735802Y-150738370D01*
X195677420Y-150482584D01*
X195581568Y-150238357D01*
X195450386Y-150011143D01*
X195286805Y-149806019D01*
X195286804Y-149806018D01*
X195286801Y-149806014D01*
X195094479Y-149627567D01*
X194963158Y-149538034D01*
X194877704Y-149479772D01*
X194877700Y-149479770D01*
X194877697Y-149479768D01*
X194877696Y-149479767D01*
X194641325Y-149365938D01*
X194641327Y-149365938D01*
X194390623Y-149288606D01*
X194390619Y-149288605D01*
X194390615Y-149288604D01*
X194265823Y-149269794D01*
X194131187Y-149249500D01*
X194131182Y-149249500D01*
X193868818Y-149249500D01*
X193868812Y-149249500D01*
X193707247Y-149273853D01*
X193609385Y-149288604D01*
X193609382Y-149288605D01*
X193609376Y-149288606D01*
X193358673Y-149365938D01*
X193122303Y-149479767D01*
X193122302Y-149479768D01*
X192905520Y-149627567D01*
X192713198Y-149806014D01*
X192549614Y-150011143D01*
X192418432Y-150238356D01*
X192322582Y-150482578D01*
X192322576Y-150482597D01*
X192264197Y-150738374D01*
X192264196Y-150738379D01*
X192244592Y-150999995D01*
X174399729Y-150999995D01*
X174405220Y-150989219D01*
X174468477Y-150794534D01*
X174500500Y-150592352D01*
X174500500Y-150387648D01*
X174476854Y-150238356D01*
X174468477Y-150185465D01*
X174411836Y-150011143D01*
X174405220Y-149990781D01*
X174405218Y-149990778D01*
X174405218Y-149990776D01*
X174370523Y-149922684D01*
X174312287Y-149808390D01*
X174304556Y-149797749D01*
X174191971Y-149642786D01*
X174047213Y-149498028D01*
X173881611Y-149377713D01*
X173788369Y-149330203D01*
X173737574Y-149282229D01*
X173720779Y-149214407D01*
X173743317Y-149148273D01*
X173788371Y-149109234D01*
X173881347Y-149061861D01*
X174046894Y-148941582D01*
X174046895Y-148941582D01*
X174191582Y-148796895D01*
X174191582Y-148796894D01*
X174311859Y-148631349D01*
X174404755Y-148449029D01*
X174467990Y-148254413D01*
X174476609Y-148200000D01*
X173433012Y-148200000D01*
X173465925Y-148142993D01*
X173500000Y-148015826D01*
X173500000Y-147884174D01*
X173465925Y-147757007D01*
X173433012Y-147700000D01*
X174476609Y-147700000D01*
X174467991Y-147645588D01*
X174456791Y-147611119D01*
X174454796Y-147541278D01*
X174490876Y-147481445D01*
X174553576Y-147450616D01*
X174574722Y-147448800D01*
X192979282Y-147448800D01*
X193046321Y-147468485D01*
X193049099Y-147470323D01*
X193122296Y-147520228D01*
X193122301Y-147520230D01*
X193122302Y-147520231D01*
X193122303Y-147520232D01*
X193247843Y-147580688D01*
X193358673Y-147634061D01*
X193358674Y-147634061D01*
X193358677Y-147634063D01*
X193609385Y-147711396D01*
X193868818Y-147750500D01*
X194131182Y-147750500D01*
X194390615Y-147711396D01*
X194641323Y-147634063D01*
X194877704Y-147520228D01*
X195094479Y-147372433D01*
X195286805Y-147193981D01*
X195450386Y-146988857D01*
X195581568Y-146761643D01*
X195677420Y-146517416D01*
X195735802Y-146261630D01*
X195735803Y-146261620D01*
X195755408Y-146000004D01*
X195755408Y-145999995D01*
X195735803Y-145738379D01*
X195735802Y-145738374D01*
X195735802Y-145738370D01*
X195677420Y-145482584D01*
X195581568Y-145238357D01*
X195450386Y-145011143D01*
X195286805Y-144806019D01*
X195286804Y-144806018D01*
X195286801Y-144806014D01*
X195094479Y-144627567D01*
X195044654Y-144593597D01*
X194877704Y-144479772D01*
X194877700Y-144479770D01*
X194877697Y-144479768D01*
X194877696Y-144479767D01*
X194641325Y-144365938D01*
X194641327Y-144365938D01*
X194390623Y-144288606D01*
X194390619Y-144288605D01*
X194390615Y-144288604D01*
X194265823Y-144269794D01*
X194131187Y-144249500D01*
X194131182Y-144249500D01*
X193868818Y-144249500D01*
X193868812Y-144249500D01*
X193707247Y-144273853D01*
X193609385Y-144288604D01*
X193609382Y-144288605D01*
X193609376Y-144288606D01*
X193358673Y-144365938D01*
X193122303Y-144479767D01*
X193122302Y-144479768D01*
X192905520Y-144627567D01*
X192713198Y-144806014D01*
X192549614Y-145011143D01*
X192418432Y-145238356D01*
X192322582Y-145482578D01*
X192322576Y-145482597D01*
X192264197Y-145738374D01*
X192264196Y-145738379D01*
X192244592Y-145999995D01*
X192244592Y-146000003D01*
X192253175Y-146114533D01*
X192238556Y-146182856D01*
X192189319Y-146232429D01*
X192129522Y-146247800D01*
X174435054Y-146247800D01*
X174368015Y-146228115D01*
X174322260Y-146175311D01*
X174312316Y-146106153D01*
X174324569Y-146067505D01*
X174405218Y-145909223D01*
X174405218Y-145909222D01*
X174405220Y-145909219D01*
X174468477Y-145714534D01*
X174500500Y-145512352D01*
X174500500Y-145307648D01*
X174488136Y-145229586D01*
X174468477Y-145105465D01*
X174457317Y-145071119D01*
X174455322Y-145001278D01*
X174491402Y-144941445D01*
X174554102Y-144910616D01*
X174575248Y-144908800D01*
X190605031Y-144908800D01*
X190605047Y-144908801D01*
X190612643Y-144908801D01*
X190770754Y-144908801D01*
X190770757Y-144908801D01*
X190923485Y-144867877D01*
X190993908Y-144827218D01*
X191060416Y-144788820D01*
X191172220Y-144677016D01*
X191172220Y-144677014D01*
X191182424Y-144666811D01*
X191182427Y-144666806D01*
X193199606Y-142649628D01*
X193260927Y-142616145D01*
X193330619Y-142621129D01*
X193341068Y-142625583D01*
X193358677Y-142634063D01*
X193609385Y-142711396D01*
X193868818Y-142750500D01*
X194131182Y-142750500D01*
X194390615Y-142711396D01*
X194641323Y-142634063D01*
X194877704Y-142520228D01*
X195094479Y-142372433D01*
X195286805Y-142193981D01*
X195450386Y-141988857D01*
X195581568Y-141761643D01*
X195677420Y-141517416D01*
X195735802Y-141261630D01*
X195736194Y-141256401D01*
X195755408Y-141000004D01*
X195755408Y-140999995D01*
X195735803Y-140738379D01*
X195735802Y-140738374D01*
X195735802Y-140738370D01*
X195677420Y-140482584D01*
X195581568Y-140238357D01*
X195450386Y-140011143D01*
X195286805Y-139806019D01*
X195286804Y-139806018D01*
X195286801Y-139806014D01*
X195094479Y-139627567D01*
X195040320Y-139590642D01*
X194877704Y-139479772D01*
X194877700Y-139479770D01*
X194877697Y-139479768D01*
X194877696Y-139479767D01*
X194641325Y-139365938D01*
X194641327Y-139365938D01*
X194390623Y-139288606D01*
X194390619Y-139288605D01*
X194390615Y-139288604D01*
X194265823Y-139269794D01*
X194131187Y-139249500D01*
X194131182Y-139249500D01*
X193868818Y-139249500D01*
X193868812Y-139249500D01*
X193707247Y-139273853D01*
X193609385Y-139288604D01*
X193609382Y-139288605D01*
X193609376Y-139288606D01*
X193358673Y-139365938D01*
X193122303Y-139479767D01*
X193122302Y-139479768D01*
X192905520Y-139627567D01*
X192713198Y-139806014D01*
X192549614Y-140011143D01*
X192418432Y-140238356D01*
X192322582Y-140482578D01*
X192322576Y-140482597D01*
X192264197Y-140738374D01*
X192264196Y-140738379D01*
X192244592Y-140999995D01*
X192244592Y-141000004D01*
X192264196Y-141261620D01*
X192264197Y-141261625D01*
X192322576Y-141517402D01*
X192322578Y-141517411D01*
X192322580Y-141517416D01*
X192376577Y-141655000D01*
X192380509Y-141665017D01*
X192386678Y-141734614D01*
X192354240Y-141796497D01*
X192352762Y-141798000D01*
X190479284Y-143671481D01*
X190417961Y-143704966D01*
X190391603Y-143707800D01*
X174435054Y-143707800D01*
X174368015Y-143688115D01*
X174322260Y-143635311D01*
X174312316Y-143566153D01*
X174324569Y-143527505D01*
X174405218Y-143369223D01*
X174405218Y-143369222D01*
X174405220Y-143369219D01*
X174468477Y-143174534D01*
X174500500Y-142972352D01*
X174500500Y-142767648D01*
X174488136Y-142689586D01*
X174468477Y-142565465D01*
X174457317Y-142531119D01*
X174455322Y-142461278D01*
X174491402Y-142401445D01*
X174554102Y-142370616D01*
X174575248Y-142368800D01*
X188145031Y-142368800D01*
X188145047Y-142368801D01*
X188152643Y-142368801D01*
X188310754Y-142368801D01*
X188310757Y-142368801D01*
X188463485Y-142327877D01*
X188533908Y-142287218D01*
X188600416Y-142248820D01*
X188712220Y-142137016D01*
X188712220Y-142137014D01*
X188722424Y-142126811D01*
X188722428Y-142126806D01*
X193199605Y-137649628D01*
X193260926Y-137616145D01*
X193330618Y-137621129D01*
X193341079Y-137625588D01*
X193358677Y-137634063D01*
X193609385Y-137711396D01*
X193868818Y-137750500D01*
X194131182Y-137750500D01*
X194390615Y-137711396D01*
X194641323Y-137634063D01*
X194877704Y-137520228D01*
X195094479Y-137372433D01*
X195253574Y-137224815D01*
X195286801Y-137193985D01*
X195286801Y-137193983D01*
X195286805Y-137193981D01*
X195450386Y-136988857D01*
X195581568Y-136761643D01*
X195677420Y-136517416D01*
X195735802Y-136261630D01*
X195742189Y-136176401D01*
X195755408Y-136000004D01*
X195755408Y-135999995D01*
X195735803Y-135738379D01*
X195735802Y-135738374D01*
X195735802Y-135738370D01*
X195677420Y-135482584D01*
X195581568Y-135238357D01*
X195450386Y-135011143D01*
X195286805Y-134806019D01*
X195286804Y-134806018D01*
X195286801Y-134806014D01*
X195094479Y-134627567D01*
X195093895Y-134627169D01*
X194877704Y-134479772D01*
X194877700Y-134479770D01*
X194877697Y-134479768D01*
X194877696Y-134479767D01*
X194641325Y-134365938D01*
X194641327Y-134365938D01*
X194390623Y-134288606D01*
X194390619Y-134288605D01*
X194390615Y-134288604D01*
X194244001Y-134266505D01*
X194131187Y-134249500D01*
X194131182Y-134249500D01*
X193868818Y-134249500D01*
X193868812Y-134249500D01*
X193707247Y-134273853D01*
X193609385Y-134288604D01*
X193609382Y-134288605D01*
X193609376Y-134288606D01*
X193358673Y-134365938D01*
X193122303Y-134479767D01*
X193122302Y-134479768D01*
X192905520Y-134627567D01*
X192713198Y-134806014D01*
X192549614Y-135011143D01*
X192418432Y-135238356D01*
X192322582Y-135482578D01*
X192322576Y-135482597D01*
X192264197Y-135738374D01*
X192264196Y-135738379D01*
X192244592Y-135999995D01*
X192244592Y-136000004D01*
X192264196Y-136261620D01*
X192264197Y-136261625D01*
X192322578Y-136517412D01*
X192380509Y-136665019D01*
X192386677Y-136734616D01*
X192354239Y-136796500D01*
X192352761Y-136798002D01*
X188019284Y-141131481D01*
X187957961Y-141164966D01*
X187931603Y-141167800D01*
X174435054Y-141167800D01*
X174368015Y-141148115D01*
X174322260Y-141095311D01*
X174312316Y-141026153D01*
X174324569Y-140987505D01*
X174405218Y-140829223D01*
X174405218Y-140829222D01*
X174405220Y-140829219D01*
X174468477Y-140634534D01*
X174500500Y-140432352D01*
X174500500Y-140227648D01*
X174488136Y-140149586D01*
X174468477Y-140025465D01*
X174434643Y-139921335D01*
X174405220Y-139830781D01*
X174405218Y-139830777D01*
X174403714Y-139826148D01*
X174405035Y-139825718D01*
X174398236Y-139762486D01*
X174429509Y-139700006D01*
X174489597Y-139664352D01*
X174520266Y-139660500D01*
X185853331Y-139660500D01*
X185853347Y-139660501D01*
X185860943Y-139660501D01*
X186019054Y-139660501D01*
X186019057Y-139660501D01*
X186171785Y-139619577D01*
X186221904Y-139590639D01*
X186308716Y-139540520D01*
X186420520Y-139428716D01*
X186420520Y-139428714D01*
X186430728Y-139418507D01*
X186430730Y-139418504D01*
X193199605Y-132649628D01*
X193260926Y-132616145D01*
X193330618Y-132621129D01*
X193341079Y-132625588D01*
X193358677Y-132634063D01*
X193609385Y-132711396D01*
X193868818Y-132750500D01*
X194131182Y-132750500D01*
X194390615Y-132711396D01*
X194641323Y-132634063D01*
X194877704Y-132520228D01*
X195094479Y-132372433D01*
X195286805Y-132193981D01*
X195450386Y-131988857D01*
X195581568Y-131761643D01*
X195677420Y-131517416D01*
X195735802Y-131261630D01*
X195737079Y-131244586D01*
X195755408Y-131000004D01*
X195755408Y-130999995D01*
X195735803Y-130738379D01*
X195735802Y-130738374D01*
X195735802Y-130738370D01*
X195677420Y-130482584D01*
X195581568Y-130238357D01*
X195450386Y-130011143D01*
X195286805Y-129806019D01*
X195286804Y-129806018D01*
X195286801Y-129806014D01*
X195094479Y-129627567D01*
X194877704Y-129479772D01*
X194877700Y-129479770D01*
X194877697Y-129479768D01*
X194877696Y-129479767D01*
X194641325Y-129365938D01*
X194641327Y-129365938D01*
X194390623Y-129288606D01*
X194390619Y-129288605D01*
X194390615Y-129288604D01*
X194265823Y-129269794D01*
X194131187Y-129249500D01*
X194131182Y-129249500D01*
X193868818Y-129249500D01*
X193868812Y-129249500D01*
X193707247Y-129273853D01*
X193609385Y-129288604D01*
X193609382Y-129288605D01*
X193609376Y-129288606D01*
X193358673Y-129365938D01*
X193122303Y-129479767D01*
X193122302Y-129479768D01*
X192905520Y-129627567D01*
X192713198Y-129806014D01*
X192549614Y-130011143D01*
X192418432Y-130238356D01*
X192322582Y-130482578D01*
X192322576Y-130482597D01*
X192264197Y-130738374D01*
X192264196Y-130738379D01*
X192244592Y-130999995D01*
X192244592Y-131000004D01*
X192264196Y-131261620D01*
X192264197Y-131261625D01*
X192264197Y-131261629D01*
X192264198Y-131261630D01*
X192270909Y-131291036D01*
X192322578Y-131517412D01*
X192380509Y-131665019D01*
X192386677Y-131734616D01*
X192354239Y-131796500D01*
X192352761Y-131798002D01*
X185727584Y-138423181D01*
X185666261Y-138456666D01*
X185639903Y-138459500D01*
X174520266Y-138459500D01*
X174453227Y-138439815D01*
X174407472Y-138387011D01*
X174397528Y-138317853D01*
X174404080Y-138293970D01*
X174403714Y-138293852D01*
X174405218Y-138289222D01*
X174405220Y-138289219D01*
X174468477Y-138094534D01*
X174500500Y-137892352D01*
X174500500Y-137687648D01*
X174484625Y-137587417D01*
X174468477Y-137485465D01*
X174405218Y-137290776D01*
X174345161Y-137172909D01*
X174312287Y-137108390D01*
X174279910Y-137063826D01*
X174191971Y-136942786D01*
X174047213Y-136798028D01*
X173881614Y-136677715D01*
X173867424Y-136670485D01*
X173788917Y-136630483D01*
X173738123Y-136582511D01*
X173721328Y-136514690D01*
X173743865Y-136448555D01*
X173788917Y-136409516D01*
X173881610Y-136362287D01*
X173907478Y-136343493D01*
X174047213Y-136241971D01*
X174047215Y-136241968D01*
X174047219Y-136241966D01*
X174191966Y-136097219D01*
X174191968Y-136097215D01*
X174191971Y-136097213D01*
X174275073Y-135982831D01*
X174312287Y-135931610D01*
X174405220Y-135749219D01*
X174468477Y-135554534D01*
X174500500Y-135352352D01*
X174500500Y-135147648D01*
X174478879Y-135011143D01*
X174468477Y-134945465D01*
X174414194Y-134778401D01*
X174405220Y-134750781D01*
X174405218Y-134750778D01*
X174405218Y-134750776D01*
X174345161Y-134632909D01*
X174312287Y-134568390D01*
X174273201Y-134514592D01*
X174191971Y-134402786D01*
X174047213Y-134258028D01*
X173881614Y-134137715D01*
X173868366Y-134130965D01*
X173788917Y-134090483D01*
X173738123Y-134042511D01*
X173721328Y-133974690D01*
X173743865Y-133908555D01*
X173788917Y-133869516D01*
X173881610Y-133822287D01*
X174018980Y-133722483D01*
X174047213Y-133701971D01*
X174047215Y-133701968D01*
X174047219Y-133701966D01*
X174191966Y-133557219D01*
X174191968Y-133557215D01*
X174191971Y-133557213D01*
X174251475Y-133475311D01*
X174312287Y-133391610D01*
X174405220Y-133209219D01*
X174468477Y-133014534D01*
X174500500Y-132812352D01*
X174500500Y-132607648D01*
X174497296Y-132587417D01*
X174468477Y-132405465D01*
X174418217Y-132250781D01*
X174405220Y-132210781D01*
X174405218Y-132210778D01*
X174405218Y-132210776D01*
X174352615Y-132107539D01*
X174312287Y-132028390D01*
X174273201Y-131974592D01*
X174191971Y-131862786D01*
X174047213Y-131718028D01*
X173881613Y-131597715D01*
X173881612Y-131597714D01*
X173881610Y-131597713D01*
X173824653Y-131568691D01*
X173699223Y-131504781D01*
X173504534Y-131441522D01*
X173329995Y-131413878D01*
X173302352Y-131409500D01*
X172697648Y-131409500D01*
X172673329Y-131413351D01*
X172495465Y-131441522D01*
X172300776Y-131504781D01*
X172118386Y-131597715D01*
X171952786Y-131718028D01*
X171808028Y-131862786D01*
X171687715Y-132028386D01*
X171594781Y-132210776D01*
X171531522Y-132405465D01*
X171499500Y-132607648D01*
X171499500Y-132812351D01*
X171531522Y-133014534D01*
X171594781Y-133209223D01*
X171637379Y-133292824D01*
X171684439Y-133385185D01*
X171687715Y-133391613D01*
X171808028Y-133557213D01*
X171952786Y-133701971D01*
X172084785Y-133797872D01*
X172118390Y-133822287D01*
X172187466Y-133857483D01*
X172211080Y-133869515D01*
X172261876Y-133917490D01*
X172278671Y-133985311D01*
X172256134Y-134051446D01*
X172211080Y-134090485D01*
X172118386Y-134137715D01*
X171952786Y-134258028D01*
X171808028Y-134402786D01*
X171687715Y-134568386D01*
X171594781Y-134750776D01*
X171531522Y-134945465D01*
X171499500Y-135147648D01*
X171499500Y-135352351D01*
X171531522Y-135554534D01*
X171542683Y-135588881D01*
X171544678Y-135658722D01*
X171508598Y-135718555D01*
X171445898Y-135749384D01*
X171424752Y-135751200D01*
X151715248Y-135751200D01*
X151648209Y-135731515D01*
X151602454Y-135678711D01*
X151592510Y-135609553D01*
X151597317Y-135588881D01*
X151608477Y-135554534D01*
X151628545Y-135427830D01*
X151640500Y-135352352D01*
X151640500Y-135147648D01*
X151618879Y-135011143D01*
X151608477Y-134945465D01*
X151597317Y-134911119D01*
X151595322Y-134841278D01*
X151631402Y-134781445D01*
X151694102Y-134750616D01*
X151715248Y-134748800D01*
X152634331Y-134748800D01*
X152634347Y-134748801D01*
X152641943Y-134748801D01*
X152800054Y-134748801D01*
X152800057Y-134748801D01*
X152952785Y-134707877D01*
X153023208Y-134667218D01*
X153089716Y-134628820D01*
X153201520Y-134517016D01*
X153201520Y-134517014D01*
X153211724Y-134506811D01*
X153211727Y-134506806D01*
X160588536Y-127129999D01*
X179644341Y-127129999D01*
X179644341Y-127130000D01*
X179664936Y-127365403D01*
X179664938Y-127365413D01*
X179726094Y-127593655D01*
X179726096Y-127593659D01*
X179726097Y-127593663D01*
X179744935Y-127634061D01*
X179825965Y-127807830D01*
X179825967Y-127807834D01*
X179961501Y-128001395D01*
X179961506Y-128001402D01*
X180128597Y-128168493D01*
X180128603Y-128168498D01*
X180314158Y-128298425D01*
X180357783Y-128353002D01*
X180364977Y-128422500D01*
X180333454Y-128484855D01*
X180314158Y-128501575D01*
X180128597Y-128631505D01*
X179961505Y-128798597D01*
X179825965Y-128992169D01*
X179825964Y-128992171D01*
X179726098Y-129206335D01*
X179726094Y-129206344D01*
X179664938Y-129434586D01*
X179664936Y-129434596D01*
X179644341Y-129669999D01*
X179644341Y-129670000D01*
X179664936Y-129905403D01*
X179664938Y-129905413D01*
X179726094Y-130133655D01*
X179726096Y-130133659D01*
X179726097Y-130133663D01*
X179774917Y-130238357D01*
X179825965Y-130347830D01*
X179825967Y-130347834D01*
X179961501Y-130541395D01*
X179961506Y-130541402D01*
X180128597Y-130708493D01*
X180128603Y-130708498D01*
X180314158Y-130838425D01*
X180357783Y-130893002D01*
X180364977Y-130962500D01*
X180333454Y-131024855D01*
X180314158Y-131041575D01*
X180128597Y-131171505D01*
X179961505Y-131338597D01*
X179825965Y-131532169D01*
X179825964Y-131532171D01*
X179726098Y-131746335D01*
X179726094Y-131746344D01*
X179664938Y-131974586D01*
X179664936Y-131974596D01*
X179644341Y-132209999D01*
X179644341Y-132210000D01*
X179664936Y-132445403D01*
X179664938Y-132445413D01*
X179726094Y-132673655D01*
X179726096Y-132673659D01*
X179726097Y-132673663D01*
X179790769Y-132812352D01*
X179825965Y-132887830D01*
X179825967Y-132887834D01*
X179914684Y-133014534D01*
X179956592Y-133074385D01*
X179961501Y-133081395D01*
X179961506Y-133081402D01*
X180128597Y-133248493D01*
X180128603Y-133248498D01*
X180314158Y-133378425D01*
X180357783Y-133433002D01*
X180364977Y-133502500D01*
X180333454Y-133564855D01*
X180314158Y-133581575D01*
X180128597Y-133711505D01*
X179961505Y-133878597D01*
X179825965Y-134072169D01*
X179825964Y-134072171D01*
X179726098Y-134286335D01*
X179726094Y-134286344D01*
X179664938Y-134514586D01*
X179664936Y-134514596D01*
X179644341Y-134749999D01*
X179644341Y-134750000D01*
X179664936Y-134985403D01*
X179664938Y-134985413D01*
X179726094Y-135213655D01*
X179726096Y-135213659D01*
X179726097Y-135213663D01*
X179790769Y-135352352D01*
X179825965Y-135427830D01*
X179825967Y-135427834D01*
X179914684Y-135554534D01*
X179961505Y-135621401D01*
X180128599Y-135788495D01*
X180129639Y-135789223D01*
X180322165Y-135924032D01*
X180322167Y-135924033D01*
X180322170Y-135924035D01*
X180536337Y-136023903D01*
X180764592Y-136085063D01*
X180952918Y-136101539D01*
X180999999Y-136105659D01*
X181000000Y-136105659D01*
X181000001Y-136105659D01*
X181039234Y-136102226D01*
X181235408Y-136085063D01*
X181463663Y-136023903D01*
X181677830Y-135924035D01*
X181871401Y-135788495D01*
X182038495Y-135621401D01*
X182174035Y-135427830D01*
X182273903Y-135213663D01*
X182335063Y-134985408D01*
X182355659Y-134750000D01*
X182335063Y-134514592D01*
X182274511Y-134288605D01*
X182273905Y-134286344D01*
X182273904Y-134286343D01*
X182273903Y-134286337D01*
X182174035Y-134072171D01*
X182164671Y-134058797D01*
X182038494Y-133878597D01*
X181871402Y-133711506D01*
X181871396Y-133711501D01*
X181685842Y-133581575D01*
X181642217Y-133526998D01*
X181635023Y-133457500D01*
X181666546Y-133395145D01*
X181685842Y-133378425D01*
X181784167Y-133309577D01*
X181871401Y-133248495D01*
X182038495Y-133081401D01*
X182174035Y-132887830D01*
X182273903Y-132673663D01*
X182335063Y-132445408D01*
X182355659Y-132210000D01*
X182354257Y-132193981D01*
X182335063Y-131974596D01*
X182335063Y-131974592D01*
X182273903Y-131746337D01*
X182174035Y-131532171D01*
X182163704Y-131517416D01*
X182038494Y-131338597D01*
X181871402Y-131171506D01*
X181871396Y-131171501D01*
X181685842Y-131041575D01*
X181642217Y-130986998D01*
X181635023Y-130917500D01*
X181666546Y-130855145D01*
X181685842Y-130838425D01*
X181828735Y-130738370D01*
X181871401Y-130708495D01*
X182038495Y-130541401D01*
X182174035Y-130347830D01*
X182273903Y-130133663D01*
X182335063Y-129905408D01*
X182355659Y-129670000D01*
X182335063Y-129434592D01*
X182273903Y-129206337D01*
X182174035Y-128992171D01*
X182038495Y-128798599D01*
X182038494Y-128798597D01*
X181871402Y-128631506D01*
X181871396Y-128631501D01*
X181685842Y-128501575D01*
X181642217Y-128446998D01*
X181635023Y-128377500D01*
X181666546Y-128315145D01*
X181685842Y-128298425D01*
X181708026Y-128282891D01*
X181871401Y-128168495D01*
X182038495Y-128001401D01*
X182174035Y-127807830D01*
X182273903Y-127593663D01*
X182335063Y-127365408D01*
X182355659Y-127130000D01*
X182335063Y-126894592D01*
X182273903Y-126666337D01*
X182174035Y-126452171D01*
X182040617Y-126261630D01*
X182038496Y-126258600D01*
X182038495Y-126258599D01*
X181916567Y-126136671D01*
X181883084Y-126075351D01*
X181888068Y-126005659D01*
X181929939Y-125949725D01*
X181960915Y-125932810D01*
X182092331Y-125883796D01*
X182207546Y-125797546D01*
X182293796Y-125682331D01*
X182344091Y-125547483D01*
X182350500Y-125487873D01*
X182350499Y-123692128D01*
X182344091Y-123632517D01*
X182293796Y-123497669D01*
X182293795Y-123497668D01*
X182293793Y-123497664D01*
X182207547Y-123382455D01*
X182207544Y-123382452D01*
X182092335Y-123296206D01*
X182092328Y-123296202D01*
X181957482Y-123245908D01*
X181957483Y-123245908D01*
X181897883Y-123239501D01*
X181897881Y-123239500D01*
X181897873Y-123239500D01*
X181897864Y-123239500D01*
X180102129Y-123239500D01*
X180102123Y-123239501D01*
X180042516Y-123245908D01*
X179907671Y-123296202D01*
X179907664Y-123296206D01*
X179792455Y-123382452D01*
X179792452Y-123382455D01*
X179706206Y-123497664D01*
X179706202Y-123497671D01*
X179655908Y-123632517D01*
X179649501Y-123692116D01*
X179649501Y-123692123D01*
X179649500Y-123692135D01*
X179649500Y-125487870D01*
X179649501Y-125487876D01*
X179655908Y-125547483D01*
X179706202Y-125682328D01*
X179706206Y-125682335D01*
X179792452Y-125797544D01*
X179792455Y-125797547D01*
X179907664Y-125883793D01*
X179907671Y-125883797D01*
X180039081Y-125932810D01*
X180095015Y-125974681D01*
X180119432Y-126040145D01*
X180104580Y-126108418D01*
X180083430Y-126136673D01*
X179961503Y-126258600D01*
X179825965Y-126452169D01*
X179825964Y-126452171D01*
X179726098Y-126666335D01*
X179726094Y-126666344D01*
X179664938Y-126894586D01*
X179664936Y-126894596D01*
X179644341Y-127129999D01*
X160588536Y-127129999D01*
X166327217Y-121391319D01*
X166388540Y-121357834D01*
X166414898Y-121355000D01*
X169651678Y-121355000D01*
X169718717Y-121374685D01*
X169764472Y-121427489D01*
X169774416Y-121496647D01*
X169745391Y-121560203D01*
X169717650Y-121583994D01*
X169640637Y-121632384D01*
X169513084Y-121759937D01*
X169417111Y-121912676D01*
X169357531Y-122082945D01*
X169357530Y-122082950D01*
X169337335Y-122262196D01*
X169337335Y-122262203D01*
X169357530Y-122441449D01*
X169357531Y-122441454D01*
X169417111Y-122611723D01*
X169479739Y-122711394D01*
X169513084Y-122764462D01*
X169640638Y-122892016D01*
X169793378Y-122987989D01*
X169963645Y-123047568D01*
X169963650Y-123047569D01*
X170142896Y-123067765D01*
X170142900Y-123067765D01*
X170142904Y-123067765D01*
X170322149Y-123047569D01*
X170322152Y-123047568D01*
X170322155Y-123047568D01*
X170492422Y-122987989D01*
X170645162Y-122892016D01*
X170645167Y-122892010D01*
X170647997Y-122889755D01*
X170650175Y-122888865D01*
X170651058Y-122888311D01*
X170651155Y-122888465D01*
X170712683Y-122863345D01*
X170725312Y-122862700D01*
X189962103Y-122862700D01*
X190029142Y-122882385D01*
X190049784Y-122899019D01*
X192352761Y-125201996D01*
X192386246Y-125263319D01*
X192381262Y-125333011D01*
X192380509Y-125334978D01*
X192322579Y-125482585D01*
X192264197Y-125738374D01*
X192264196Y-125738379D01*
X192244592Y-125999995D01*
X192244592Y-126000004D01*
X192264196Y-126261620D01*
X192264197Y-126261625D01*
X192322576Y-126517402D01*
X192322578Y-126517411D01*
X192322580Y-126517416D01*
X192418432Y-126761643D01*
X192549614Y-126988857D01*
X192662171Y-127129999D01*
X192713198Y-127193985D01*
X192894753Y-127362441D01*
X192905521Y-127372433D01*
X193122296Y-127520228D01*
X193122301Y-127520230D01*
X193122302Y-127520231D01*
X193122303Y-127520232D01*
X193247843Y-127580688D01*
X193358673Y-127634061D01*
X193358674Y-127634061D01*
X193358677Y-127634063D01*
X193609385Y-127711396D01*
X193868818Y-127750500D01*
X194131182Y-127750500D01*
X194390615Y-127711396D01*
X194641323Y-127634063D01*
X194877704Y-127520228D01*
X195094479Y-127372433D01*
X195286805Y-127193981D01*
X195450386Y-126988857D01*
X195581568Y-126761643D01*
X195677420Y-126517416D01*
X195735802Y-126261630D01*
X195745166Y-126136673D01*
X195755408Y-126000004D01*
X195755408Y-125999995D01*
X195735803Y-125738379D01*
X195735802Y-125738374D01*
X195735802Y-125738370D01*
X195677420Y-125482584D01*
X195581568Y-125238357D01*
X195450386Y-125011143D01*
X195286805Y-124806019D01*
X195286804Y-124806018D01*
X195286801Y-124806014D01*
X195094479Y-124627567D01*
X194877704Y-124479772D01*
X194877700Y-124479770D01*
X194877697Y-124479768D01*
X194877696Y-124479767D01*
X194641325Y-124365938D01*
X194641327Y-124365938D01*
X194390623Y-124288606D01*
X194390619Y-124288605D01*
X194390615Y-124288604D01*
X194265823Y-124269794D01*
X194131187Y-124249500D01*
X194131182Y-124249500D01*
X193868818Y-124249500D01*
X193868812Y-124249500D01*
X193707247Y-124273853D01*
X193609385Y-124288604D01*
X193609382Y-124288605D01*
X193609376Y-124288606D01*
X193358676Y-124365937D01*
X193341085Y-124374409D01*
X193272144Y-124385760D01*
X193208009Y-124358037D01*
X193199604Y-124350369D01*
X190749790Y-121900555D01*
X190749788Y-121900552D01*
X190630917Y-121781681D01*
X190630909Y-121781675D01*
X190529136Y-121722917D01*
X190529134Y-121722916D01*
X190493990Y-121702625D01*
X190493989Y-121702624D01*
X190481463Y-121699267D01*
X190341257Y-121661699D01*
X190183143Y-121661699D01*
X190175547Y-121661699D01*
X190175531Y-121661700D01*
X170725312Y-121661700D01*
X170658273Y-121642015D01*
X170647997Y-121634645D01*
X170645163Y-121632385D01*
X170645162Y-121632384D01*
X170568150Y-121583994D01*
X170521859Y-121531659D01*
X170511211Y-121462605D01*
X170539586Y-121398757D01*
X170597976Y-121360385D01*
X170634122Y-121355000D01*
X192186622Y-121355000D01*
X192253661Y-121374685D01*
X192299416Y-121427489D01*
X192307513Y-121451407D01*
X192322576Y-121517404D01*
X192322579Y-121517414D01*
X192322580Y-121517416D01*
X192418432Y-121761643D01*
X192549614Y-121988857D01*
X192624647Y-122082945D01*
X192713198Y-122193985D01*
X192894753Y-122362441D01*
X192905521Y-122372433D01*
X193122296Y-122520228D01*
X193122301Y-122520230D01*
X193122302Y-122520231D01*
X193122303Y-122520232D01*
X193247843Y-122580688D01*
X193358673Y-122634061D01*
X193358674Y-122634061D01*
X193358677Y-122634063D01*
X193609385Y-122711396D01*
X193868818Y-122750500D01*
X194131182Y-122750500D01*
X194390615Y-122711396D01*
X194641323Y-122634063D01*
X194877704Y-122520228D01*
X195094479Y-122372433D01*
X195286805Y-122193981D01*
X195450386Y-121988857D01*
X195581568Y-121761643D01*
X195677420Y-121517416D01*
X195735802Y-121261630D01*
X195755408Y-121000000D01*
X195735802Y-120738370D01*
X195677420Y-120482584D01*
X195581568Y-120238357D01*
X195450386Y-120011143D01*
X195286805Y-119806019D01*
X195286804Y-119806018D01*
X195286801Y-119806014D01*
X195094479Y-119627567D01*
X194877704Y-119479772D01*
X194877700Y-119479770D01*
X194877697Y-119479768D01*
X194877696Y-119479767D01*
X194641325Y-119365938D01*
X194641327Y-119365938D01*
X194390623Y-119288606D01*
X194390619Y-119288605D01*
X194390615Y-119288604D01*
X194265823Y-119269794D01*
X194131187Y-119249500D01*
X194131182Y-119249500D01*
X193868818Y-119249500D01*
X193868812Y-119249500D01*
X193707247Y-119273853D01*
X193609385Y-119288604D01*
X193609382Y-119288605D01*
X193609376Y-119288606D01*
X193358673Y-119365938D01*
X193122303Y-119479767D01*
X193122302Y-119479768D01*
X192905520Y-119627567D01*
X192713198Y-119806014D01*
X192549612Y-120011145D01*
X192502932Y-120091999D01*
X192452366Y-120140215D01*
X192395545Y-120154000D01*
X166201470Y-120154000D01*
X166201454Y-120153999D01*
X166193858Y-120153999D01*
X166035743Y-120153999D01*
X165959379Y-120174461D01*
X165883014Y-120194923D01*
X165883009Y-120194926D01*
X165746090Y-120273975D01*
X165746082Y-120273981D01*
X152508584Y-133511481D01*
X152447261Y-133544966D01*
X152420903Y-133547800D01*
X151764500Y-133547800D01*
X151697461Y-133528115D01*
X151651706Y-133475311D01*
X151640500Y-133423802D01*
X151640499Y-133360214D01*
X151660183Y-133293174D01*
X151702498Y-133252826D01*
X151752575Y-133223914D01*
X151810416Y-133190520D01*
X151922220Y-133078716D01*
X151922220Y-133078714D01*
X151932424Y-133068511D01*
X151932427Y-133068506D01*
X166812416Y-118188519D01*
X166873739Y-118155034D01*
X166900097Y-118152200D01*
X190809931Y-118152200D01*
X190809947Y-118152201D01*
X190817543Y-118152201D01*
X190975654Y-118152201D01*
X190975657Y-118152201D01*
X191128385Y-118111277D01*
X191178504Y-118082339D01*
X191265316Y-118032220D01*
X191377120Y-117920416D01*
X191377120Y-117920414D01*
X191387328Y-117910207D01*
X191387330Y-117910204D01*
X192041983Y-117255550D01*
X192103304Y-117222067D01*
X192172996Y-117227051D01*
X192228929Y-117268923D01*
X192252952Y-117329978D01*
X192255909Y-117357483D01*
X192306202Y-117492328D01*
X192306206Y-117492335D01*
X192392452Y-117607544D01*
X192392455Y-117607547D01*
X192507664Y-117693793D01*
X192507671Y-117693797D01*
X192642517Y-117744091D01*
X192642516Y-117744091D01*
X192649444Y-117744835D01*
X192702127Y-117750500D01*
X195297872Y-117750499D01*
X195357483Y-117744091D01*
X195492331Y-117693796D01*
X195607546Y-117607546D01*
X195693796Y-117492331D01*
X195744091Y-117357483D01*
X195750500Y-117297873D01*
X195750499Y-114702128D01*
X195744091Y-114642517D01*
X195738899Y-114628597D01*
X195693797Y-114507671D01*
X195693793Y-114507664D01*
X195607547Y-114392455D01*
X195607544Y-114392452D01*
X195492335Y-114306206D01*
X195492328Y-114306202D01*
X195357482Y-114255908D01*
X195357483Y-114255908D01*
X195297883Y-114249501D01*
X195297881Y-114249500D01*
X195297873Y-114249500D01*
X195297864Y-114249500D01*
X192702129Y-114249500D01*
X192702123Y-114249501D01*
X192642516Y-114255908D01*
X192507671Y-114306202D01*
X192507664Y-114306206D01*
X192392455Y-114392452D01*
X192392452Y-114392455D01*
X192306206Y-114507664D01*
X192306202Y-114507671D01*
X192255908Y-114642517D01*
X192249501Y-114702116D01*
X192249501Y-114702123D01*
X192249500Y-114702135D01*
X192249500Y-115349788D01*
X192229815Y-115416827D01*
X192187500Y-115457174D01*
X192166395Y-115469360D01*
X192122989Y-115494420D01*
X192079585Y-115519479D01*
X192079582Y-115519481D01*
X191967778Y-115631286D01*
X190684184Y-116914881D01*
X190622861Y-116948366D01*
X190596503Y-116951200D01*
X181642775Y-116951200D01*
X181575736Y-116931515D01*
X181529981Y-116878711D01*
X181520037Y-116809553D01*
X181549062Y-116745997D01*
X181590368Y-116714819D01*
X181677830Y-116674035D01*
X181871401Y-116538495D01*
X182038495Y-116371401D01*
X182174035Y-116177830D01*
X182273903Y-115963663D01*
X182335063Y-115735408D01*
X182355659Y-115500000D01*
X182335063Y-115264592D01*
X182273903Y-115036337D01*
X182174035Y-114822171D01*
X182089986Y-114702135D01*
X182038494Y-114628597D01*
X181871402Y-114461506D01*
X181871396Y-114461501D01*
X181685842Y-114331575D01*
X181642217Y-114276998D01*
X181635023Y-114207500D01*
X181666546Y-114145145D01*
X181685842Y-114128425D01*
X181708026Y-114112891D01*
X181871401Y-113998495D01*
X182038495Y-113831401D01*
X182174035Y-113637830D01*
X182273903Y-113423663D01*
X182335063Y-113195408D01*
X182355659Y-112960000D01*
X182335063Y-112724592D01*
X182273903Y-112496337D01*
X182174035Y-112282171D01*
X182155490Y-112255685D01*
X182038494Y-112088597D01*
X181871402Y-111921506D01*
X181871396Y-111921501D01*
X181685842Y-111791575D01*
X181642217Y-111736998D01*
X181635023Y-111667500D01*
X181666546Y-111605145D01*
X181685842Y-111588425D01*
X181761829Y-111535218D01*
X181871401Y-111458495D01*
X182038495Y-111291401D01*
X182174035Y-111097830D01*
X182273903Y-110883663D01*
X182335063Y-110655408D01*
X182355659Y-110420000D01*
X182335063Y-110184592D01*
X182273903Y-109956337D01*
X182174035Y-109742171D01*
X182163179Y-109726666D01*
X182038494Y-109548597D01*
X181871402Y-109381506D01*
X181871396Y-109381501D01*
X181685842Y-109251575D01*
X181642217Y-109196998D01*
X181635023Y-109127500D01*
X181666546Y-109065145D01*
X181685842Y-109048425D01*
X181714622Y-109028273D01*
X181871401Y-108918495D01*
X182038495Y-108751401D01*
X182174035Y-108557830D01*
X182273903Y-108343663D01*
X182335063Y-108115408D01*
X182355659Y-107880000D01*
X182335063Y-107644592D01*
X182288626Y-107471285D01*
X182273905Y-107416344D01*
X182273904Y-107416343D01*
X182273903Y-107416337D01*
X182174035Y-107202171D01*
X182170696Y-107197403D01*
X182038496Y-107008600D01*
X181981173Y-106951277D01*
X181916567Y-106886671D01*
X181883084Y-106825351D01*
X181888068Y-106755659D01*
X181929939Y-106699725D01*
X181960915Y-106682810D01*
X182092331Y-106633796D01*
X182207546Y-106547546D01*
X182243143Y-106499995D01*
X192244592Y-106499995D01*
X192244592Y-106500004D01*
X192264196Y-106761620D01*
X192264197Y-106761625D01*
X192322576Y-107017402D01*
X192322578Y-107017411D01*
X192322580Y-107017416D01*
X192418432Y-107261643D01*
X192549614Y-107488857D01*
X192635824Y-107596961D01*
X192713198Y-107693985D01*
X192887623Y-107855826D01*
X192905521Y-107872433D01*
X193122296Y-108020228D01*
X193122301Y-108020230D01*
X193122302Y-108020231D01*
X193122303Y-108020232D01*
X193246414Y-108080000D01*
X193358673Y-108134061D01*
X193358674Y-108134061D01*
X193358677Y-108134063D01*
X193609385Y-108211396D01*
X193868818Y-108250500D01*
X194131182Y-108250500D01*
X194390615Y-108211396D01*
X194641323Y-108134063D01*
X194836647Y-108040000D01*
X194877696Y-108020232D01*
X194877696Y-108020231D01*
X194877704Y-108020228D01*
X195094479Y-107872433D01*
X195286805Y-107693981D01*
X195450386Y-107488857D01*
X195581568Y-107261643D01*
X195677420Y-107017416D01*
X195735802Y-106761630D01*
X195735893Y-106760416D01*
X195755408Y-106500004D01*
X195755408Y-106499995D01*
X195735803Y-106238379D01*
X195735802Y-106238374D01*
X195735802Y-106238370D01*
X195677420Y-105982584D01*
X195581568Y-105738357D01*
X195450386Y-105511143D01*
X195286805Y-105306019D01*
X195286804Y-105306018D01*
X195286801Y-105306014D01*
X195094479Y-105127567D01*
X194980080Y-105049571D01*
X194877704Y-104979772D01*
X194877700Y-104979770D01*
X194877697Y-104979768D01*
X194877696Y-104979767D01*
X194641325Y-104865938D01*
X194641327Y-104865938D01*
X194390623Y-104788606D01*
X194390619Y-104788605D01*
X194390615Y-104788604D01*
X194265823Y-104769794D01*
X194131187Y-104749500D01*
X194131182Y-104749500D01*
X193868818Y-104749500D01*
X193868812Y-104749500D01*
X193722303Y-104771584D01*
X193609385Y-104788604D01*
X193609382Y-104788605D01*
X193609376Y-104788606D01*
X193358673Y-104865938D01*
X193122303Y-104979767D01*
X193122302Y-104979768D01*
X193122296Y-104979771D01*
X193122296Y-104979772D01*
X193096839Y-104997128D01*
X192905520Y-105127567D01*
X192713198Y-105306014D01*
X192549614Y-105511143D01*
X192418432Y-105738356D01*
X192322582Y-105982578D01*
X192322576Y-105982597D01*
X192264197Y-106238374D01*
X192264196Y-106238379D01*
X192244592Y-106499995D01*
X182243143Y-106499995D01*
X182293796Y-106432331D01*
X182344091Y-106297483D01*
X182350500Y-106237873D01*
X182350499Y-104442128D01*
X182344091Y-104382517D01*
X182315778Y-104306607D01*
X182293797Y-104247671D01*
X182293793Y-104247664D01*
X182207547Y-104132455D01*
X182207544Y-104132452D01*
X182092335Y-104046206D01*
X182092328Y-104046202D01*
X181957482Y-103995908D01*
X181957483Y-103995908D01*
X181897883Y-103989501D01*
X181897881Y-103989500D01*
X181897873Y-103989500D01*
X181897864Y-103989500D01*
X180102129Y-103989500D01*
X180102123Y-103989501D01*
X180042516Y-103995908D01*
X179907671Y-104046202D01*
X179907664Y-104046206D01*
X179792455Y-104132452D01*
X179792452Y-104132455D01*
X179706206Y-104247664D01*
X179706202Y-104247671D01*
X179655908Y-104382517D01*
X179649501Y-104442116D01*
X179649501Y-104442123D01*
X179649500Y-104442135D01*
X179649500Y-104689787D01*
X179629815Y-104756826D01*
X179587500Y-104797174D01*
X179479587Y-104859477D01*
X179479582Y-104859481D01*
X178484184Y-105854881D01*
X178422861Y-105888366D01*
X178396503Y-105891200D01*
X174529759Y-105891200D01*
X174462720Y-105871515D01*
X174416965Y-105818711D01*
X174407021Y-105749553D01*
X174411828Y-105728882D01*
X174468476Y-105554538D01*
X174468476Y-105554537D01*
X174468477Y-105554534D01*
X174500500Y-105352352D01*
X174500500Y-105147648D01*
X174468477Y-104945466D01*
X174468476Y-104945462D01*
X174468476Y-104945461D01*
X174414780Y-104780202D01*
X174412785Y-104710361D01*
X174445028Y-104654205D01*
X175552516Y-103546719D01*
X175613839Y-103513234D01*
X175640197Y-103510400D01*
X187503431Y-103510400D01*
X187503447Y-103510401D01*
X187511043Y-103510401D01*
X187669154Y-103510401D01*
X187669157Y-103510401D01*
X187821885Y-103469477D01*
X187887472Y-103431610D01*
X187958816Y-103390420D01*
X188070620Y-103278616D01*
X188070620Y-103278614D01*
X188080824Y-103268411D01*
X188080827Y-103268406D01*
X189849238Y-101499995D01*
X192245093Y-101499995D01*
X192245093Y-101500004D01*
X192264692Y-101761545D01*
X192264693Y-101761550D01*
X192323058Y-102017270D01*
X192418883Y-102261426D01*
X192418882Y-102261426D01*
X192550027Y-102488573D01*
X192597874Y-102548571D01*
X193398958Y-101747488D01*
X193423978Y-101807890D01*
X193495112Y-101914351D01*
X193585649Y-102004888D01*
X193692110Y-102076022D01*
X193752510Y-102101041D01*
X192950830Y-102902720D01*
X193122546Y-103019793D01*
X193122550Y-103019795D01*
X193358854Y-103133594D01*
X193358858Y-103133595D01*
X193609494Y-103210907D01*
X193609500Y-103210909D01*
X193868848Y-103249999D01*
X193868857Y-103250000D01*
X194131143Y-103250000D01*
X194131151Y-103249999D01*
X194390499Y-103210909D01*
X194390505Y-103210907D01*
X194641143Y-103133595D01*
X194877445Y-103019798D01*
X194877447Y-103019797D01*
X195049168Y-102902720D01*
X194247488Y-102101041D01*
X194307890Y-102076022D01*
X194414351Y-102004888D01*
X194504888Y-101914351D01*
X194576022Y-101807890D01*
X194601041Y-101747488D01*
X195402125Y-102548572D01*
X195449971Y-102488573D01*
X195581116Y-102261426D01*
X195676941Y-102017270D01*
X195735306Y-101761550D01*
X195735307Y-101761545D01*
X195754907Y-101500004D01*
X195754907Y-101499995D01*
X195735307Y-101238454D01*
X195735306Y-101238449D01*
X195676941Y-100982729D01*
X195581116Y-100738573D01*
X195581117Y-100738573D01*
X195449972Y-100511426D01*
X195402124Y-100451427D01*
X194601041Y-101252510D01*
X194576022Y-101192110D01*
X194504888Y-101085649D01*
X194414351Y-100995112D01*
X194307890Y-100923978D01*
X194247488Y-100898958D01*
X195049168Y-100097278D01*
X194877454Y-99980206D01*
X194877445Y-99980201D01*
X194641142Y-99866404D01*
X194641144Y-99866404D01*
X194390505Y-99789092D01*
X194390499Y-99789090D01*
X194131151Y-99750000D01*
X193868848Y-99750000D01*
X193609500Y-99789090D01*
X193609494Y-99789092D01*
X193358858Y-99866404D01*
X193358854Y-99866405D01*
X193122547Y-99980205D01*
X193122539Y-99980210D01*
X192950830Y-100097277D01*
X193752511Y-100898958D01*
X193692110Y-100923978D01*
X193585649Y-100995112D01*
X193495112Y-101085649D01*
X193423978Y-101192110D01*
X193398958Y-101252510D01*
X192597874Y-100451427D01*
X192550028Y-100511425D01*
X192418883Y-100738573D01*
X192323058Y-100982729D01*
X192264693Y-101238449D01*
X192264692Y-101238454D01*
X192245093Y-101499995D01*
X189849238Y-101499995D01*
X193199606Y-98149628D01*
X193260927Y-98116145D01*
X193330619Y-98121129D01*
X193341068Y-98125583D01*
X193358677Y-98134063D01*
X193609385Y-98211396D01*
X193868818Y-98250500D01*
X194131182Y-98250500D01*
X194390615Y-98211396D01*
X194641323Y-98134063D01*
X194877704Y-98020228D01*
X195094479Y-97872433D01*
X195245452Y-97732351D01*
X195286801Y-97693985D01*
X195286801Y-97693983D01*
X195286805Y-97693981D01*
X195450386Y-97488857D01*
X195581568Y-97261643D01*
X195677420Y-97017416D01*
X195735802Y-96761630D01*
X195739410Y-96713492D01*
X195755408Y-96500000D01*
X195755408Y-96499995D01*
X195735803Y-96238379D01*
X195735802Y-96238374D01*
X195735802Y-96238370D01*
X195677420Y-95982584D01*
X195581568Y-95738357D01*
X195450386Y-95511143D01*
X195286805Y-95306019D01*
X195286804Y-95306018D01*
X195286801Y-95306014D01*
X195094479Y-95127567D01*
X195002499Y-95064856D01*
X194877704Y-94979772D01*
X194877700Y-94979770D01*
X194877697Y-94979768D01*
X194877696Y-94979767D01*
X194641325Y-94865938D01*
X194641327Y-94865938D01*
X194390623Y-94788606D01*
X194390619Y-94788605D01*
X194390615Y-94788604D01*
X194265823Y-94769794D01*
X194131187Y-94749500D01*
X194131182Y-94749500D01*
X193868818Y-94749500D01*
X193868812Y-94749500D01*
X193707247Y-94773853D01*
X193609385Y-94788604D01*
X193609382Y-94788605D01*
X193609376Y-94788606D01*
X193358673Y-94865938D01*
X193122303Y-94979767D01*
X193122302Y-94979768D01*
X192905520Y-95127567D01*
X192713198Y-95306014D01*
X192549614Y-95511143D01*
X192418432Y-95738356D01*
X192322582Y-95982578D01*
X192322576Y-95982597D01*
X192264197Y-96238374D01*
X192264196Y-96238379D01*
X192244592Y-96499995D01*
X192244592Y-96500000D01*
X192264196Y-96761620D01*
X192264197Y-96761625D01*
X192322576Y-97017402D01*
X192322578Y-97017411D01*
X192322580Y-97017416D01*
X192374020Y-97148485D01*
X192380509Y-97165017D01*
X192386678Y-97234614D01*
X192354240Y-97296497D01*
X192352762Y-97298000D01*
X187377684Y-102273081D01*
X187316361Y-102306566D01*
X187290003Y-102309400D01*
X184339197Y-102309400D01*
X184272158Y-102289715D01*
X184226403Y-102236911D01*
X184216459Y-102167753D01*
X184245484Y-102104197D01*
X184251516Y-102097719D01*
X186483770Y-99865465D01*
X193199605Y-93149628D01*
X193260926Y-93116145D01*
X193330618Y-93121129D01*
X193341079Y-93125588D01*
X193358677Y-93134063D01*
X193609385Y-93211396D01*
X193868818Y-93250500D01*
X194131182Y-93250500D01*
X194390615Y-93211396D01*
X194641323Y-93134063D01*
X194877704Y-93020228D01*
X195094479Y-92872433D01*
X195286805Y-92693981D01*
X195450386Y-92488857D01*
X195581568Y-92261643D01*
X195677420Y-92017416D01*
X195735802Y-91761630D01*
X195740212Y-91702781D01*
X195755408Y-91500004D01*
X195755408Y-91499995D01*
X195735803Y-91238379D01*
X195735802Y-91238374D01*
X195735802Y-91238370D01*
X195677420Y-90982584D01*
X195581568Y-90738357D01*
X195450386Y-90511143D01*
X195286805Y-90306019D01*
X195286804Y-90306018D01*
X195286801Y-90306014D01*
X195094479Y-90127567D01*
X195067601Y-90109242D01*
X194877704Y-89979772D01*
X194877700Y-89979770D01*
X194877697Y-89979768D01*
X194877696Y-89979767D01*
X194641325Y-89865938D01*
X194641327Y-89865938D01*
X194390623Y-89788606D01*
X194390619Y-89788605D01*
X194390615Y-89788604D01*
X194265823Y-89769794D01*
X194131187Y-89749500D01*
X194131182Y-89749500D01*
X193868818Y-89749500D01*
X193868812Y-89749500D01*
X193707247Y-89773853D01*
X193609385Y-89788604D01*
X193609382Y-89788605D01*
X193609376Y-89788606D01*
X193358673Y-89865938D01*
X193122303Y-89979767D01*
X193122302Y-89979768D01*
X192905520Y-90127567D01*
X192713198Y-90306014D01*
X192549614Y-90511143D01*
X192418432Y-90738356D01*
X192322582Y-90982578D01*
X192322576Y-90982597D01*
X192264197Y-91238374D01*
X192264196Y-91238379D01*
X192244592Y-91499995D01*
X192244592Y-91500004D01*
X192264196Y-91761620D01*
X192264197Y-91761625D01*
X192322578Y-92017412D01*
X192380509Y-92165019D01*
X192386677Y-92234616D01*
X192354239Y-92296500D01*
X192352761Y-92298002D01*
X182979284Y-101671481D01*
X182917961Y-101704966D01*
X182891603Y-101707800D01*
X174790070Y-101707800D01*
X174790054Y-101707799D01*
X174782458Y-101707799D01*
X174624343Y-101707799D01*
X174547979Y-101728261D01*
X174471614Y-101748723D01*
X174471609Y-101748726D01*
X174334690Y-101827775D01*
X174334683Y-101827780D01*
X174333499Y-101828965D01*
X174332255Y-101829643D01*
X174328239Y-101832726D01*
X174327758Y-101832099D01*
X174272173Y-101862445D01*
X174202482Y-101857456D01*
X174158143Y-101828958D01*
X174047213Y-101718028D01*
X173881614Y-101597715D01*
X173867424Y-101590485D01*
X173788917Y-101550483D01*
X173738123Y-101502511D01*
X173721328Y-101434690D01*
X173743865Y-101368555D01*
X173788917Y-101329516D01*
X173881610Y-101282287D01*
X173902770Y-101266913D01*
X174047213Y-101161971D01*
X174047215Y-101161968D01*
X174047219Y-101161966D01*
X174191966Y-101017219D01*
X174191968Y-101017215D01*
X174191971Y-101017213D01*
X174283223Y-100891613D01*
X174312287Y-100851610D01*
X174405220Y-100669219D01*
X174468477Y-100474534D01*
X174500500Y-100272352D01*
X174500500Y-100067648D01*
X174483431Y-99959882D01*
X174468477Y-99865465D01*
X174457317Y-99831119D01*
X174455322Y-99761278D01*
X174491402Y-99701445D01*
X174554102Y-99670616D01*
X174575248Y-99668800D01*
X181345031Y-99668800D01*
X181345047Y-99668801D01*
X181352643Y-99668801D01*
X181510754Y-99668801D01*
X181510757Y-99668801D01*
X181663485Y-99627877D01*
X181731135Y-99588819D01*
X181800416Y-99548820D01*
X181912220Y-99437016D01*
X181912220Y-99437014D01*
X181922424Y-99426811D01*
X181922428Y-99426806D01*
X193199605Y-88149628D01*
X193260926Y-88116145D01*
X193330618Y-88121129D01*
X193341079Y-88125588D01*
X193358677Y-88134063D01*
X193609385Y-88211396D01*
X193868818Y-88250500D01*
X194131182Y-88250500D01*
X194390615Y-88211396D01*
X194641323Y-88134063D01*
X194877704Y-88020228D01*
X195094479Y-87872433D01*
X195286805Y-87693981D01*
X195450386Y-87488857D01*
X195581568Y-87261643D01*
X195677420Y-87017416D01*
X195735802Y-86761630D01*
X195755408Y-86500000D01*
X195735802Y-86238370D01*
X195677420Y-85982584D01*
X195581568Y-85738357D01*
X195450386Y-85511143D01*
X195286805Y-85306019D01*
X195286804Y-85306018D01*
X195286801Y-85306014D01*
X195094479Y-85127567D01*
X194877704Y-84979772D01*
X194877700Y-84979770D01*
X194877697Y-84979768D01*
X194877696Y-84979767D01*
X194641325Y-84865938D01*
X194641327Y-84865938D01*
X194390623Y-84788606D01*
X194390619Y-84788605D01*
X194390615Y-84788604D01*
X194265823Y-84769794D01*
X194131187Y-84749500D01*
X194131182Y-84749500D01*
X193868818Y-84749500D01*
X193868812Y-84749500D01*
X193707247Y-84773853D01*
X193609385Y-84788604D01*
X193609382Y-84788605D01*
X193609376Y-84788606D01*
X193358673Y-84865938D01*
X193122303Y-84979767D01*
X193122302Y-84979768D01*
X192905520Y-85127567D01*
X192713198Y-85306014D01*
X192549614Y-85511143D01*
X192418432Y-85738356D01*
X192322582Y-85982578D01*
X192322576Y-85982597D01*
X192264197Y-86238374D01*
X192264196Y-86238379D01*
X192244592Y-86499995D01*
X192244592Y-86500004D01*
X192264196Y-86761620D01*
X192264197Y-86761625D01*
X192322578Y-87017412D01*
X192380509Y-87165019D01*
X192386677Y-87234616D01*
X192354239Y-87296500D01*
X192352761Y-87298002D01*
X181219284Y-98431481D01*
X181157961Y-98464966D01*
X181131603Y-98467800D01*
X174435054Y-98467800D01*
X174368015Y-98448115D01*
X174322260Y-98395311D01*
X174312316Y-98326153D01*
X174324569Y-98287505D01*
X174405218Y-98129223D01*
X174405218Y-98129222D01*
X174405220Y-98129219D01*
X174468477Y-97934534D01*
X174500500Y-97732352D01*
X174500500Y-97527648D01*
X174484020Y-97423600D01*
X174468477Y-97325465D01*
X174457317Y-97291119D01*
X174455322Y-97221278D01*
X174491402Y-97161445D01*
X174554102Y-97130616D01*
X174575248Y-97128800D01*
X174867431Y-97128800D01*
X174867447Y-97128801D01*
X174875043Y-97128801D01*
X175033154Y-97128801D01*
X175033157Y-97128801D01*
X175185885Y-97087877D01*
X175253535Y-97048819D01*
X175322816Y-97008820D01*
X175434620Y-96897016D01*
X175434620Y-96897014D01*
X175444824Y-96886811D01*
X175444827Y-96886806D01*
X179254816Y-93076819D01*
X179316139Y-93043334D01*
X179342497Y-93040500D01*
X179627992Y-93040500D01*
X179695031Y-93060185D01*
X179740786Y-93112989D01*
X179750730Y-93182147D01*
X179740374Y-93216905D01*
X179726569Y-93246507D01*
X179726567Y-93246513D01*
X179669364Y-93459999D01*
X179669364Y-93460000D01*
X180566988Y-93460000D01*
X180534075Y-93517007D01*
X180500000Y-93644174D01*
X180500000Y-93775826D01*
X180534075Y-93902993D01*
X180566988Y-93960000D01*
X179669364Y-93960000D01*
X179726567Y-94173486D01*
X179726570Y-94173492D01*
X179826399Y-94387578D01*
X179961894Y-94581082D01*
X180128917Y-94748105D01*
X180315031Y-94878425D01*
X180358656Y-94933003D01*
X180365848Y-95002501D01*
X180334326Y-95064856D01*
X180315031Y-95081575D01*
X180128922Y-95211890D01*
X180128920Y-95211891D01*
X179961891Y-95378920D01*
X179961886Y-95378926D01*
X179826400Y-95572420D01*
X179826399Y-95572422D01*
X179726570Y-95786507D01*
X179726567Y-95786513D01*
X179669364Y-95999999D01*
X179669364Y-96000000D01*
X180566988Y-96000000D01*
X180534075Y-96057007D01*
X180500000Y-96184174D01*
X180500000Y-96315826D01*
X180534075Y-96442993D01*
X180566988Y-96500000D01*
X179669364Y-96500000D01*
X179726567Y-96713486D01*
X179726570Y-96713492D01*
X179826399Y-96927578D01*
X179961894Y-97121082D01*
X180128917Y-97288105D01*
X180322421Y-97423600D01*
X180536507Y-97523429D01*
X180536516Y-97523433D01*
X180750000Y-97580634D01*
X180750000Y-96683012D01*
X180807007Y-96715925D01*
X180934174Y-96750000D01*
X181065826Y-96750000D01*
X181192993Y-96715925D01*
X181250000Y-96683012D01*
X181250000Y-97580633D01*
X181463483Y-97523433D01*
X181463492Y-97523429D01*
X181677578Y-97423600D01*
X181871082Y-97288105D01*
X182038105Y-97121082D01*
X182173600Y-96927578D01*
X182273429Y-96713492D01*
X182273432Y-96713486D01*
X182330636Y-96500000D01*
X181433012Y-96500000D01*
X181465925Y-96442993D01*
X181500000Y-96315826D01*
X181500000Y-96184174D01*
X181465925Y-96057007D01*
X181433012Y-96000000D01*
X182330636Y-96000000D01*
X182330635Y-95999999D01*
X182273432Y-95786513D01*
X182273429Y-95786507D01*
X182173600Y-95572422D01*
X182173599Y-95572420D01*
X182038113Y-95378926D01*
X182038108Y-95378920D01*
X181871082Y-95211894D01*
X181684968Y-95081575D01*
X181641344Y-95026998D01*
X181634151Y-94957499D01*
X181665673Y-94895145D01*
X181684968Y-94878425D01*
X181871082Y-94748105D01*
X182038105Y-94581082D01*
X182173600Y-94387578D01*
X182273429Y-94173492D01*
X182273432Y-94173486D01*
X182330636Y-93960000D01*
X181433012Y-93960000D01*
X181465925Y-93902993D01*
X181500000Y-93775826D01*
X181500000Y-93644174D01*
X181465925Y-93517007D01*
X181433012Y-93460000D01*
X182330636Y-93460000D01*
X182330635Y-93459999D01*
X182273432Y-93246513D01*
X182273430Y-93246507D01*
X182259626Y-93216905D01*
X182249134Y-93147828D01*
X182277653Y-93084044D01*
X182336130Y-93045804D01*
X182372008Y-93040500D01*
X182973331Y-93040500D01*
X182973347Y-93040501D01*
X182980943Y-93040501D01*
X183139054Y-93040501D01*
X183139057Y-93040501D01*
X183291785Y-92999577D01*
X183362558Y-92958716D01*
X183428716Y-92920520D01*
X183540520Y-92808716D01*
X183540520Y-92808714D01*
X183550724Y-92798511D01*
X183550728Y-92798506D01*
X193199605Y-83149628D01*
X193260926Y-83116145D01*
X193330618Y-83121129D01*
X193341079Y-83125588D01*
X193358677Y-83134063D01*
X193609385Y-83211396D01*
X193868818Y-83250500D01*
X194131182Y-83250500D01*
X194390615Y-83211396D01*
X194641323Y-83134063D01*
X194877704Y-83020228D01*
X195094479Y-82872433D01*
X195286805Y-82693981D01*
X195450386Y-82488857D01*
X195581568Y-82261643D01*
X195677420Y-82017416D01*
X195735802Y-81761630D01*
X195755408Y-81500000D01*
X195752615Y-81462734D01*
X195735803Y-81238379D01*
X195735802Y-81238374D01*
X195735802Y-81238370D01*
X195677420Y-80982584D01*
X195581568Y-80738357D01*
X195450386Y-80511143D01*
X195286805Y-80306019D01*
X195286804Y-80306018D01*
X195286801Y-80306014D01*
X195094479Y-80127567D01*
X194877704Y-79979772D01*
X194877700Y-79979770D01*
X194877697Y-79979768D01*
X194877696Y-79979767D01*
X194641325Y-79865938D01*
X194641327Y-79865938D01*
X194390623Y-79788606D01*
X194390619Y-79788605D01*
X194390615Y-79788604D01*
X194265823Y-79769794D01*
X194131187Y-79749500D01*
X194131182Y-79749500D01*
X193868818Y-79749500D01*
X193868812Y-79749500D01*
X193707247Y-79773853D01*
X193609385Y-79788604D01*
X193609382Y-79788605D01*
X193609376Y-79788606D01*
X193358673Y-79865938D01*
X193122303Y-79979767D01*
X193122302Y-79979768D01*
X192905520Y-80127567D01*
X192713198Y-80306014D01*
X192549614Y-80511143D01*
X192418432Y-80738356D01*
X192322582Y-80982578D01*
X192322576Y-80982597D01*
X192264197Y-81238374D01*
X192264196Y-81238379D01*
X192244592Y-81499995D01*
X192244592Y-81500004D01*
X192264196Y-81761620D01*
X192264197Y-81761625D01*
X192322578Y-82017412D01*
X192380509Y-82165019D01*
X192386677Y-82234616D01*
X192354239Y-82296500D01*
X192352761Y-82298002D01*
X182847584Y-91803181D01*
X182786261Y-91836666D01*
X182759903Y-91839500D01*
X182372008Y-91839500D01*
X182304969Y-91819815D01*
X182259214Y-91767011D01*
X182249270Y-91697853D01*
X182259626Y-91663095D01*
X182273430Y-91633492D01*
X182273432Y-91633486D01*
X182330636Y-91420000D01*
X181433012Y-91420000D01*
X181465925Y-91362993D01*
X181500000Y-91235826D01*
X181500000Y-91104174D01*
X181465925Y-90977007D01*
X181433012Y-90920000D01*
X182330636Y-90920000D01*
X182330635Y-90919999D01*
X182273432Y-90706513D01*
X182273429Y-90706507D01*
X182173600Y-90492422D01*
X182173599Y-90492420D01*
X182038113Y-90298926D01*
X182038108Y-90298920D01*
X182023792Y-90284604D01*
X181990307Y-90223281D01*
X181995291Y-90153589D01*
X182023792Y-90109242D01*
X193846216Y-78286819D01*
X193907539Y-78253334D01*
X193933897Y-78250500D01*
X194131182Y-78250500D01*
X194390615Y-78211396D01*
X194641323Y-78134063D01*
X194877704Y-78020228D01*
X195094479Y-77872433D01*
X195286805Y-77693981D01*
X195450386Y-77488857D01*
X195581568Y-77261643D01*
X195677420Y-77017416D01*
X195735802Y-76761630D01*
X195755408Y-76500000D01*
X195735802Y-76238370D01*
X195677420Y-75982584D01*
X195581568Y-75738357D01*
X195450386Y-75511143D01*
X195286805Y-75306019D01*
X195286804Y-75306018D01*
X195286801Y-75306014D01*
X195094479Y-75127567D01*
X194877704Y-74979772D01*
X194877700Y-74979770D01*
X194877697Y-74979768D01*
X194877696Y-74979767D01*
X194641325Y-74865938D01*
X194641327Y-74865938D01*
X194390623Y-74788606D01*
X194390619Y-74788605D01*
X194390615Y-74788604D01*
X194265823Y-74769794D01*
X194131187Y-74749500D01*
X194131182Y-74749500D01*
X193868818Y-74749500D01*
X193868812Y-74749500D01*
X193707247Y-74773853D01*
X193609385Y-74788604D01*
X193609382Y-74788605D01*
X193609376Y-74788606D01*
X193358673Y-74865938D01*
X193122303Y-74979767D01*
X193122302Y-74979768D01*
X192905520Y-75127567D01*
X192713198Y-75306014D01*
X192549614Y-75511143D01*
X192418432Y-75738356D01*
X192322582Y-75982578D01*
X192322576Y-75982597D01*
X192264197Y-76238374D01*
X192264196Y-76238379D01*
X192244592Y-76499995D01*
X192244592Y-76500004D01*
X192264196Y-76761620D01*
X192264197Y-76761625D01*
X192322576Y-77017402D01*
X192322578Y-77017411D01*
X192322580Y-77017416D01*
X192418432Y-77261643D01*
X192549614Y-77488857D01*
X192656255Y-77622580D01*
X192682664Y-77687267D01*
X192669907Y-77755962D01*
X192646989Y-77787574D01*
X182396942Y-88037621D01*
X182335619Y-88071106D01*
X182265927Y-88066122D01*
X182209994Y-88024250D01*
X182196879Y-88002344D01*
X182173601Y-87952425D01*
X182173597Y-87952417D01*
X182038113Y-87758926D01*
X182038108Y-87758920D01*
X181915665Y-87636477D01*
X181882180Y-87575154D01*
X181887164Y-87505462D01*
X181929036Y-87449529D01*
X181960013Y-87432614D01*
X182092086Y-87383354D01*
X182092093Y-87383350D01*
X182207187Y-87297190D01*
X182207190Y-87297187D01*
X182293350Y-87182093D01*
X182293354Y-87182086D01*
X182343596Y-87047379D01*
X182343598Y-87047372D01*
X182349999Y-86987844D01*
X182350000Y-86987827D01*
X182350000Y-86340000D01*
X181433012Y-86340000D01*
X181465925Y-86282993D01*
X181500000Y-86155826D01*
X181500000Y-86024174D01*
X181465925Y-85897007D01*
X181433012Y-85840000D01*
X182350000Y-85840000D01*
X182350000Y-85192172D01*
X182349999Y-85192155D01*
X182343598Y-85132627D01*
X182343596Y-85132620D01*
X182293354Y-84997913D01*
X182293350Y-84997906D01*
X182207190Y-84882812D01*
X182207187Y-84882809D01*
X182092093Y-84796649D01*
X182092086Y-84796645D01*
X181957379Y-84746403D01*
X181957372Y-84746401D01*
X181897844Y-84740000D01*
X181250000Y-84740000D01*
X181250000Y-85656988D01*
X181192993Y-85624075D01*
X181065826Y-85590000D01*
X180934174Y-85590000D01*
X180807007Y-85624075D01*
X180750000Y-85656988D01*
X180750000Y-84740000D01*
X180456896Y-84740000D01*
X180389857Y-84720315D01*
X180344102Y-84667511D01*
X180334158Y-84598353D01*
X180363183Y-84534797D01*
X180369215Y-84528319D01*
X185393002Y-79504532D01*
X192060836Y-72836697D01*
X192122157Y-72803214D01*
X192191849Y-72808198D01*
X192247782Y-72850070D01*
X192264697Y-72881047D01*
X192306202Y-72992328D01*
X192306206Y-72992335D01*
X192392452Y-73107544D01*
X192392455Y-73107547D01*
X192507664Y-73193793D01*
X192507671Y-73193797D01*
X192642517Y-73244091D01*
X192642516Y-73244091D01*
X192649444Y-73244835D01*
X192702127Y-73250500D01*
X195297872Y-73250499D01*
X195357483Y-73244091D01*
X195492331Y-73193796D01*
X195607546Y-73107546D01*
X195693796Y-72992331D01*
X195744091Y-72857483D01*
X195750500Y-72797873D01*
X195750499Y-70202128D01*
X195744091Y-70142517D01*
X195693796Y-70007669D01*
X195693795Y-70007668D01*
X195693793Y-70007664D01*
X195607547Y-69892455D01*
X195607544Y-69892452D01*
X195492335Y-69806206D01*
X195492328Y-69806202D01*
X195357482Y-69755908D01*
X195357483Y-69755908D01*
X195297883Y-69749501D01*
X195297881Y-69749500D01*
X195297873Y-69749500D01*
X195297864Y-69749500D01*
X192702129Y-69749500D01*
X192702123Y-69749501D01*
X192642516Y-69755908D01*
X192507671Y-69806202D01*
X192507664Y-69806206D01*
X192392455Y-69892452D01*
X192392452Y-69892455D01*
X192306206Y-70007664D01*
X192306202Y-70007671D01*
X192255908Y-70142517D01*
X192249501Y-70202116D01*
X192249501Y-70202123D01*
X192249500Y-70202135D01*
X192249500Y-70849787D01*
X192229815Y-70916826D01*
X192187500Y-70957174D01*
X192079587Y-71019477D01*
X192079582Y-71019481D01*
X191967781Y-71131282D01*
X191967777Y-71131287D01*
X191888724Y-71268212D01*
X191888722Y-71268217D01*
X191881902Y-71293669D01*
X191849809Y-71349254D01*
X172587584Y-90611481D01*
X172526261Y-90644966D01*
X172499903Y-90647800D01*
X140319057Y-90647800D01*
X140160942Y-90647800D01*
X140008215Y-90688723D01*
X140008214Y-90688723D01*
X140008212Y-90688724D01*
X140008209Y-90688725D01*
X139958096Y-90717659D01*
X139958095Y-90717660D01*
X139914689Y-90742720D01*
X139871285Y-90767779D01*
X139871282Y-90767781D01*
X139519479Y-91119584D01*
X139504112Y-91146202D01*
X139490810Y-91169243D01*
X139478310Y-91190894D01*
X139440422Y-91256515D01*
X139440422Y-91256516D01*
X139433518Y-91282282D01*
X139397152Y-91341941D01*
X139352064Y-91368116D01*
X139300780Y-91384779D01*
X139118386Y-91477715D01*
X138952786Y-91598028D01*
X138808028Y-91742786D01*
X138687715Y-91908386D01*
X138594781Y-92090776D01*
X138531522Y-92285465D01*
X138499500Y-92487648D01*
X138499500Y-92692351D01*
X138531522Y-92894534D01*
X138545770Y-92938381D01*
X138547766Y-93008222D01*
X138511686Y-93068055D01*
X138448985Y-93098884D01*
X138427839Y-93100700D01*
X119852997Y-93100700D01*
X119785958Y-93081015D01*
X119765316Y-93064381D01*
X118929290Y-92228355D01*
X118929288Y-92228352D01*
X118810417Y-92109481D01*
X118810416Y-92109480D01*
X118723604Y-92059360D01*
X118723604Y-92059358D01*
X118723599Y-92059357D01*
X118708745Y-92050781D01*
X118702495Y-92047172D01*
X118654281Y-91996602D01*
X118640499Y-91939787D01*
X118640499Y-91542129D01*
X118640498Y-91542123D01*
X118640497Y-91542116D01*
X118634091Y-91482517D01*
X118632299Y-91477713D01*
X118583797Y-91347671D01*
X118583793Y-91347664D01*
X118497547Y-91232455D01*
X118497544Y-91232452D01*
X118382335Y-91146206D01*
X118382328Y-91146202D01*
X118247482Y-91095908D01*
X118247483Y-91095908D01*
X118187883Y-91089501D01*
X118187881Y-91089500D01*
X118187873Y-91089500D01*
X118187864Y-91089500D01*
X116092129Y-91089500D01*
X116092123Y-91089501D01*
X116032516Y-91095908D01*
X115897671Y-91146202D01*
X115897664Y-91146206D01*
X115782455Y-91232452D01*
X115782452Y-91232455D01*
X115696206Y-91347664D01*
X115696202Y-91347671D01*
X115645908Y-91482517D01*
X115639501Y-91542116D01*
X115639501Y-91542123D01*
X115639500Y-91542135D01*
X115639500Y-93637870D01*
X115639501Y-93637876D01*
X115645908Y-93697483D01*
X115696202Y-93832328D01*
X115696206Y-93832335D01*
X115782452Y-93947544D01*
X115782455Y-93947547D01*
X115897664Y-94033793D01*
X115897673Y-94033798D01*
X115934914Y-94047688D01*
X115990848Y-94089559D01*
X116015266Y-94155023D01*
X116000415Y-94223296D01*
X115979265Y-94251550D01*
X115948027Y-94282787D01*
X115827715Y-94448386D01*
X115734781Y-94630776D01*
X115671522Y-94825465D01*
X115639500Y-95027648D01*
X115639500Y-95232351D01*
X115671522Y-95434534D01*
X115734781Y-95629223D01*
X115790388Y-95738356D01*
X115814925Y-95786513D01*
X115827715Y-95811613D01*
X115948028Y-95977213D01*
X116092786Y-96121971D01*
X116247749Y-96234556D01*
X116258390Y-96242287D01*
X116349840Y-96288883D01*
X116351080Y-96289515D01*
X116401876Y-96337490D01*
X116418671Y-96405311D01*
X116396134Y-96471446D01*
X116351080Y-96510485D01*
X116258386Y-96557715D01*
X116092786Y-96678028D01*
X115948028Y-96822786D01*
X115827715Y-96988386D01*
X115734781Y-97170776D01*
X115671522Y-97365465D01*
X115639500Y-97567648D01*
X115639500Y-97772351D01*
X115671522Y-97974534D01*
X115734781Y-98169223D01*
X115827715Y-98351613D01*
X115948028Y-98517213D01*
X116092786Y-98661971D01*
X116195296Y-98736447D01*
X116258390Y-98782287D01*
X116349840Y-98828883D01*
X116351080Y-98829515D01*
X116401876Y-98877490D01*
X116418671Y-98945311D01*
X116396134Y-99011446D01*
X116351080Y-99050485D01*
X116258386Y-99097715D01*
X116092786Y-99218028D01*
X115948028Y-99362786D01*
X115827715Y-99528386D01*
X115734781Y-99710776D01*
X115671522Y-99905465D01*
X115639500Y-100107648D01*
X115639500Y-100312351D01*
X115671522Y-100514534D01*
X115734781Y-100709223D01*
X115798691Y-100834653D01*
X115807333Y-100851613D01*
X115827715Y-100891613D01*
X115948028Y-101057213D01*
X116092786Y-101201971D01*
X116247749Y-101314556D01*
X116258390Y-101322287D01*
X116349196Y-101368555D01*
X116351080Y-101369515D01*
X116401876Y-101417490D01*
X116418671Y-101485311D01*
X116396134Y-101551446D01*
X116351080Y-101590485D01*
X116258386Y-101637715D01*
X116092786Y-101758028D01*
X115948028Y-101902786D01*
X115827715Y-102068386D01*
X115734781Y-102250776D01*
X115671522Y-102445465D01*
X115639500Y-102647648D01*
X115639500Y-102852351D01*
X115671522Y-103054534D01*
X115734781Y-103249223D01*
X115798691Y-103374653D01*
X115827711Y-103431607D01*
X115827715Y-103431613D01*
X115948028Y-103597213D01*
X116092786Y-103741971D01*
X116224715Y-103837821D01*
X116258390Y-103862287D01*
X116349840Y-103908883D01*
X116351080Y-103909515D01*
X116401876Y-103957490D01*
X116418671Y-104025311D01*
X116396134Y-104091446D01*
X116351080Y-104130485D01*
X116258386Y-104177715D01*
X116092786Y-104298028D01*
X115948028Y-104442786D01*
X115827715Y-104608386D01*
X115734781Y-104790776D01*
X115671522Y-104985465D01*
X115639500Y-105187648D01*
X115639500Y-105392351D01*
X115671522Y-105594534D01*
X115734781Y-105789223D01*
X115827715Y-105971613D01*
X115948028Y-106137213D01*
X116092786Y-106281971D01*
X116247749Y-106394556D01*
X116258390Y-106402287D01*
X116349840Y-106448883D01*
X116351080Y-106449515D01*
X116401876Y-106497490D01*
X116418671Y-106565311D01*
X116396134Y-106631446D01*
X116351080Y-106670485D01*
X116258386Y-106717715D01*
X116092786Y-106838028D01*
X115948028Y-106982786D01*
X115827715Y-107148386D01*
X115734781Y-107330776D01*
X115671522Y-107525465D01*
X115639500Y-107727648D01*
X115639500Y-107932351D01*
X115671522Y-108134534D01*
X115734781Y-108329223D01*
X115798691Y-108454653D01*
X115807333Y-108471613D01*
X115827715Y-108511613D01*
X115948028Y-108677213D01*
X116092786Y-108821971D01*
X116203330Y-108902284D01*
X116258390Y-108942287D01*
X116348642Y-108988273D01*
X116351080Y-108989515D01*
X116401876Y-109037490D01*
X116418671Y-109105311D01*
X116396134Y-109171446D01*
X116351080Y-109210485D01*
X116258386Y-109257715D01*
X116092786Y-109378028D01*
X115948028Y-109522786D01*
X115827715Y-109688386D01*
X115734781Y-109870776D01*
X115671522Y-110065465D01*
X115639500Y-110267648D01*
X115639500Y-110472351D01*
X115671522Y-110674534D01*
X115734781Y-110869223D01*
X115798691Y-110994653D01*
X115807333Y-111011613D01*
X115827715Y-111051613D01*
X115948028Y-111217213D01*
X116092786Y-111361971D01*
X116203330Y-111442284D01*
X116258390Y-111482287D01*
X116362273Y-111535218D01*
X116440776Y-111575218D01*
X116440778Y-111575218D01*
X116440781Y-111575220D01*
X116498688Y-111594035D01*
X116635465Y-111638477D01*
X116664035Y-111643002D01*
X116837648Y-111670500D01*
X116837649Y-111670500D01*
X117442351Y-111670500D01*
X117442352Y-111670500D01*
X117644534Y-111638477D01*
X117839219Y-111575220D01*
X118021610Y-111482287D01*
X118114590Y-111414732D01*
X118187213Y-111361971D01*
X118187215Y-111361968D01*
X118187219Y-111361966D01*
X118331966Y-111217219D01*
X118331968Y-111217215D01*
X118331971Y-111217213D01*
X118406356Y-111114829D01*
X118452287Y-111051610D01*
X118545220Y-110869219D01*
X118608477Y-110674534D01*
X118640500Y-110472352D01*
X118640500Y-110267648D01*
X118608477Y-110065466D01*
X118545220Y-109870781D01*
X118545218Y-109870778D01*
X118545218Y-109870776D01*
X118494084Y-109770421D01*
X118452287Y-109688390D01*
X118423222Y-109648385D01*
X118331971Y-109522786D01*
X118187213Y-109378028D01*
X118021614Y-109257715D01*
X118015006Y-109254348D01*
X117928917Y-109210483D01*
X117878123Y-109162511D01*
X117861328Y-109094690D01*
X117883865Y-109028555D01*
X117928917Y-108989516D01*
X118021610Y-108942287D01*
X118077252Y-108901861D01*
X118187213Y-108821971D01*
X118187215Y-108821968D01*
X118187219Y-108821966D01*
X118331966Y-108677219D01*
X118331968Y-108677215D01*
X118331971Y-108677213D01*
X118384732Y-108604590D01*
X118452287Y-108511610D01*
X118545220Y-108329219D01*
X118608477Y-108134534D01*
X118640500Y-107932352D01*
X118640500Y-107727648D01*
X118619801Y-107596961D01*
X118608477Y-107525465D01*
X118545218Y-107330776D01*
X118480533Y-107203826D01*
X118452287Y-107148390D01*
X118419909Y-107103825D01*
X118331971Y-106982786D01*
X118187213Y-106838028D01*
X118021614Y-106717715D01*
X117998553Y-106705965D01*
X117928917Y-106670483D01*
X117878123Y-106622511D01*
X117861328Y-106554690D01*
X117883865Y-106488555D01*
X117928917Y-106449516D01*
X118021610Y-106402287D01*
X118165862Y-106297483D01*
X118187213Y-106281971D01*
X118187215Y-106281968D01*
X118187219Y-106281966D01*
X118331966Y-106137219D01*
X118331968Y-106137215D01*
X118331971Y-106137213D01*
X118384732Y-106064590D01*
X118452287Y-105971610D01*
X118545220Y-105789219D01*
X118608477Y-105594534D01*
X118640500Y-105392352D01*
X118640500Y-105187648D01*
X118625113Y-105090500D01*
X118608477Y-104985465D01*
X118545218Y-104790776D01*
X118493761Y-104689787D01*
X118452287Y-104608390D01*
X118419910Y-104563826D01*
X118331971Y-104442786D01*
X118187213Y-104298028D01*
X118021614Y-104177715D01*
X118015006Y-104174348D01*
X117928917Y-104130483D01*
X117878123Y-104082511D01*
X117861328Y-104014690D01*
X117883865Y-103948555D01*
X117928917Y-103909516D01*
X118021610Y-103862287D01*
X118055297Y-103837812D01*
X118187213Y-103741971D01*
X118187215Y-103741968D01*
X118187219Y-103741966D01*
X118331966Y-103597219D01*
X118331968Y-103597215D01*
X118331971Y-103597213D01*
X118424775Y-103469477D01*
X118452287Y-103431610D01*
X118545220Y-103249219D01*
X118608477Y-103054534D01*
X118640500Y-102852352D01*
X118640500Y-102647648D01*
X118624808Y-102548572D01*
X118608477Y-102445465D01*
X118564266Y-102309400D01*
X118545220Y-102250781D01*
X118545218Y-102250778D01*
X118545218Y-102250776D01*
X118464569Y-102092495D01*
X118451673Y-102023826D01*
X118477949Y-101959085D01*
X118535056Y-101918828D01*
X118575054Y-101912200D01*
X138564946Y-101912200D01*
X138631985Y-101931885D01*
X138677740Y-101984689D01*
X138687684Y-102053847D01*
X138675431Y-102092495D01*
X138594781Y-102250776D01*
X138531522Y-102445465D01*
X138499500Y-102647648D01*
X138499500Y-102852351D01*
X138531522Y-103054534D01*
X138594781Y-103249223D01*
X138658691Y-103374653D01*
X138687711Y-103431607D01*
X138687715Y-103431613D01*
X138808028Y-103597213D01*
X138952786Y-103741971D01*
X139084715Y-103837821D01*
X139118390Y-103862287D01*
X139209840Y-103908883D01*
X139211080Y-103909515D01*
X139261876Y-103957490D01*
X139278671Y-104025311D01*
X139256134Y-104091446D01*
X139211080Y-104130485D01*
X139118386Y-104177715D01*
X138952786Y-104298028D01*
X138808028Y-104442786D01*
X138687715Y-104608386D01*
X138594781Y-104790776D01*
X138531522Y-104985465D01*
X138499500Y-105187648D01*
X138499500Y-105392351D01*
X138531522Y-105594534D01*
X138594781Y-105789223D01*
X138687715Y-105971613D01*
X138808028Y-106137213D01*
X138952786Y-106281971D01*
X139107749Y-106394556D01*
X139118390Y-106402287D01*
X139190424Y-106438990D01*
X139211629Y-106449795D01*
X139262425Y-106497770D01*
X139279220Y-106565591D01*
X139256682Y-106631726D01*
X139211629Y-106670765D01*
X139118650Y-106718140D01*
X138953105Y-106838417D01*
X138953104Y-106838417D01*
X138808417Y-106983104D01*
X138808417Y-106983105D01*
X138688140Y-107148650D01*
X138595244Y-107330970D01*
X138532009Y-107525586D01*
X138523391Y-107580000D01*
X139566988Y-107580000D01*
X139534075Y-107637007D01*
X139500000Y-107764174D01*
X139500000Y-107895826D01*
X139534075Y-108022993D01*
X139566988Y-108080000D01*
X138523391Y-108080000D01*
X138532009Y-108134413D01*
X138595244Y-108329029D01*
X138688140Y-108511349D01*
X138808417Y-108676894D01*
X138808417Y-108676895D01*
X138953104Y-108821582D01*
X139118652Y-108941861D01*
X139211628Y-108989234D01*
X139262425Y-109037208D01*
X139279220Y-109105029D01*
X139256683Y-109171164D01*
X139211630Y-109210203D01*
X139118388Y-109257713D01*
X138952786Y-109378028D01*
X138808028Y-109522786D01*
X138687715Y-109688386D01*
X138594781Y-109870776D01*
X138531522Y-110065465D01*
X138499500Y-110267648D01*
X138499500Y-110472351D01*
X138531522Y-110674534D01*
X138594781Y-110869223D01*
X138658691Y-110994653D01*
X138667333Y-111011613D01*
X138687715Y-111051613D01*
X138808028Y-111217213D01*
X138952786Y-111361971D01*
X139063330Y-111442284D01*
X139118390Y-111482287D01*
X139300781Y-111575220D01*
X139352061Y-111591881D01*
X139409736Y-111631318D01*
X139433518Y-111677718D01*
X139440421Y-111703482D01*
X139440422Y-111703483D01*
X139440423Y-111703485D01*
X139459772Y-111736998D01*
X139469358Y-111753600D01*
X139469359Y-111753604D01*
X139469360Y-111753604D01*
X139519479Y-111840414D01*
X139519481Y-111840417D01*
X139638349Y-111959285D01*
X139638355Y-111959290D01*
X139934739Y-112255674D01*
X139934749Y-112255685D01*
X139939079Y-112260015D01*
X139939080Y-112260016D01*
X140050884Y-112371820D01*
X140137695Y-112421939D01*
X140137697Y-112421941D01*
X140175751Y-112443911D01*
X140187815Y-112450877D01*
X140340543Y-112491801D01*
X140340546Y-112491801D01*
X140506253Y-112491801D01*
X140506269Y-112491800D01*
X170050331Y-112491800D01*
X170050347Y-112491801D01*
X170057943Y-112491801D01*
X170216054Y-112491801D01*
X170216057Y-112491801D01*
X170368785Y-112450877D01*
X170418904Y-112421939D01*
X170505716Y-112371820D01*
X170617520Y-112260016D01*
X170617520Y-112260014D01*
X170627728Y-112249807D01*
X170627730Y-112249804D01*
X171666495Y-111211038D01*
X171727816Y-111177555D01*
X171797508Y-111182539D01*
X171841855Y-111211040D01*
X171952786Y-111321971D01*
X172107749Y-111434556D01*
X172118390Y-111442287D01*
X172234607Y-111501503D01*
X172300776Y-111535218D01*
X172300778Y-111535218D01*
X172300781Y-111535220D01*
X172405137Y-111569127D01*
X172495465Y-111598477D01*
X172537565Y-111605145D01*
X172697648Y-111630500D01*
X172697649Y-111630500D01*
X173302351Y-111630500D01*
X173302352Y-111630500D01*
X173504534Y-111598477D01*
X173699219Y-111535220D01*
X173881610Y-111442287D01*
X173974590Y-111374732D01*
X174047213Y-111321971D01*
X174047215Y-111321968D01*
X174047219Y-111321966D01*
X174191966Y-111177219D01*
X174191968Y-111177215D01*
X174191971Y-111177213D01*
X174283224Y-111051612D01*
X174312287Y-111011610D01*
X174405220Y-110829219D01*
X174468477Y-110634534D01*
X174500500Y-110432352D01*
X174500500Y-110227648D01*
X174493681Y-110184596D01*
X174468477Y-110025465D01*
X174411296Y-109849481D01*
X174405220Y-109830781D01*
X174405218Y-109830778D01*
X174405218Y-109830776D01*
X174360070Y-109742169D01*
X174312287Y-109648390D01*
X174304556Y-109637749D01*
X174191971Y-109482786D01*
X174047213Y-109338028D01*
X173881611Y-109217713D01*
X173788369Y-109170203D01*
X173737574Y-109122229D01*
X173720779Y-109054407D01*
X173743317Y-108988273D01*
X173788371Y-108949234D01*
X173881347Y-108901861D01*
X174046894Y-108781582D01*
X174046895Y-108781582D01*
X174191582Y-108636895D01*
X174191582Y-108636894D01*
X174311859Y-108471349D01*
X174404755Y-108289029D01*
X174467990Y-108094413D01*
X174476609Y-108040000D01*
X173433012Y-108040000D01*
X173465925Y-107982993D01*
X173500000Y-107855826D01*
X173500000Y-107724174D01*
X173465925Y-107597007D01*
X173433012Y-107540000D01*
X174476609Y-107540000D01*
X174467990Y-107485586D01*
X174404755Y-107290970D01*
X174395342Y-107272495D01*
X174382446Y-107203826D01*
X174408722Y-107139086D01*
X174465828Y-107098828D01*
X174505827Y-107092200D01*
X178609931Y-107092200D01*
X178609947Y-107092201D01*
X178617543Y-107092201D01*
X178775654Y-107092201D01*
X178775657Y-107092201D01*
X178928385Y-107051277D01*
X178978504Y-107022339D01*
X179065316Y-106972220D01*
X179177120Y-106860416D01*
X179177120Y-106860414D01*
X179187328Y-106850207D01*
X179187330Y-106850204D01*
X179561777Y-106475756D01*
X179623098Y-106442273D01*
X179692790Y-106447257D01*
X179748721Y-106489126D01*
X179792454Y-106547546D01*
X179811125Y-106561523D01*
X179907664Y-106633793D01*
X179907671Y-106633797D01*
X180039081Y-106682810D01*
X180095015Y-106724681D01*
X180119432Y-106790145D01*
X180104580Y-106858418D01*
X180083430Y-106886673D01*
X179961503Y-107008600D01*
X179825965Y-107202169D01*
X179825964Y-107202171D01*
X179726098Y-107416335D01*
X179726094Y-107416344D01*
X179664938Y-107644586D01*
X179664936Y-107644596D01*
X179644341Y-107879999D01*
X179644341Y-107880000D01*
X179664936Y-108115403D01*
X179664938Y-108115413D01*
X179726094Y-108343655D01*
X179726096Y-108343659D01*
X179726097Y-108343663D01*
X179804412Y-108511610D01*
X179825965Y-108557830D01*
X179825967Y-108557834D01*
X179961501Y-108751395D01*
X179961506Y-108751402D01*
X180128597Y-108918493D01*
X180128603Y-108918498D01*
X180314158Y-109048425D01*
X180357783Y-109103002D01*
X180364977Y-109172500D01*
X180333454Y-109234855D01*
X180314158Y-109251575D01*
X180128597Y-109381505D01*
X179961505Y-109548597D01*
X179825965Y-109742169D01*
X179825964Y-109742171D01*
X179726098Y-109956335D01*
X179726094Y-109956344D01*
X179664938Y-110184586D01*
X179664936Y-110184596D01*
X179644341Y-110419999D01*
X179644341Y-110420000D01*
X179664936Y-110655403D01*
X179664938Y-110655413D01*
X179726094Y-110883655D01*
X179726096Y-110883659D01*
X179726097Y-110883663D01*
X179779509Y-110998205D01*
X179825965Y-111097830D01*
X179825967Y-111097834D01*
X179961501Y-111291395D01*
X179961506Y-111291402D01*
X180128597Y-111458493D01*
X180128603Y-111458498D01*
X180314158Y-111588425D01*
X180357783Y-111643002D01*
X180364977Y-111712500D01*
X180333454Y-111774855D01*
X180314158Y-111791575D01*
X180128597Y-111921505D01*
X179961505Y-112088597D01*
X179825965Y-112282169D01*
X179825964Y-112282171D01*
X179726098Y-112496335D01*
X179726094Y-112496344D01*
X179664938Y-112724586D01*
X179664936Y-112724596D01*
X179644341Y-112959999D01*
X179644341Y-112960000D01*
X179664936Y-113195403D01*
X179664938Y-113195413D01*
X179726094Y-113423655D01*
X179726096Y-113423659D01*
X179726097Y-113423663D01*
X179825965Y-113637830D01*
X179825967Y-113637834D01*
X179961501Y-113831395D01*
X179961506Y-113831402D01*
X180128597Y-113998493D01*
X180128603Y-113998498D01*
X180314158Y-114128425D01*
X180357783Y-114183002D01*
X180364977Y-114252500D01*
X180333454Y-114314855D01*
X180314158Y-114331575D01*
X180128597Y-114461505D01*
X179961505Y-114628597D01*
X179825965Y-114822169D01*
X179825964Y-114822171D01*
X179726098Y-115036335D01*
X179726094Y-115036344D01*
X179664938Y-115264586D01*
X179664936Y-115264596D01*
X179644341Y-115499999D01*
X179644341Y-115500000D01*
X179664936Y-115735403D01*
X179664938Y-115735413D01*
X179726094Y-115963655D01*
X179726096Y-115963659D01*
X179726097Y-115963663D01*
X179825965Y-116177830D01*
X179825967Y-116177834D01*
X179934281Y-116332521D01*
X179961505Y-116371401D01*
X180128599Y-116538495D01*
X180225384Y-116606265D01*
X180322165Y-116674032D01*
X180322167Y-116674033D01*
X180322170Y-116674035D01*
X180409630Y-116714818D01*
X180462069Y-116760990D01*
X180481221Y-116828184D01*
X180461005Y-116895065D01*
X180407840Y-116940399D01*
X180357225Y-116951200D01*
X166520940Y-116951200D01*
X166480019Y-116962164D01*
X166480019Y-116962165D01*
X166442751Y-116972151D01*
X166368214Y-116992123D01*
X166368209Y-116992126D01*
X166231290Y-117071175D01*
X166231282Y-117071181D01*
X166119478Y-117182986D01*
X151788416Y-131514047D01*
X151727093Y-131547532D01*
X151657401Y-131542548D01*
X151601468Y-131500676D01*
X151584551Y-131469693D01*
X151583796Y-131467670D01*
X151583793Y-131467664D01*
X151497547Y-131352455D01*
X151497544Y-131352452D01*
X151382335Y-131266206D01*
X151382328Y-131266202D01*
X151247482Y-131215908D01*
X151247483Y-131215908D01*
X151187883Y-131209501D01*
X151187881Y-131209500D01*
X151187873Y-131209500D01*
X151187864Y-131209500D01*
X149092129Y-131209500D01*
X149092123Y-131209501D01*
X149032516Y-131215908D01*
X148897671Y-131266202D01*
X148897664Y-131266206D01*
X148782455Y-131352452D01*
X148782452Y-131352455D01*
X148696206Y-131467664D01*
X148696203Y-131467669D01*
X148695446Y-131469701D01*
X148694146Y-131471436D01*
X148691953Y-131475454D01*
X148691375Y-131475138D01*
X148653574Y-131525634D01*
X148588110Y-131550051D01*
X148519837Y-131535199D01*
X148491583Y-131514048D01*
X148229190Y-131251655D01*
X148229188Y-131251652D01*
X148110317Y-131132781D01*
X148110316Y-131132780D01*
X148017266Y-131079058D01*
X147973385Y-131053723D01*
X147820657Y-131012799D01*
X147662543Y-131012799D01*
X147654947Y-131012799D01*
X147654931Y-131012800D01*
X119665070Y-131012800D01*
X119665054Y-131012799D01*
X119657458Y-131012799D01*
X119499343Y-131012799D01*
X119422979Y-131033261D01*
X119346614Y-131053723D01*
X119346609Y-131053726D01*
X119209690Y-131132775D01*
X119209682Y-131132781D01*
X118788416Y-131554047D01*
X118727093Y-131587532D01*
X118657401Y-131582548D01*
X118601468Y-131540676D01*
X118584551Y-131509693D01*
X118584394Y-131509273D01*
X118583796Y-131507669D01*
X118583794Y-131507666D01*
X118583793Y-131507664D01*
X118497547Y-131392455D01*
X118497544Y-131392452D01*
X118382335Y-131306206D01*
X118382328Y-131306202D01*
X118247482Y-131255908D01*
X118247483Y-131255908D01*
X118187883Y-131249501D01*
X118187881Y-131249500D01*
X118187873Y-131249500D01*
X118187864Y-131249500D01*
X116092129Y-131249500D01*
X116092123Y-131249501D01*
X116032516Y-131255908D01*
X115897671Y-131306202D01*
X115897664Y-131306206D01*
X115782455Y-131392452D01*
X115782452Y-131392455D01*
X115696206Y-131507664D01*
X115696202Y-131507671D01*
X115645908Y-131642517D01*
X115639501Y-131702116D01*
X115639500Y-131702135D01*
X115639500Y-132040500D01*
X115619815Y-132107539D01*
X115567011Y-132153294D01*
X115515500Y-132164500D01*
X113474499Y-132164500D01*
X113407460Y-132144815D01*
X113361705Y-132092011D01*
X113350499Y-132040500D01*
X113350499Y-131867129D01*
X113350498Y-131867123D01*
X113350497Y-131867116D01*
X113344091Y-131807517D01*
X113340542Y-131798002D01*
X113293797Y-131672671D01*
X113293793Y-131672664D01*
X113207547Y-131557455D01*
X113207544Y-131557452D01*
X113092335Y-131471206D01*
X113092328Y-131471202D01*
X112957482Y-131420908D01*
X112957483Y-131420908D01*
X112897883Y-131414501D01*
X112897881Y-131414500D01*
X112897873Y-131414500D01*
X112897864Y-131414500D01*
X111102129Y-131414500D01*
X111102123Y-131414501D01*
X111042516Y-131420908D01*
X110907671Y-131471202D01*
X110907664Y-131471206D01*
X110792455Y-131557452D01*
X110792452Y-131557455D01*
X110706206Y-131672664D01*
X110706202Y-131672671D01*
X110655908Y-131807517D01*
X110649501Y-131867116D01*
X110649501Y-131867123D01*
X110649500Y-131867135D01*
X110649500Y-133662870D01*
X110649501Y-133662876D01*
X110655908Y-133722483D01*
X110706202Y-133857328D01*
X110706206Y-133857335D01*
X110792452Y-133972544D01*
X110792455Y-133972547D01*
X110907664Y-134058793D01*
X110907671Y-134058797D01*
X111039081Y-134107810D01*
X111095015Y-134149681D01*
X111119432Y-134215145D01*
X111104580Y-134283418D01*
X111083430Y-134311673D01*
X110961503Y-134433600D01*
X110825965Y-134627169D01*
X110825964Y-134627171D01*
X110726098Y-134841335D01*
X110726094Y-134841344D01*
X110664938Y-135069586D01*
X110664936Y-135069596D01*
X110644341Y-135304999D01*
X103000500Y-135304999D01*
X103000500Y-103589994D01*
X104494357Y-103589994D01*
X104494357Y-103590005D01*
X104514890Y-103837812D01*
X104514892Y-103837824D01*
X104575936Y-104078881D01*
X104675826Y-104306606D01*
X104811833Y-104514782D01*
X104811836Y-104514785D01*
X104980256Y-104697738D01*
X105176491Y-104850474D01*
X105205064Y-104865937D01*
X105352011Y-104945461D01*
X105395190Y-104968828D01*
X105630386Y-105049571D01*
X105875665Y-105090500D01*
X106124335Y-105090500D01*
X106369614Y-105049571D01*
X106604810Y-104968828D01*
X106823509Y-104850474D01*
X107019744Y-104697738D01*
X107188164Y-104514785D01*
X107324173Y-104306607D01*
X107424063Y-104078881D01*
X107485108Y-103837821D01*
X107485109Y-103837812D01*
X107505643Y-103590005D01*
X107505643Y-103589994D01*
X110994357Y-103589994D01*
X110994357Y-103590005D01*
X111014890Y-103837812D01*
X111014892Y-103837824D01*
X111075936Y-104078881D01*
X111175826Y-104306606D01*
X111311833Y-104514782D01*
X111311836Y-104514785D01*
X111480256Y-104697738D01*
X111676491Y-104850474D01*
X111705064Y-104865937D01*
X111852011Y-104945461D01*
X111895190Y-104968828D01*
X112130386Y-105049571D01*
X112375665Y-105090500D01*
X112624335Y-105090500D01*
X112869614Y-105049571D01*
X113104810Y-104968828D01*
X113323509Y-104850474D01*
X113519744Y-104697738D01*
X113688164Y-104514785D01*
X113824173Y-104306607D01*
X113924063Y-104078881D01*
X113985108Y-103837821D01*
X113985109Y-103837812D01*
X114005643Y-103590005D01*
X114005643Y-103589994D01*
X113985109Y-103342187D01*
X113985107Y-103342175D01*
X113924063Y-103101118D01*
X113824173Y-102873393D01*
X113688166Y-102665217D01*
X113635170Y-102607648D01*
X113519744Y-102482262D01*
X113323509Y-102329526D01*
X113323507Y-102329525D01*
X113323506Y-102329524D01*
X113104811Y-102211172D01*
X113104802Y-102211169D01*
X112869616Y-102130429D01*
X112624335Y-102089500D01*
X112375665Y-102089500D01*
X112130383Y-102130429D01*
X111895197Y-102211169D01*
X111895188Y-102211172D01*
X111676493Y-102329524D01*
X111480257Y-102482261D01*
X111311833Y-102665217D01*
X111175826Y-102873393D01*
X111075936Y-103101118D01*
X111014892Y-103342175D01*
X111014890Y-103342187D01*
X110994357Y-103589994D01*
X107505643Y-103589994D01*
X107485109Y-103342187D01*
X107485107Y-103342175D01*
X107424063Y-103101118D01*
X107324173Y-102873393D01*
X107188166Y-102665217D01*
X107135170Y-102607648D01*
X107019744Y-102482262D01*
X106823509Y-102329526D01*
X106823507Y-102329525D01*
X106823506Y-102329524D01*
X106604811Y-102211172D01*
X106604802Y-102211169D01*
X106369616Y-102130429D01*
X106124335Y-102089500D01*
X105875665Y-102089500D01*
X105630383Y-102130429D01*
X105395197Y-102211169D01*
X105395188Y-102211172D01*
X105176493Y-102329524D01*
X104980257Y-102482261D01*
X104811833Y-102665217D01*
X104675826Y-102873393D01*
X104575936Y-103101118D01*
X104514892Y-103342175D01*
X104514890Y-103342187D01*
X104494357Y-103589994D01*
X103000500Y-103589994D01*
X103000500Y-99089994D01*
X104494859Y-99089994D01*
X104494859Y-99090005D01*
X104515385Y-99337729D01*
X104515387Y-99337738D01*
X104576412Y-99578717D01*
X104676266Y-99806364D01*
X104776564Y-99959882D01*
X105476212Y-99260234D01*
X105487482Y-99302292D01*
X105559890Y-99427708D01*
X105662292Y-99530110D01*
X105787708Y-99602518D01*
X105829765Y-99613787D01*
X105129942Y-100313609D01*
X105176768Y-100350055D01*
X105176770Y-100350056D01*
X105395385Y-100468364D01*
X105395396Y-100468369D01*
X105630506Y-100549083D01*
X105875707Y-100590000D01*
X106124293Y-100590000D01*
X106369493Y-100549083D01*
X106604603Y-100468369D01*
X106604614Y-100468364D01*
X106823228Y-100350057D01*
X106823231Y-100350055D01*
X106870056Y-100313609D01*
X106170234Y-99613787D01*
X106212292Y-99602518D01*
X106337708Y-99530110D01*
X106440110Y-99427708D01*
X106512518Y-99302292D01*
X106523787Y-99260235D01*
X107223434Y-99959882D01*
X107323731Y-99806369D01*
X107423587Y-99578717D01*
X107484612Y-99337738D01*
X107484614Y-99337729D01*
X107505141Y-99090005D01*
X107505141Y-99089994D01*
X110994859Y-99089994D01*
X110994859Y-99090005D01*
X111015385Y-99337729D01*
X111015387Y-99337738D01*
X111076412Y-99578717D01*
X111176266Y-99806364D01*
X111276564Y-99959882D01*
X111976212Y-99260234D01*
X111987482Y-99302292D01*
X112059890Y-99427708D01*
X112162292Y-99530110D01*
X112287708Y-99602518D01*
X112329765Y-99613787D01*
X111629942Y-100313609D01*
X111676768Y-100350055D01*
X111676770Y-100350056D01*
X111895385Y-100468364D01*
X111895396Y-100468369D01*
X112130506Y-100549083D01*
X112375707Y-100590000D01*
X112624293Y-100590000D01*
X112869493Y-100549083D01*
X113104603Y-100468369D01*
X113104614Y-100468364D01*
X113323228Y-100350057D01*
X113323231Y-100350055D01*
X113370056Y-100313609D01*
X112670234Y-99613787D01*
X112712292Y-99602518D01*
X112837708Y-99530110D01*
X112940110Y-99427708D01*
X113012518Y-99302292D01*
X113023787Y-99260235D01*
X113723434Y-99959882D01*
X113823731Y-99806369D01*
X113923587Y-99578717D01*
X113984612Y-99337738D01*
X113984614Y-99337729D01*
X114005141Y-99090005D01*
X114005141Y-99089994D01*
X113984614Y-98842270D01*
X113984612Y-98842261D01*
X113923587Y-98601282D01*
X113823731Y-98373630D01*
X113723434Y-98220116D01*
X113023787Y-98919764D01*
X113012518Y-98877708D01*
X112940110Y-98752292D01*
X112837708Y-98649890D01*
X112712292Y-98577482D01*
X112670235Y-98566212D01*
X113370057Y-97866390D01*
X113370056Y-97866389D01*
X113323229Y-97829943D01*
X113104614Y-97711635D01*
X113104603Y-97711630D01*
X112869493Y-97630916D01*
X112624293Y-97590000D01*
X112375707Y-97590000D01*
X112130506Y-97630916D01*
X111895396Y-97711630D01*
X111895390Y-97711632D01*
X111676761Y-97829949D01*
X111629942Y-97866388D01*
X111629942Y-97866390D01*
X112329765Y-98566212D01*
X112287708Y-98577482D01*
X112162292Y-98649890D01*
X112059890Y-98752292D01*
X111987482Y-98877708D01*
X111976212Y-98919764D01*
X111276564Y-98220116D01*
X111176267Y-98373632D01*
X111076412Y-98601282D01*
X111015387Y-98842261D01*
X111015385Y-98842270D01*
X110994859Y-99089994D01*
X107505141Y-99089994D01*
X107484614Y-98842270D01*
X107484612Y-98842261D01*
X107423587Y-98601282D01*
X107323731Y-98373630D01*
X107223434Y-98220116D01*
X106523787Y-98919764D01*
X106512518Y-98877708D01*
X106440110Y-98752292D01*
X106337708Y-98649890D01*
X106212292Y-98577482D01*
X106170235Y-98566212D01*
X106870057Y-97866390D01*
X106870056Y-97866389D01*
X106823229Y-97829943D01*
X106604614Y-97711635D01*
X106604603Y-97711630D01*
X106369493Y-97630916D01*
X106124293Y-97590000D01*
X105875707Y-97590000D01*
X105630506Y-97630916D01*
X105395396Y-97711630D01*
X105395390Y-97711632D01*
X105176761Y-97829949D01*
X105129942Y-97866388D01*
X105129942Y-97866390D01*
X105829765Y-98566212D01*
X105787708Y-98577482D01*
X105662292Y-98649890D01*
X105559890Y-98752292D01*
X105487482Y-98877708D01*
X105476212Y-98919764D01*
X104776564Y-98220116D01*
X104676267Y-98373632D01*
X104576412Y-98601282D01*
X104515387Y-98842261D01*
X104515385Y-98842270D01*
X104494859Y-99089994D01*
X103000500Y-99089994D01*
X103000500Y-80809998D01*
X176194532Y-80809998D01*
X176194532Y-80810001D01*
X176214364Y-81036686D01*
X176214366Y-81036697D01*
X176273258Y-81256488D01*
X176273261Y-81256497D01*
X176369431Y-81462732D01*
X176369432Y-81462734D01*
X176499954Y-81649141D01*
X176660858Y-81810045D01*
X176660861Y-81810047D01*
X176847266Y-81940568D01*
X177053504Y-82036739D01*
X177273308Y-82095635D01*
X177435230Y-82109801D01*
X177499998Y-82115468D01*
X177500000Y-82115468D01*
X177500002Y-82115468D01*
X177556673Y-82110509D01*
X177726692Y-82095635D01*
X177946496Y-82036739D01*
X178152734Y-81940568D01*
X178339139Y-81810047D01*
X178500047Y-81649139D01*
X178630568Y-81462734D01*
X178726739Y-81256496D01*
X178785635Y-81036692D01*
X178805468Y-80810000D01*
X178785635Y-80583308D01*
X178726739Y-80363504D01*
X178630568Y-80157266D01*
X178532839Y-80017693D01*
X178500045Y-79970858D01*
X178339141Y-79809954D01*
X178152734Y-79679432D01*
X178152732Y-79679431D01*
X177946497Y-79583261D01*
X177946488Y-79583258D01*
X177726697Y-79524366D01*
X177726693Y-79524365D01*
X177726692Y-79524365D01*
X177726691Y-79524364D01*
X177726686Y-79524364D01*
X177500002Y-79504532D01*
X177499998Y-79504532D01*
X177273313Y-79524364D01*
X177273302Y-79524366D01*
X177053511Y-79583258D01*
X177053502Y-79583261D01*
X176847267Y-79679431D01*
X176847265Y-79679432D01*
X176660858Y-79809954D01*
X176499954Y-79970858D01*
X176369432Y-80157265D01*
X176369431Y-80157267D01*
X176273261Y-80363502D01*
X176273258Y-80363511D01*
X176214366Y-80583302D01*
X176214364Y-80583313D01*
X176194532Y-80809998D01*
X103000500Y-80809998D01*
X103000500Y-73189998D01*
X176194532Y-73189998D01*
X176194532Y-73190001D01*
X176214364Y-73416686D01*
X176214366Y-73416697D01*
X176273258Y-73636488D01*
X176273261Y-73636497D01*
X176369431Y-73842732D01*
X176369432Y-73842734D01*
X176499954Y-74029141D01*
X176660858Y-74190045D01*
X176660861Y-74190047D01*
X176847266Y-74320568D01*
X177053504Y-74416739D01*
X177273308Y-74475635D01*
X177435230Y-74489801D01*
X177499998Y-74495468D01*
X177500000Y-74495468D01*
X177500002Y-74495468D01*
X177556673Y-74490509D01*
X177726692Y-74475635D01*
X177946496Y-74416739D01*
X178152734Y-74320568D01*
X178339139Y-74190047D01*
X178500047Y-74029139D01*
X178630568Y-73842734D01*
X178726739Y-73636496D01*
X178785635Y-73416692D01*
X178805468Y-73190000D01*
X178785635Y-72963308D01*
X178726739Y-72743504D01*
X178630568Y-72537266D01*
X178500047Y-72350861D01*
X178500045Y-72350858D01*
X178339141Y-72189954D01*
X178152734Y-72059432D01*
X178152732Y-72059431D01*
X177946497Y-71963261D01*
X177946488Y-71963258D01*
X177726697Y-71904366D01*
X177726693Y-71904365D01*
X177726692Y-71904365D01*
X177726691Y-71904364D01*
X177726686Y-71904364D01*
X177500002Y-71884532D01*
X177499998Y-71884532D01*
X177273313Y-71904364D01*
X177273302Y-71904366D01*
X177053511Y-71963258D01*
X177053502Y-71963261D01*
X176847267Y-72059431D01*
X176847265Y-72059432D01*
X176660858Y-72189954D01*
X176499954Y-72350858D01*
X176369432Y-72537265D01*
X176369431Y-72537267D01*
X176273261Y-72743502D01*
X176273258Y-72743511D01*
X176214366Y-72963302D01*
X176214364Y-72963313D01*
X176194532Y-73189998D01*
X103000500Y-73189998D01*
X103000500Y-66552155D01*
X174825000Y-66552155D01*
X174825000Y-67250000D01*
X175849722Y-67250000D01*
X175805667Y-67326306D01*
X175775000Y-67440756D01*
X175775000Y-67559244D01*
X175805667Y-67673694D01*
X175849722Y-67750000D01*
X174825000Y-67750000D01*
X174825000Y-68447844D01*
X174831401Y-68507372D01*
X174831403Y-68507379D01*
X174881645Y-68642086D01*
X174881649Y-68642093D01*
X174967809Y-68757187D01*
X174967812Y-68757190D01*
X175082906Y-68843350D01*
X175082913Y-68843354D01*
X175217620Y-68893596D01*
X175217627Y-68893598D01*
X175277155Y-68899999D01*
X175277172Y-68900000D01*
X175975000Y-68900000D01*
X175975000Y-67875277D01*
X176051306Y-67919333D01*
X176165756Y-67950000D01*
X176284244Y-67950000D01*
X176398694Y-67919333D01*
X176475000Y-67875277D01*
X176475000Y-68900000D01*
X177172828Y-68900000D01*
X177172844Y-68899999D01*
X177232372Y-68893598D01*
X177232379Y-68893596D01*
X177367086Y-68843354D01*
X177367093Y-68843350D01*
X177482187Y-68757190D01*
X177482190Y-68757187D01*
X177568350Y-68642093D01*
X177568355Y-68642084D01*
X177597075Y-68565081D01*
X177638945Y-68509147D01*
X177704409Y-68484729D01*
X177772682Y-68499580D01*
X177804484Y-68524428D01*
X177813216Y-68533913D01*
X177813219Y-68533915D01*
X177813222Y-68533918D01*
X177996365Y-68676464D01*
X177996371Y-68676468D01*
X177996374Y-68676470D01*
X178200497Y-68786936D01*
X178314487Y-68826068D01*
X178420015Y-68862297D01*
X178420017Y-68862297D01*
X178420019Y-68862298D01*
X178648951Y-68900500D01*
X178648952Y-68900500D01*
X178881048Y-68900500D01*
X178881049Y-68900500D01*
X179109981Y-68862298D01*
X179329503Y-68786936D01*
X179533626Y-68676470D01*
X179716784Y-68533913D01*
X179873979Y-68363153D01*
X180000924Y-68168849D01*
X180094157Y-67956300D01*
X180151134Y-67731305D01*
X180170300Y-67500000D01*
X180170300Y-67499993D01*
X180151135Y-67268702D01*
X180151133Y-67268691D01*
X180094157Y-67043699D01*
X180000924Y-66831151D01*
X179873983Y-66636852D01*
X179873980Y-66636849D01*
X179873979Y-66636847D01*
X179716784Y-66466087D01*
X179716779Y-66466083D01*
X179716777Y-66466081D01*
X179533634Y-66323535D01*
X179533628Y-66323531D01*
X179329504Y-66213064D01*
X179329495Y-66213061D01*
X179109984Y-66137702D01*
X178922404Y-66106401D01*
X178881049Y-66099500D01*
X178648951Y-66099500D01*
X178607596Y-66106401D01*
X178420015Y-66137702D01*
X178200504Y-66213061D01*
X178200495Y-66213064D01*
X177996371Y-66323531D01*
X177996365Y-66323535D01*
X177813222Y-66466081D01*
X177813215Y-66466087D01*
X177804484Y-66475572D01*
X177744595Y-66511561D01*
X177674757Y-66509458D01*
X177617143Y-66469932D01*
X177597075Y-66434918D01*
X177568355Y-66357915D01*
X177568350Y-66357906D01*
X177482190Y-66242812D01*
X177482187Y-66242809D01*
X177367093Y-66156649D01*
X177367086Y-66156645D01*
X177232379Y-66106403D01*
X177232372Y-66106401D01*
X177172844Y-66100000D01*
X176475000Y-66100000D01*
X176475000Y-67124722D01*
X176398694Y-67080667D01*
X176284244Y-67050000D01*
X176165756Y-67050000D01*
X176051306Y-67080667D01*
X175975000Y-67124722D01*
X175975000Y-66100000D01*
X175277155Y-66100000D01*
X175217627Y-66106401D01*
X175217620Y-66106403D01*
X175082913Y-66156645D01*
X175082906Y-66156649D01*
X174967812Y-66242809D01*
X174967809Y-66242812D01*
X174881649Y-66357906D01*
X174881645Y-66357913D01*
X174831403Y-66492620D01*
X174831401Y-66492627D01*
X174825000Y-66552155D01*
X103000500Y-66552155D01*
X103000500Y-63124500D01*
X103020185Y-63057461D01*
X103072989Y-63011706D01*
X103124500Y-63000500D01*
X200875500Y-63000500D01*
X200942539Y-63020185D01*
G37*
%TD.AperFunction*%
%TD*%
M02*
